G04 #@! TF.GenerationSoftware,KiCad,Pcbnew,(5.1.6)-1*
G04 #@! TF.CreationDate,2020-06-13T20:50:13+02:00*
G04 #@! TF.ProjectId,CS5490_Breakout,43533534-3930-45f4-9272-65616b6f7574,rev?*
G04 #@! TF.SameCoordinates,Original*
G04 #@! TF.FileFunction,Legend,Top*
G04 #@! TF.FilePolarity,Positive*
%FSLAX46Y46*%
G04 Gerber Fmt 4.6, Leading zero omitted, Abs format (unit mm)*
G04 Created by KiCad (PCBNEW (5.1.6)-1) date 2020-06-13 20:50:13*
%MOMM*%
%LPD*%
G01*
G04 APERTURE LIST*
%ADD10C,0.250000*%
%ADD11C,0.500000*%
%ADD12C,0.300000*%
%ADD13C,0.120000*%
%ADD14C,0.010000*%
%ADD15C,0.150000*%
%ADD16C,0.200000*%
G04 APERTURE END LIST*
D10*
X150300000Y-101625000D02*
X151700000Y-101625000D01*
D11*
X147000000Y-109000000D02*
G75*
G03*
X147000000Y-109000000I-250000J0D01*
G01*
D12*
X136318571Y-117375714D02*
X136375714Y-117432857D01*
X136432857Y-117604285D01*
X136432857Y-117718571D01*
X136375714Y-117890000D01*
X136261428Y-118004285D01*
X136147142Y-118061428D01*
X135918571Y-118118571D01*
X135747142Y-118118571D01*
X135518571Y-118061428D01*
X135404285Y-118004285D01*
X135290000Y-117890000D01*
X135232857Y-117718571D01*
X135232857Y-117604285D01*
X135290000Y-117432857D01*
X135347142Y-117375714D01*
X136375714Y-116918571D02*
X136432857Y-116747142D01*
X136432857Y-116461428D01*
X136375714Y-116347142D01*
X136318571Y-116290000D01*
X136204285Y-116232857D01*
X136090000Y-116232857D01*
X135975714Y-116290000D01*
X135918571Y-116347142D01*
X135861428Y-116461428D01*
X135804285Y-116690000D01*
X135747142Y-116804285D01*
X135690000Y-116861428D01*
X135575714Y-116918571D01*
X135461428Y-116918571D01*
X135347142Y-116861428D01*
X135290000Y-116804285D01*
X135232857Y-116690000D01*
X135232857Y-116404285D01*
X135290000Y-116232857D01*
X135232857Y-115147142D02*
X135232857Y-115718571D01*
X135804285Y-115775714D01*
X135747142Y-115718571D01*
X135690000Y-115604285D01*
X135690000Y-115318571D01*
X135747142Y-115204285D01*
X135804285Y-115147142D01*
X135918571Y-115090000D01*
X136204285Y-115090000D01*
X136318571Y-115147142D01*
X136375714Y-115204285D01*
X136432857Y-115318571D01*
X136432857Y-115604285D01*
X136375714Y-115718571D01*
X136318571Y-115775714D01*
X135632857Y-114061428D02*
X136432857Y-114061428D01*
X135175714Y-114347142D02*
X136032857Y-114632857D01*
X136032857Y-113890000D01*
X136432857Y-113375714D02*
X136432857Y-113147142D01*
X136375714Y-113032857D01*
X136318571Y-112975714D01*
X136147142Y-112861428D01*
X135918571Y-112804285D01*
X135461428Y-112804285D01*
X135347142Y-112861428D01*
X135290000Y-112918571D01*
X135232857Y-113032857D01*
X135232857Y-113261428D01*
X135290000Y-113375714D01*
X135347142Y-113432857D01*
X135461428Y-113490000D01*
X135747142Y-113490000D01*
X135861428Y-113432857D01*
X135918571Y-113375714D01*
X135975714Y-113261428D01*
X135975714Y-113032857D01*
X135918571Y-112918571D01*
X135861428Y-112861428D01*
X135747142Y-112804285D01*
X135232857Y-112061428D02*
X135232857Y-111947142D01*
X135290000Y-111832857D01*
X135347142Y-111775714D01*
X135461428Y-111718571D01*
X135690000Y-111661428D01*
X135975714Y-111661428D01*
X136204285Y-111718571D01*
X136318571Y-111775714D01*
X136375714Y-111832857D01*
X136432857Y-111947142D01*
X136432857Y-112061428D01*
X136375714Y-112175714D01*
X136318571Y-112232857D01*
X136204285Y-112290000D01*
X135975714Y-112347142D01*
X135690000Y-112347142D01*
X135461428Y-112290000D01*
X135347142Y-112232857D01*
X135290000Y-112175714D01*
X135232857Y-112061428D01*
X135804285Y-109832857D02*
X135861428Y-109661428D01*
X135918571Y-109604285D01*
X136032857Y-109547142D01*
X136204285Y-109547142D01*
X136318571Y-109604285D01*
X136375714Y-109661428D01*
X136432857Y-109775714D01*
X136432857Y-110232857D01*
X135232857Y-110232857D01*
X135232857Y-109832857D01*
X135290000Y-109718571D01*
X135347142Y-109661428D01*
X135461428Y-109604285D01*
X135575714Y-109604285D01*
X135690000Y-109661428D01*
X135747142Y-109718571D01*
X135804285Y-109832857D01*
X135804285Y-110232857D01*
X136432857Y-109032857D02*
X135632857Y-109032857D01*
X135861428Y-109032857D02*
X135747142Y-108975714D01*
X135690000Y-108918571D01*
X135632857Y-108804285D01*
X135632857Y-108690000D01*
X136375714Y-107832857D02*
X136432857Y-107947142D01*
X136432857Y-108175714D01*
X136375714Y-108290000D01*
X136261428Y-108347142D01*
X135804285Y-108347142D01*
X135690000Y-108290000D01*
X135632857Y-108175714D01*
X135632857Y-107947142D01*
X135690000Y-107832857D01*
X135804285Y-107775714D01*
X135918571Y-107775714D01*
X136032857Y-108347142D01*
X136432857Y-106747142D02*
X135804285Y-106747142D01*
X135690000Y-106804285D01*
X135632857Y-106918571D01*
X135632857Y-107147142D01*
X135690000Y-107261428D01*
X136375714Y-106747142D02*
X136432857Y-106861428D01*
X136432857Y-107147142D01*
X136375714Y-107261428D01*
X136261428Y-107318571D01*
X136147142Y-107318571D01*
X136032857Y-107261428D01*
X135975714Y-107147142D01*
X135975714Y-106861428D01*
X135918571Y-106747142D01*
X136432857Y-106175714D02*
X135232857Y-106175714D01*
X135975714Y-106061428D02*
X136432857Y-105718571D01*
X135632857Y-105718571D02*
X136090000Y-106175714D01*
X136432857Y-105032857D02*
X136375714Y-105147142D01*
X136318571Y-105204285D01*
X136204285Y-105261428D01*
X135861428Y-105261428D01*
X135747142Y-105204285D01*
X135690000Y-105147142D01*
X135632857Y-105032857D01*
X135632857Y-104861428D01*
X135690000Y-104747142D01*
X135747142Y-104690000D01*
X135861428Y-104632857D01*
X136204285Y-104632857D01*
X136318571Y-104690000D01*
X136375714Y-104747142D01*
X136432857Y-104861428D01*
X136432857Y-105032857D01*
X135632857Y-103604285D02*
X136432857Y-103604285D01*
X135632857Y-104118571D02*
X136261428Y-104118571D01*
X136375714Y-104061428D01*
X136432857Y-103947142D01*
X136432857Y-103775714D01*
X136375714Y-103661428D01*
X136318571Y-103604285D01*
X135632857Y-103204285D02*
X135632857Y-102747142D01*
X135232857Y-103032857D02*
X136261428Y-103032857D01*
X136375714Y-102975714D01*
X136432857Y-102861428D01*
X136432857Y-102747142D01*
D13*
X151735000Y-102550000D02*
X151735000Y-100090000D01*
X151735000Y-100090000D02*
X150265000Y-100090000D01*
X150265000Y-100090000D02*
X150265000Y-102550000D01*
X148490000Y-101578733D02*
X148490000Y-101921267D01*
X149510000Y-101578733D02*
X149510000Y-101921267D01*
X154240000Y-118578733D02*
X154240000Y-118921267D01*
X155260000Y-118578733D02*
X155260000Y-118921267D01*
X159490000Y-118578733D02*
X159490000Y-118921267D01*
X160510000Y-118578733D02*
X160510000Y-118921267D01*
X157490000Y-118578733D02*
X157490000Y-118921267D01*
X158510000Y-118578733D02*
X158510000Y-118921267D01*
X143990000Y-118578733D02*
X143990000Y-118921267D01*
X145010000Y-118578733D02*
X145010000Y-118921267D01*
X141990000Y-118578733D02*
X141990000Y-118921267D01*
X143010000Y-118578733D02*
X143010000Y-118921267D01*
X141030000Y-118921267D02*
X141030000Y-118578733D01*
X140010000Y-118921267D02*
X140010000Y-118578733D01*
X145990000Y-118578733D02*
X145990000Y-118921267D01*
X147010000Y-118578733D02*
X147010000Y-118921267D01*
X156990000Y-107828733D02*
X156990000Y-108171267D01*
X158010000Y-107828733D02*
X158010000Y-108171267D01*
X147510000Y-101921267D02*
X147510000Y-101578733D01*
X146490000Y-101921267D02*
X146490000Y-101578733D01*
X153510000Y-101921267D02*
X153510000Y-101578733D01*
X152490000Y-101921267D02*
X152490000Y-101578733D01*
X154240000Y-114828733D02*
X154240000Y-115171267D01*
X155260000Y-114828733D02*
X155260000Y-115171267D01*
X157490000Y-114828733D02*
X157490000Y-115171267D01*
X158510000Y-114828733D02*
X158510000Y-115171267D01*
X160510000Y-115171267D02*
X160510000Y-114828733D01*
X159490000Y-115171267D02*
X159490000Y-114828733D01*
X141328733Y-116260000D02*
X141671267Y-116260000D01*
X141328733Y-115240000D02*
X141671267Y-115240000D01*
X145328733Y-116260000D02*
X145671267Y-116260000D01*
X145328733Y-115240000D02*
X145671267Y-115240000D01*
X139450000Y-98800000D02*
X139450000Y-111400000D01*
X144550000Y-98800000D02*
X139450000Y-98800000D01*
X144550000Y-111400000D02*
X144550000Y-98800000D01*
D14*
G36*
X160504812Y-108115979D02*
G01*
X160605546Y-108192410D01*
X160679612Y-108260582D01*
X160828105Y-108384692D01*
X160909676Y-108405109D01*
X160921865Y-108387653D01*
X160960684Y-108401757D01*
X161039359Y-108496472D01*
X161137882Y-108640400D01*
X161236245Y-108802147D01*
X161314442Y-108950317D01*
X161352466Y-109053512D01*
X161353500Y-109064985D01*
X161313820Y-109058556D01*
X161214002Y-108981255D01*
X161163662Y-108934885D01*
X161036809Y-108832135D01*
X160946026Y-108792255D01*
X160929206Y-108797627D01*
X160879427Y-108770012D01*
X160789342Y-108664280D01*
X160680950Y-108512980D01*
X160576250Y-108348662D01*
X160497240Y-108203876D01*
X160465934Y-108112169D01*
X160504812Y-108115979D01*
G37*
X160504812Y-108115979D02*
X160605546Y-108192410D01*
X160679612Y-108260582D01*
X160828105Y-108384692D01*
X160909676Y-108405109D01*
X160921865Y-108387653D01*
X160960684Y-108401757D01*
X161039359Y-108496472D01*
X161137882Y-108640400D01*
X161236245Y-108802147D01*
X161314442Y-108950317D01*
X161352466Y-109053512D01*
X161353500Y-109064985D01*
X161313820Y-109058556D01*
X161214002Y-108981255D01*
X161163662Y-108934885D01*
X161036809Y-108832135D01*
X160946026Y-108792255D01*
X160929206Y-108797627D01*
X160879427Y-108770012D01*
X160789342Y-108664280D01*
X160680950Y-108512980D01*
X160576250Y-108348662D01*
X160497240Y-108203876D01*
X160465934Y-108112169D01*
X160504812Y-108115979D01*
G36*
X160628002Y-110117461D02*
G01*
X160740484Y-109930143D01*
X160845778Y-109792906D01*
X160907252Y-109743028D01*
X161016957Y-109679054D01*
X161158681Y-109566364D01*
X161178875Y-109548062D01*
X161297216Y-109451627D01*
X161343115Y-109449645D01*
X161316393Y-109544906D01*
X161216867Y-109740202D01*
X161159872Y-109841309D01*
X161048534Y-110012145D01*
X160953253Y-110117398D01*
X160901308Y-110135997D01*
X160818434Y-110149863D01*
X160689987Y-110233620D01*
X160640465Y-110276689D01*
X160445752Y-110458250D01*
X160628002Y-110117461D01*
G37*
X160628002Y-110117461D02*
X160740484Y-109930143D01*
X160845778Y-109792906D01*
X160907252Y-109743028D01*
X161016957Y-109679054D01*
X161158681Y-109566364D01*
X161178875Y-109548062D01*
X161297216Y-109451627D01*
X161343115Y-109449645D01*
X161316393Y-109544906D01*
X161216867Y-109740202D01*
X161159872Y-109841309D01*
X161048534Y-110012145D01*
X160953253Y-110117398D01*
X160901308Y-110135997D01*
X160818434Y-110149863D01*
X160689987Y-110233620D01*
X160640465Y-110276689D01*
X160445752Y-110458250D01*
X160628002Y-110117461D01*
G36*
X162529818Y-109091753D02*
G01*
X162644325Y-108963372D01*
X162730467Y-108911998D01*
X162914860Y-108870996D01*
X163077096Y-108928163D01*
X163198867Y-109054723D01*
X163261867Y-109221903D01*
X163247789Y-109400929D01*
X163142374Y-109559409D01*
X162960547Y-109653383D01*
X162770893Y-109645282D01*
X162609214Y-109550703D01*
X162511311Y-109385238D01*
X162497472Y-109278500D01*
X162529818Y-109091753D01*
G37*
X162529818Y-109091753D02*
X162644325Y-108963372D01*
X162730467Y-108911998D01*
X162914860Y-108870996D01*
X163077096Y-108928163D01*
X163198867Y-109054723D01*
X163261867Y-109221903D01*
X163247789Y-109400929D01*
X163142374Y-109559409D01*
X162960547Y-109653383D01*
X162770893Y-109645282D01*
X162609214Y-109550703D01*
X162511311Y-109385238D01*
X162497472Y-109278500D01*
X162529818Y-109091753D01*
G36*
X161436447Y-109602034D02*
G01*
X161550933Y-109554221D01*
X161773977Y-109538210D01*
X161865779Y-109537500D01*
X162098501Y-109539576D01*
X162229031Y-109551622D01*
X162282172Y-109582369D01*
X162282724Y-109640545D01*
X162271714Y-109680375D01*
X162200279Y-109835577D01*
X162143568Y-109913099D01*
X162097097Y-109992474D01*
X162125319Y-110089612D01*
X162186255Y-110182690D01*
X162314243Y-110362433D01*
X162817511Y-109979327D01*
X163123070Y-109725609D01*
X163312834Y-109506868D01*
X163386754Y-109306733D01*
X163344776Y-109108838D01*
X163186850Y-108896812D01*
X162912926Y-108654288D01*
X162813118Y-108576928D01*
X162590562Y-108409956D01*
X162444640Y-108310799D01*
X162351480Y-108269629D01*
X162287214Y-108276621D01*
X162227971Y-108321949D01*
X162217667Y-108331808D01*
X162146522Y-108412546D01*
X162130898Y-108494163D01*
X162168831Y-108624003D01*
X162202038Y-108708745D01*
X162262011Y-108873704D01*
X162269334Y-108959143D01*
X162225077Y-109000624D01*
X162210995Y-109006443D01*
X162130474Y-109093124D01*
X162115500Y-109163294D01*
X162073921Y-109262459D01*
X162020250Y-109283500D01*
X161942678Y-109230561D01*
X161925000Y-109156500D01*
X161898407Y-109053315D01*
X161861500Y-109029500D01*
X161809907Y-109082685D01*
X161798000Y-109156500D01*
X161758295Y-109259929D01*
X161702750Y-109283500D01*
X161625178Y-109230561D01*
X161607500Y-109156500D01*
X161564894Y-109050846D01*
X161505366Y-109029500D01*
X161437752Y-108984989D01*
X161441888Y-108869972D01*
X161509088Y-108712223D01*
X161630666Y-108539516D01*
X161673435Y-108492086D01*
X161824822Y-108328143D01*
X162004094Y-108127138D01*
X162093121Y-108024777D01*
X162430580Y-107719772D01*
X162812713Y-107520857D01*
X163221202Y-107423847D01*
X163637728Y-107424555D01*
X164043975Y-107518795D01*
X164421624Y-107702379D01*
X164752357Y-107971122D01*
X165017858Y-108320837D01*
X165195875Y-108733917D01*
X165279995Y-109212818D01*
X165240635Y-109677288D01*
X165197172Y-109840917D01*
X165004308Y-110251295D01*
X164703384Y-110614305D01*
X164309904Y-110911924D01*
X164242750Y-110950424D01*
X164079573Y-111025062D01*
X163898742Y-111068605D01*
X163659374Y-111088338D01*
X163449000Y-111091858D01*
X163209923Y-111074427D01*
X163209923Y-110798965D01*
X163602634Y-110794046D01*
X163988645Y-110701271D01*
X164334094Y-110529082D01*
X164605116Y-110285920D01*
X164621981Y-110264424D01*
X164838873Y-109883842D01*
X164947196Y-109468775D01*
X164945019Y-109045185D01*
X164830410Y-108639036D01*
X164754019Y-108489601D01*
X164496477Y-108164056D01*
X164168254Y-107922953D01*
X163793923Y-107774047D01*
X163398056Y-107725091D01*
X163005226Y-107783841D01*
X162789680Y-107869706D01*
X162606611Y-107961995D01*
X162884930Y-108120924D01*
X163270147Y-108332455D01*
X163589877Y-108485764D01*
X163881923Y-108596522D01*
X164184093Y-108680395D01*
X164295258Y-108705443D01*
X164548257Y-108762516D01*
X164704462Y-108810425D01*
X164791654Y-108864698D01*
X164837617Y-108940863D01*
X164861855Y-109022122D01*
X164884139Y-109222864D01*
X164870215Y-109451725D01*
X164863463Y-109490586D01*
X164811615Y-109752761D01*
X164373820Y-109833561D01*
X164010485Y-109929249D01*
X163592791Y-110085359D01*
X163165781Y-110283271D01*
X162820747Y-110475586D01*
X162605244Y-110607669D01*
X162844377Y-110707585D01*
X163209923Y-110798965D01*
X163209923Y-111074427D01*
X162993722Y-111058663D01*
X162622198Y-110949544D01*
X162309394Y-110754109D01*
X162080568Y-110523840D01*
X161917405Y-110330661D01*
X161756581Y-110141627D01*
X161701413Y-110077250D01*
X161515979Y-109849452D01*
X161426226Y-109695745D01*
X161436447Y-109602034D01*
G37*
X161436447Y-109602034D02*
X161550933Y-109554221D01*
X161773977Y-109538210D01*
X161865779Y-109537500D01*
X162098501Y-109539576D01*
X162229031Y-109551622D01*
X162282172Y-109582369D01*
X162282724Y-109640545D01*
X162271714Y-109680375D01*
X162200279Y-109835577D01*
X162143568Y-109913099D01*
X162097097Y-109992474D01*
X162125319Y-110089612D01*
X162186255Y-110182690D01*
X162314243Y-110362433D01*
X162817511Y-109979327D01*
X163123070Y-109725609D01*
X163312834Y-109506868D01*
X163386754Y-109306733D01*
X163344776Y-109108838D01*
X163186850Y-108896812D01*
X162912926Y-108654288D01*
X162813118Y-108576928D01*
X162590562Y-108409956D01*
X162444640Y-108310799D01*
X162351480Y-108269629D01*
X162287214Y-108276621D01*
X162227971Y-108321949D01*
X162217667Y-108331808D01*
X162146522Y-108412546D01*
X162130898Y-108494163D01*
X162168831Y-108624003D01*
X162202038Y-108708745D01*
X162262011Y-108873704D01*
X162269334Y-108959143D01*
X162225077Y-109000624D01*
X162210995Y-109006443D01*
X162130474Y-109093124D01*
X162115500Y-109163294D01*
X162073921Y-109262459D01*
X162020250Y-109283500D01*
X161942678Y-109230561D01*
X161925000Y-109156500D01*
X161898407Y-109053315D01*
X161861500Y-109029500D01*
X161809907Y-109082685D01*
X161798000Y-109156500D01*
X161758295Y-109259929D01*
X161702750Y-109283500D01*
X161625178Y-109230561D01*
X161607500Y-109156500D01*
X161564894Y-109050846D01*
X161505366Y-109029500D01*
X161437752Y-108984989D01*
X161441888Y-108869972D01*
X161509088Y-108712223D01*
X161630666Y-108539516D01*
X161673435Y-108492086D01*
X161824822Y-108328143D01*
X162004094Y-108127138D01*
X162093121Y-108024777D01*
X162430580Y-107719772D01*
X162812713Y-107520857D01*
X163221202Y-107423847D01*
X163637728Y-107424555D01*
X164043975Y-107518795D01*
X164421624Y-107702379D01*
X164752357Y-107971122D01*
X165017858Y-108320837D01*
X165195875Y-108733917D01*
X165279995Y-109212818D01*
X165240635Y-109677288D01*
X165197172Y-109840917D01*
X165004308Y-110251295D01*
X164703384Y-110614305D01*
X164309904Y-110911924D01*
X164242750Y-110950424D01*
X164079573Y-111025062D01*
X163898742Y-111068605D01*
X163659374Y-111088338D01*
X163449000Y-111091858D01*
X163209923Y-111074427D01*
X163209923Y-110798965D01*
X163602634Y-110794046D01*
X163988645Y-110701271D01*
X164334094Y-110529082D01*
X164605116Y-110285920D01*
X164621981Y-110264424D01*
X164838873Y-109883842D01*
X164947196Y-109468775D01*
X164945019Y-109045185D01*
X164830410Y-108639036D01*
X164754019Y-108489601D01*
X164496477Y-108164056D01*
X164168254Y-107922953D01*
X163793923Y-107774047D01*
X163398056Y-107725091D01*
X163005226Y-107783841D01*
X162789680Y-107869706D01*
X162606611Y-107961995D01*
X162884930Y-108120924D01*
X163270147Y-108332455D01*
X163589877Y-108485764D01*
X163881923Y-108596522D01*
X164184093Y-108680395D01*
X164295258Y-108705443D01*
X164548257Y-108762516D01*
X164704462Y-108810425D01*
X164791654Y-108864698D01*
X164837617Y-108940863D01*
X164861855Y-109022122D01*
X164884139Y-109222864D01*
X164870215Y-109451725D01*
X164863463Y-109490586D01*
X164811615Y-109752761D01*
X164373820Y-109833561D01*
X164010485Y-109929249D01*
X163592791Y-110085359D01*
X163165781Y-110283271D01*
X162820747Y-110475586D01*
X162605244Y-110607669D01*
X162844377Y-110707585D01*
X163209923Y-110798965D01*
X163209923Y-111074427D01*
X162993722Y-111058663D01*
X162622198Y-110949544D01*
X162309394Y-110754109D01*
X162080568Y-110523840D01*
X161917405Y-110330661D01*
X161756581Y-110141627D01*
X161701413Y-110077250D01*
X161515979Y-109849452D01*
X161426226Y-109695745D01*
X161436447Y-109602034D01*
G36*
X165870658Y-105271406D02*
G01*
X165919720Y-105231274D01*
X166043813Y-105236411D01*
X166131875Y-105249040D01*
X166401750Y-105289743D01*
X166179500Y-105097580D01*
X166037390Y-104982560D01*
X165933938Y-104912974D01*
X165909625Y-104903709D01*
X165876504Y-104847063D01*
X165862024Y-104712463D01*
X165862000Y-104706104D01*
X165862000Y-104510207D01*
X166156898Y-104769787D01*
X166341371Y-104914342D01*
X166473231Y-104980837D01*
X166522023Y-104977044D01*
X166607057Y-104911092D01*
X166755263Y-104793944D01*
X166893875Y-104683461D01*
X167195500Y-104442202D01*
X167195500Y-104635172D01*
X167166585Y-104788489D01*
X167059291Y-104907912D01*
X166980388Y-104961089D01*
X166817088Y-105074857D01*
X166692645Y-105183378D01*
X166678763Y-105199017D01*
X166638698Y-105260091D01*
X166668415Y-105283684D01*
X166790039Y-105276375D01*
X166893875Y-105262965D01*
X167075072Y-105242573D01*
X167163769Y-105254755D01*
X167192902Y-105312230D01*
X167195500Y-105379465D01*
X167195500Y-105537000D01*
X165862000Y-105537000D01*
X165862000Y-105372669D01*
X165870658Y-105271406D01*
G37*
X165870658Y-105271406D02*
X165919720Y-105231274D01*
X166043813Y-105236411D01*
X166131875Y-105249040D01*
X166401750Y-105289743D01*
X166179500Y-105097580D01*
X166037390Y-104982560D01*
X165933938Y-104912974D01*
X165909625Y-104903709D01*
X165876504Y-104847063D01*
X165862024Y-104712463D01*
X165862000Y-104706104D01*
X165862000Y-104510207D01*
X166156898Y-104769787D01*
X166341371Y-104914342D01*
X166473231Y-104980837D01*
X166522023Y-104977044D01*
X166607057Y-104911092D01*
X166755263Y-104793944D01*
X166893875Y-104683461D01*
X167195500Y-104442202D01*
X167195500Y-104635172D01*
X167166585Y-104788489D01*
X167059291Y-104907912D01*
X166980388Y-104961089D01*
X166817088Y-105074857D01*
X166692645Y-105183378D01*
X166678763Y-105199017D01*
X166638698Y-105260091D01*
X166668415Y-105283684D01*
X166790039Y-105276375D01*
X166893875Y-105262965D01*
X167075072Y-105242573D01*
X167163769Y-105254755D01*
X167192902Y-105312230D01*
X167195500Y-105379465D01*
X167195500Y-105537000D01*
X165862000Y-105537000D01*
X165862000Y-105372669D01*
X165870658Y-105271406D01*
G36*
X165885656Y-105829311D02*
G01*
X165956785Y-105703655D01*
X166060503Y-105664000D01*
X166154778Y-105687267D01*
X166147046Y-105773526D01*
X166146377Y-105775125D01*
X166082206Y-106037580D01*
X166122299Y-106247894D01*
X166258211Y-106390671D01*
X166481495Y-106450514D01*
X166517410Y-106451400D01*
X166761644Y-106401820D01*
X166928107Y-106269018D01*
X167001833Y-106076906D01*
X166967857Y-105849394D01*
X166936555Y-105781761D01*
X166901041Y-105688578D01*
X166957873Y-105668316D01*
X167015930Y-105674811D01*
X167104046Y-105702353D01*
X167152134Y-105775121D01*
X167175955Y-105926516D01*
X167182928Y-106028708D01*
X167185098Y-106241998D01*
X167151319Y-106380824D01*
X167067372Y-106495850D01*
X167045522Y-106518250D01*
X166800243Y-106688088D01*
X166534765Y-106734489D01*
X166260361Y-106657058D01*
X166096928Y-106551629D01*
X165972413Y-106403180D01*
X165894805Y-106211616D01*
X165865441Y-106009479D01*
X165885656Y-105829311D01*
G37*
X165885656Y-105829311D02*
X165956785Y-105703655D01*
X166060503Y-105664000D01*
X166154778Y-105687267D01*
X166147046Y-105773526D01*
X166146377Y-105775125D01*
X166082206Y-106037580D01*
X166122299Y-106247894D01*
X166258211Y-106390671D01*
X166481495Y-106450514D01*
X166517410Y-106451400D01*
X166761644Y-106401820D01*
X166928107Y-106269018D01*
X167001833Y-106076906D01*
X166967857Y-105849394D01*
X166936555Y-105781761D01*
X166901041Y-105688578D01*
X166957873Y-105668316D01*
X167015930Y-105674811D01*
X167104046Y-105702353D01*
X167152134Y-105775121D01*
X167175955Y-105926516D01*
X167182928Y-106028708D01*
X167185098Y-106241998D01*
X167151319Y-106380824D01*
X167067372Y-106495850D01*
X167045522Y-106518250D01*
X166800243Y-106688088D01*
X166534765Y-106734489D01*
X166260361Y-106657058D01*
X166096928Y-106551629D01*
X165972413Y-106403180D01*
X165894805Y-106211616D01*
X165865441Y-106009479D01*
X165885656Y-105829311D01*
G36*
X165867540Y-106981528D02*
G01*
X165899230Y-106940301D01*
X165979670Y-106916601D01*
X166131462Y-106905586D01*
X166377207Y-106902411D01*
X166528750Y-106902250D01*
X166825539Y-106903438D01*
X167017932Y-106910228D01*
X167128531Y-106927466D01*
X167179936Y-106959992D01*
X167194749Y-107012652D01*
X167195500Y-107045125D01*
X167189959Y-107108723D01*
X167158269Y-107149950D01*
X167077829Y-107173650D01*
X166926037Y-107184665D01*
X166680292Y-107187840D01*
X166528750Y-107188000D01*
X166231960Y-107186813D01*
X166039567Y-107180023D01*
X165928968Y-107162785D01*
X165877563Y-107130259D01*
X165862750Y-107077599D01*
X165862000Y-107045125D01*
X165867540Y-106981528D01*
G37*
X165867540Y-106981528D02*
X165899230Y-106940301D01*
X165979670Y-106916601D01*
X166131462Y-106905586D01*
X166377207Y-106902411D01*
X166528750Y-106902250D01*
X166825539Y-106903438D01*
X167017932Y-106910228D01*
X167128531Y-106927466D01*
X167179936Y-106959992D01*
X167194749Y-107012652D01*
X167195500Y-107045125D01*
X167189959Y-107108723D01*
X167158269Y-107149950D01*
X167077829Y-107173650D01*
X166926037Y-107184665D01*
X166680292Y-107187840D01*
X166528750Y-107188000D01*
X166231960Y-107186813D01*
X166039567Y-107180023D01*
X165928968Y-107162785D01*
X165877563Y-107130259D01*
X165862750Y-107077599D01*
X165862000Y-107045125D01*
X165867540Y-106981528D01*
G36*
X166306500Y-108017929D02*
G01*
X166505835Y-107865785D01*
X166658921Y-107741482D01*
X166742356Y-107664356D01*
X166751000Y-107650738D01*
X166693142Y-107637560D01*
X166540826Y-107637246D01*
X166325933Y-107649752D01*
X166306500Y-107651346D01*
X166074562Y-107668485D01*
X165941584Y-107666989D01*
X165880128Y-107640567D01*
X165862753Y-107582926D01*
X165862000Y-107549431D01*
X165868103Y-107487459D01*
X165901469Y-107447283D01*
X165984678Y-107424189D01*
X166140314Y-107413464D01*
X166390957Y-107410392D01*
X166528750Y-107410250D01*
X166825908Y-107411709D01*
X167018594Y-107419053D01*
X167129328Y-107436738D01*
X167180628Y-107469216D01*
X167195014Y-107520942D01*
X167195500Y-107542118D01*
X167138495Y-107665545D01*
X166966297Y-107832807D01*
X166807115Y-107954868D01*
X166418731Y-108235750D01*
X166807115Y-108254656D01*
X167023639Y-108270403D01*
X167141483Y-108297787D01*
X167188959Y-108347224D01*
X167195500Y-108397531D01*
X167185179Y-108456643D01*
X167138102Y-108493310D01*
X167030094Y-108512810D01*
X166836983Y-108520420D01*
X166627747Y-108521500D01*
X166308493Y-108532417D01*
X166095206Y-108563849D01*
X165993820Y-108613822D01*
X166010272Y-108680361D01*
X166053470Y-108712600D01*
X166104591Y-108807412D01*
X166099300Y-108896001D01*
X166089458Y-108959453D01*
X166115699Y-108998767D01*
X166200926Y-109019706D01*
X166368039Y-109028029D01*
X166629944Y-109029500D01*
X166898854Y-109030986D01*
X167065315Y-109039806D01*
X167153877Y-109062506D01*
X167189087Y-109105629D01*
X167195495Y-109175721D01*
X167195500Y-109180278D01*
X167191138Y-109251129D01*
X167161867Y-109293732D01*
X167083406Y-109313056D01*
X166931472Y-109314074D01*
X166681786Y-109301754D01*
X166619421Y-109298209D01*
X166043342Y-109265363D01*
X166085930Y-109492373D01*
X166106924Y-109640014D01*
X166083714Y-109694543D01*
X166001994Y-109686278D01*
X165995258Y-109684536D01*
X165935101Y-109660113D01*
X165896379Y-109608676D01*
X165874413Y-109506151D01*
X165864522Y-109328462D01*
X165862026Y-109051535D01*
X165862000Y-108999075D01*
X165862000Y-108348463D01*
X166306500Y-108017929D01*
G37*
X166306500Y-108017929D02*
X166505835Y-107865785D01*
X166658921Y-107741482D01*
X166742356Y-107664356D01*
X166751000Y-107650738D01*
X166693142Y-107637560D01*
X166540826Y-107637246D01*
X166325933Y-107649752D01*
X166306500Y-107651346D01*
X166074562Y-107668485D01*
X165941584Y-107666989D01*
X165880128Y-107640567D01*
X165862753Y-107582926D01*
X165862000Y-107549431D01*
X165868103Y-107487459D01*
X165901469Y-107447283D01*
X165984678Y-107424189D01*
X166140314Y-107413464D01*
X166390957Y-107410392D01*
X166528750Y-107410250D01*
X166825908Y-107411709D01*
X167018594Y-107419053D01*
X167129328Y-107436738D01*
X167180628Y-107469216D01*
X167195014Y-107520942D01*
X167195500Y-107542118D01*
X167138495Y-107665545D01*
X166966297Y-107832807D01*
X166807115Y-107954868D01*
X166418731Y-108235750D01*
X166807115Y-108254656D01*
X167023639Y-108270403D01*
X167141483Y-108297787D01*
X167188959Y-108347224D01*
X167195500Y-108397531D01*
X167185179Y-108456643D01*
X167138102Y-108493310D01*
X167030094Y-108512810D01*
X166836983Y-108520420D01*
X166627747Y-108521500D01*
X166308493Y-108532417D01*
X166095206Y-108563849D01*
X165993820Y-108613822D01*
X166010272Y-108680361D01*
X166053470Y-108712600D01*
X166104591Y-108807412D01*
X166099300Y-108896001D01*
X166089458Y-108959453D01*
X166115699Y-108998767D01*
X166200926Y-109019706D01*
X166368039Y-109028029D01*
X166629944Y-109029500D01*
X166898854Y-109030986D01*
X167065315Y-109039806D01*
X167153877Y-109062506D01*
X167189087Y-109105629D01*
X167195495Y-109175721D01*
X167195500Y-109180278D01*
X167191138Y-109251129D01*
X167161867Y-109293732D01*
X167083406Y-109313056D01*
X166931472Y-109314074D01*
X166681786Y-109301754D01*
X166619421Y-109298209D01*
X166043342Y-109265363D01*
X166085930Y-109492373D01*
X166106924Y-109640014D01*
X166083714Y-109694543D01*
X166001994Y-109686278D01*
X165995258Y-109684536D01*
X165935101Y-109660113D01*
X165896379Y-109608676D01*
X165874413Y-109506151D01*
X165864522Y-109328462D01*
X165862026Y-109051535D01*
X165862000Y-108999075D01*
X165862000Y-108348463D01*
X166306500Y-108017929D01*
G36*
X165954131Y-110341452D02*
G01*
X166113140Y-110259022D01*
X166337192Y-110147622D01*
X166558692Y-110040307D01*
X167195500Y-109735165D01*
X167195500Y-109914145D01*
X167173007Y-110046971D01*
X167079950Y-110112367D01*
X167001118Y-110132002D01*
X166874022Y-110169458D01*
X166824643Y-110241008D01*
X166825127Y-110390564D01*
X166826493Y-110407306D01*
X166857228Y-110573572D01*
X166930291Y-110655150D01*
X167005000Y-110680504D01*
X167135275Y-110753056D01*
X167184510Y-110896307D01*
X167183725Y-111015182D01*
X167152760Y-111049212D01*
X167077108Y-111012393D01*
X166912866Y-110932901D01*
X166685841Y-110823214D01*
X166504749Y-110735815D01*
X166504749Y-110485854D01*
X166557735Y-110434931D01*
X166560500Y-110400695D01*
X166513959Y-110338527D01*
X166428132Y-110346005D01*
X166343053Y-110383634D01*
X166375513Y-110431111D01*
X166380507Y-110434338D01*
X166504749Y-110485854D01*
X166504749Y-110735815D01*
X166474242Y-110721091D01*
X166225871Y-110596648D01*
X166031069Y-110490130D01*
X165911437Y-110413958D01*
X165885060Y-110382273D01*
X165954131Y-110341452D01*
G37*
X165954131Y-110341452D02*
X166113140Y-110259022D01*
X166337192Y-110147622D01*
X166558692Y-110040307D01*
X167195500Y-109735165D01*
X167195500Y-109914145D01*
X167173007Y-110046971D01*
X167079950Y-110112367D01*
X167001118Y-110132002D01*
X166874022Y-110169458D01*
X166824643Y-110241008D01*
X166825127Y-110390564D01*
X166826493Y-110407306D01*
X166857228Y-110573572D01*
X166930291Y-110655150D01*
X167005000Y-110680504D01*
X167135275Y-110753056D01*
X167184510Y-110896307D01*
X167183725Y-111015182D01*
X167152760Y-111049212D01*
X167077108Y-111012393D01*
X166912866Y-110932901D01*
X166685841Y-110823214D01*
X166504749Y-110735815D01*
X166504749Y-110485854D01*
X166557735Y-110434931D01*
X166560500Y-110400695D01*
X166513959Y-110338527D01*
X166428132Y-110346005D01*
X166343053Y-110383634D01*
X166375513Y-110431111D01*
X166380507Y-110434338D01*
X166504749Y-110485854D01*
X166504749Y-110735815D01*
X166474242Y-110721091D01*
X166225871Y-110596648D01*
X166031069Y-110490130D01*
X165911437Y-110413958D01*
X165885060Y-110382273D01*
X165954131Y-110341452D01*
G36*
X165866458Y-111272282D02*
G01*
X165894917Y-111228744D01*
X165970000Y-111203715D01*
X166114331Y-111192071D01*
X166350534Y-111188692D01*
X166528750Y-111188500D01*
X166825433Y-111189510D01*
X167017741Y-111195953D01*
X167128298Y-111212951D01*
X167179727Y-111245627D01*
X167194653Y-111299103D01*
X167195500Y-111339450D01*
X167185299Y-111430942D01*
X167132216Y-111469081D01*
X167002524Y-111467881D01*
X166909750Y-111458192D01*
X166624000Y-111425984D01*
X166624000Y-111967017D01*
X166909750Y-111934809D01*
X167085121Y-111920430D01*
X167168645Y-111939058D01*
X167194046Y-112004705D01*
X167195500Y-112053551D01*
X167191041Y-112120719D01*
X167162582Y-112164257D01*
X167087499Y-112189286D01*
X166943168Y-112200930D01*
X166706965Y-112204309D01*
X166528750Y-112204500D01*
X166232066Y-112203491D01*
X166039758Y-112197048D01*
X165929201Y-112180050D01*
X165877772Y-112147374D01*
X165862846Y-112093898D01*
X165862000Y-112053551D01*
X165872200Y-111962059D01*
X165925283Y-111923920D01*
X166054975Y-111925120D01*
X166147750Y-111934809D01*
X166433500Y-111967017D01*
X166433500Y-111425984D01*
X166147750Y-111458192D01*
X165972378Y-111472571D01*
X165888854Y-111453943D01*
X165863453Y-111388296D01*
X165862000Y-111339450D01*
X165866458Y-111272282D01*
G37*
X165866458Y-111272282D02*
X165894917Y-111228744D01*
X165970000Y-111203715D01*
X166114331Y-111192071D01*
X166350534Y-111188692D01*
X166528750Y-111188500D01*
X166825433Y-111189510D01*
X167017741Y-111195953D01*
X167128298Y-111212951D01*
X167179727Y-111245627D01*
X167194653Y-111299103D01*
X167195500Y-111339450D01*
X167185299Y-111430942D01*
X167132216Y-111469081D01*
X167002524Y-111467881D01*
X166909750Y-111458192D01*
X166624000Y-111425984D01*
X166624000Y-111967017D01*
X166909750Y-111934809D01*
X167085121Y-111920430D01*
X167168645Y-111939058D01*
X167194046Y-112004705D01*
X167195500Y-112053551D01*
X167191041Y-112120719D01*
X167162582Y-112164257D01*
X167087499Y-112189286D01*
X166943168Y-112200930D01*
X166706965Y-112204309D01*
X166528750Y-112204500D01*
X166232066Y-112203491D01*
X166039758Y-112197048D01*
X165929201Y-112180050D01*
X165877772Y-112147374D01*
X165862846Y-112093898D01*
X165862000Y-112053551D01*
X165872200Y-111962059D01*
X165925283Y-111923920D01*
X166054975Y-111925120D01*
X166147750Y-111934809D01*
X166433500Y-111967017D01*
X166433500Y-111425984D01*
X166147750Y-111458192D01*
X165972378Y-111472571D01*
X165888854Y-111453943D01*
X165863453Y-111388296D01*
X165862000Y-111339450D01*
X165866458Y-111272282D01*
G36*
X165880986Y-112359967D02*
G01*
X165962220Y-112347412D01*
X166004875Y-112358411D01*
X166131354Y-112393829D01*
X166341273Y-112451098D01*
X166595312Y-112519515D01*
X166671625Y-112539914D01*
X166973069Y-112632672D01*
X167149439Y-112718898D01*
X167202245Y-112802272D01*
X167133001Y-112886477D01*
X166943220Y-112975194D01*
X166862125Y-113003532D01*
X166528750Y-113114270D01*
X166846250Y-113220455D01*
X167075617Y-113316008D01*
X167178071Y-113407310D01*
X167153590Y-113495109D01*
X167002154Y-113580155D01*
X166834460Y-113634639D01*
X166573171Y-113709523D01*
X166310099Y-113788487D01*
X166184063Y-113828100D01*
X166013617Y-113881910D01*
X165902631Y-113914518D01*
X165882438Y-113919000D01*
X165867124Y-113864426D01*
X165862000Y-113758258D01*
X165870694Y-113659541D01*
X165914640Y-113596950D01*
X166020629Y-113555896D01*
X166215454Y-113521792D01*
X166323604Y-113506916D01*
X166491535Y-113473461D01*
X166585060Y-113432961D01*
X166592305Y-113411090D01*
X166516966Y-113364699D01*
X166357402Y-113301852D01*
X166201611Y-113252180D01*
X166021931Y-113190187D01*
X165914832Y-113133690D01*
X165901159Y-113100487D01*
X165987822Y-113056589D01*
X166156456Y-112990979D01*
X166333701Y-112930097D01*
X166710152Y-112807750D01*
X166286076Y-112714280D01*
X166059966Y-112659798D01*
X165931957Y-112611181D01*
X165874989Y-112552760D01*
X165862000Y-112468868D01*
X165862000Y-112468749D01*
X165880986Y-112359967D01*
G37*
X165880986Y-112359967D02*
X165962220Y-112347412D01*
X166004875Y-112358411D01*
X166131354Y-112393829D01*
X166341273Y-112451098D01*
X166595312Y-112519515D01*
X166671625Y-112539914D01*
X166973069Y-112632672D01*
X167149439Y-112718898D01*
X167202245Y-112802272D01*
X167133001Y-112886477D01*
X166943220Y-112975194D01*
X166862125Y-113003532D01*
X166528750Y-113114270D01*
X166846250Y-113220455D01*
X167075617Y-113316008D01*
X167178071Y-113407310D01*
X167153590Y-113495109D01*
X167002154Y-113580155D01*
X166834460Y-113634639D01*
X166573171Y-113709523D01*
X166310099Y-113788487D01*
X166184063Y-113828100D01*
X166013617Y-113881910D01*
X165902631Y-113914518D01*
X165882438Y-113919000D01*
X165867124Y-113864426D01*
X165862000Y-113758258D01*
X165870694Y-113659541D01*
X165914640Y-113596950D01*
X166020629Y-113555896D01*
X166215454Y-113521792D01*
X166323604Y-113506916D01*
X166491535Y-113473461D01*
X166585060Y-113432961D01*
X166592305Y-113411090D01*
X166516966Y-113364699D01*
X166357402Y-113301852D01*
X166201611Y-113252180D01*
X166021931Y-113190187D01*
X165914832Y-113133690D01*
X165901159Y-113100487D01*
X165987822Y-113056589D01*
X166156456Y-112990979D01*
X166333701Y-112930097D01*
X166710152Y-112807750D01*
X166286076Y-112714280D01*
X166059966Y-112659798D01*
X165931957Y-112611181D01*
X165874989Y-112552760D01*
X165862000Y-112468868D01*
X165862000Y-112468749D01*
X165880986Y-112359967D01*
D15*
X145950000Y-110075000D02*
X145950000Y-111450000D01*
X156075000Y-110075000D02*
X156075000Y-105925000D01*
X145925000Y-110075000D02*
X145925000Y-105925000D01*
X156075000Y-110075000D02*
X155970000Y-110075000D01*
X156075000Y-105925000D02*
X155970000Y-105925000D01*
X145925000Y-105925000D02*
X146030000Y-105925000D01*
X145925000Y-110075000D02*
X145950000Y-110075000D01*
X151452380Y-99488095D02*
X150452380Y-99488095D01*
X150452380Y-99250000D01*
X150500000Y-99107142D01*
X150595238Y-99011904D01*
X150690476Y-98964285D01*
X150880952Y-98916666D01*
X151023809Y-98916666D01*
X151214285Y-98964285D01*
X151309523Y-99011904D01*
X151404761Y-99107142D01*
X151452380Y-99250000D01*
X151452380Y-99488095D01*
X151452380Y-97964285D02*
X151452380Y-98535714D01*
X151452380Y-98250000D02*
X150452380Y-98250000D01*
X150595238Y-98345238D01*
X150690476Y-98440476D01*
X150738095Y-98535714D01*
X149452380Y-98916666D02*
X148976190Y-99250000D01*
X149452380Y-99488095D02*
X148452380Y-99488095D01*
X148452380Y-99107142D01*
X148500000Y-99011904D01*
X148547619Y-98964285D01*
X148642857Y-98916666D01*
X148785714Y-98916666D01*
X148880952Y-98964285D01*
X148928571Y-99011904D01*
X148976190Y-99107142D01*
X148976190Y-99488095D01*
X148880952Y-98345238D02*
X148833333Y-98440476D01*
X148785714Y-98488095D01*
X148690476Y-98535714D01*
X148642857Y-98535714D01*
X148547619Y-98488095D01*
X148500000Y-98440476D01*
X148452380Y-98345238D01*
X148452380Y-98154761D01*
X148500000Y-98059523D01*
X148547619Y-98011904D01*
X148642857Y-97964285D01*
X148690476Y-97964285D01*
X148785714Y-98011904D01*
X148833333Y-98059523D01*
X148880952Y-98154761D01*
X148880952Y-98345238D01*
X148928571Y-98440476D01*
X148976190Y-98488095D01*
X149071428Y-98535714D01*
X149261904Y-98535714D01*
X149357142Y-98488095D01*
X149404761Y-98440476D01*
X149452380Y-98345238D01*
X149452380Y-98154761D01*
X149404761Y-98059523D01*
X149357142Y-98011904D01*
X149261904Y-97964285D01*
X149071428Y-97964285D01*
X148976190Y-98011904D01*
X148928571Y-98059523D01*
X148880952Y-98154761D01*
X153702380Y-118916666D02*
X153226190Y-119250000D01*
X153702380Y-119488095D02*
X152702380Y-119488095D01*
X152702380Y-119107142D01*
X152750000Y-119011904D01*
X152797619Y-118964285D01*
X152892857Y-118916666D01*
X153035714Y-118916666D01*
X153130952Y-118964285D01*
X153178571Y-119011904D01*
X153226190Y-119107142D01*
X153226190Y-119488095D01*
X152702380Y-118583333D02*
X152702380Y-117916666D01*
X153702380Y-118345238D01*
X162202380Y-118916666D02*
X161726190Y-119250000D01*
X162202380Y-119488095D02*
X161202380Y-119488095D01*
X161202380Y-119107142D01*
X161250000Y-119011904D01*
X161297619Y-118964285D01*
X161392857Y-118916666D01*
X161535714Y-118916666D01*
X161630952Y-118964285D01*
X161678571Y-119011904D01*
X161726190Y-119107142D01*
X161726190Y-119488095D01*
X161202380Y-118059523D02*
X161202380Y-118250000D01*
X161250000Y-118345238D01*
X161297619Y-118392857D01*
X161440476Y-118488095D01*
X161630952Y-118535714D01*
X162011904Y-118535714D01*
X162107142Y-118488095D01*
X162154761Y-118440476D01*
X162202380Y-118345238D01*
X162202380Y-118154761D01*
X162154761Y-118059523D01*
X162107142Y-118011904D01*
X162011904Y-117964285D01*
X161773809Y-117964285D01*
X161678571Y-118011904D01*
X161630952Y-118059523D01*
X161583333Y-118154761D01*
X161583333Y-118345238D01*
X161630952Y-118440476D01*
X161678571Y-118488095D01*
X161773809Y-118535714D01*
X156952380Y-118916666D02*
X156476190Y-119250000D01*
X156952380Y-119488095D02*
X155952380Y-119488095D01*
X155952380Y-119107142D01*
X156000000Y-119011904D01*
X156047619Y-118964285D01*
X156142857Y-118916666D01*
X156285714Y-118916666D01*
X156380952Y-118964285D01*
X156428571Y-119011904D01*
X156476190Y-119107142D01*
X156476190Y-119488095D01*
X155952380Y-118011904D02*
X155952380Y-118488095D01*
X156428571Y-118535714D01*
X156380952Y-118488095D01*
X156333333Y-118392857D01*
X156333333Y-118154761D01*
X156380952Y-118059523D01*
X156428571Y-118011904D01*
X156523809Y-117964285D01*
X156761904Y-117964285D01*
X156857142Y-118011904D01*
X156904761Y-118059523D01*
X156952380Y-118154761D01*
X156952380Y-118392857D01*
X156904761Y-118488095D01*
X156857142Y-118535714D01*
X148702380Y-118916666D02*
X148226190Y-119250000D01*
X148702380Y-119488095D02*
X147702380Y-119488095D01*
X147702380Y-119107142D01*
X147750000Y-119011904D01*
X147797619Y-118964285D01*
X147892857Y-118916666D01*
X148035714Y-118916666D01*
X148130952Y-118964285D01*
X148178571Y-119011904D01*
X148226190Y-119107142D01*
X148226190Y-119488095D01*
X148035714Y-118059523D02*
X148702380Y-118059523D01*
X147654761Y-118297619D02*
X148369047Y-118535714D01*
X148369047Y-117916666D01*
X139452380Y-118916666D02*
X138976190Y-119250000D01*
X139452380Y-119488095D02*
X138452380Y-119488095D01*
X138452380Y-119107142D01*
X138500000Y-119011904D01*
X138547619Y-118964285D01*
X138642857Y-118916666D01*
X138785714Y-118916666D01*
X138880952Y-118964285D01*
X138928571Y-119011904D01*
X138976190Y-119107142D01*
X138976190Y-119488095D01*
X138452380Y-118583333D02*
X138452380Y-117964285D01*
X138833333Y-118297619D01*
X138833333Y-118154761D01*
X138880952Y-118059523D01*
X138928571Y-118011904D01*
X139023809Y-117964285D01*
X139261904Y-117964285D01*
X139357142Y-118011904D01*
X139404761Y-118059523D01*
X139452380Y-118154761D01*
X139452380Y-118440476D01*
X139404761Y-118535714D01*
X139357142Y-118583333D01*
X137952380Y-118916666D02*
X137476190Y-119250000D01*
X137952380Y-119488095D02*
X136952380Y-119488095D01*
X136952380Y-119107142D01*
X137000000Y-119011904D01*
X137047619Y-118964285D01*
X137142857Y-118916666D01*
X137285714Y-118916666D01*
X137380952Y-118964285D01*
X137428571Y-119011904D01*
X137476190Y-119107142D01*
X137476190Y-119488095D01*
X137047619Y-118535714D02*
X137000000Y-118488095D01*
X136952380Y-118392857D01*
X136952380Y-118154761D01*
X137000000Y-118059523D01*
X137047619Y-118011904D01*
X137142857Y-117964285D01*
X137238095Y-117964285D01*
X137380952Y-118011904D01*
X137952380Y-118583333D01*
X137952380Y-117964285D01*
X150202380Y-118916666D02*
X149726190Y-119250000D01*
X150202380Y-119488095D02*
X149202380Y-119488095D01*
X149202380Y-119107142D01*
X149250000Y-119011904D01*
X149297619Y-118964285D01*
X149392857Y-118916666D01*
X149535714Y-118916666D01*
X149630952Y-118964285D01*
X149678571Y-119011904D01*
X149726190Y-119107142D01*
X149726190Y-119488095D01*
X150202380Y-117964285D02*
X150202380Y-118535714D01*
X150202380Y-118250000D02*
X149202380Y-118250000D01*
X149345238Y-118345238D01*
X149440476Y-118440476D01*
X149488095Y-118535714D01*
X159357142Y-108166666D02*
X159404761Y-108214285D01*
X159452380Y-108357142D01*
X159452380Y-108452380D01*
X159404761Y-108595238D01*
X159309523Y-108690476D01*
X159214285Y-108738095D01*
X159023809Y-108785714D01*
X158880952Y-108785714D01*
X158690476Y-108738095D01*
X158595238Y-108690476D01*
X158500000Y-108595238D01*
X158452380Y-108452380D01*
X158452380Y-108357142D01*
X158500000Y-108214285D01*
X158547619Y-108166666D01*
X158880952Y-107595238D02*
X158833333Y-107690476D01*
X158785714Y-107738095D01*
X158690476Y-107785714D01*
X158642857Y-107785714D01*
X158547619Y-107738095D01*
X158500000Y-107690476D01*
X158452380Y-107595238D01*
X158452380Y-107404761D01*
X158500000Y-107309523D01*
X158547619Y-107261904D01*
X158642857Y-107214285D01*
X158690476Y-107214285D01*
X158785714Y-107261904D01*
X158833333Y-107309523D01*
X158880952Y-107404761D01*
X158880952Y-107595238D01*
X158928571Y-107690476D01*
X158976190Y-107738095D01*
X159071428Y-107785714D01*
X159261904Y-107785714D01*
X159357142Y-107738095D01*
X159404761Y-107690476D01*
X159452380Y-107595238D01*
X159452380Y-107404761D01*
X159404761Y-107309523D01*
X159357142Y-107261904D01*
X159261904Y-107214285D01*
X159071428Y-107214285D01*
X158976190Y-107261904D01*
X158928571Y-107309523D01*
X158880952Y-107404761D01*
X147357142Y-98916666D02*
X147404761Y-98964285D01*
X147452380Y-99107142D01*
X147452380Y-99202380D01*
X147404761Y-99345238D01*
X147309523Y-99440476D01*
X147214285Y-99488095D01*
X147023809Y-99535714D01*
X146880952Y-99535714D01*
X146690476Y-99488095D01*
X146595238Y-99440476D01*
X146500000Y-99345238D01*
X146452380Y-99202380D01*
X146452380Y-99107142D01*
X146500000Y-98964285D01*
X146547619Y-98916666D01*
X146452380Y-98583333D02*
X146452380Y-97916666D01*
X147452380Y-98345238D01*
X153357142Y-98916666D02*
X153404761Y-98964285D01*
X153452380Y-99107142D01*
X153452380Y-99202380D01*
X153404761Y-99345238D01*
X153309523Y-99440476D01*
X153214285Y-99488095D01*
X153023809Y-99535714D01*
X152880952Y-99535714D01*
X152690476Y-99488095D01*
X152595238Y-99440476D01*
X152500000Y-99345238D01*
X152452380Y-99202380D01*
X152452380Y-99107142D01*
X152500000Y-98964285D01*
X152547619Y-98916666D01*
X152452380Y-98059523D02*
X152452380Y-98250000D01*
X152500000Y-98345238D01*
X152547619Y-98392857D01*
X152690476Y-98488095D01*
X152880952Y-98535714D01*
X153261904Y-98535714D01*
X153357142Y-98488095D01*
X153404761Y-98440476D01*
X153452380Y-98345238D01*
X153452380Y-98154761D01*
X153404761Y-98059523D01*
X153357142Y-98011904D01*
X153261904Y-97964285D01*
X153023809Y-97964285D01*
X152928571Y-98011904D01*
X152880952Y-98059523D01*
X152833333Y-98154761D01*
X152833333Y-98345238D01*
X152880952Y-98440476D01*
X152928571Y-98488095D01*
X153023809Y-98535714D01*
X153607142Y-115166666D02*
X153654761Y-115214285D01*
X153702380Y-115357142D01*
X153702380Y-115452380D01*
X153654761Y-115595238D01*
X153559523Y-115690476D01*
X153464285Y-115738095D01*
X153273809Y-115785714D01*
X153130952Y-115785714D01*
X152940476Y-115738095D01*
X152845238Y-115690476D01*
X152750000Y-115595238D01*
X152702380Y-115452380D01*
X152702380Y-115357142D01*
X152750000Y-115214285D01*
X152797619Y-115166666D01*
X152702380Y-114261904D02*
X152702380Y-114738095D01*
X153178571Y-114785714D01*
X153130952Y-114738095D01*
X153083333Y-114642857D01*
X153083333Y-114404761D01*
X153130952Y-114309523D01*
X153178571Y-114261904D01*
X153273809Y-114214285D01*
X153511904Y-114214285D01*
X153607142Y-114261904D01*
X153654761Y-114309523D01*
X153702380Y-114404761D01*
X153702380Y-114642857D01*
X153654761Y-114738095D01*
X153607142Y-114785714D01*
X156857142Y-115166666D02*
X156904761Y-115214285D01*
X156952380Y-115357142D01*
X156952380Y-115452380D01*
X156904761Y-115595238D01*
X156809523Y-115690476D01*
X156714285Y-115738095D01*
X156523809Y-115785714D01*
X156380952Y-115785714D01*
X156190476Y-115738095D01*
X156095238Y-115690476D01*
X156000000Y-115595238D01*
X155952380Y-115452380D01*
X155952380Y-115357142D01*
X156000000Y-115214285D01*
X156047619Y-115166666D01*
X156285714Y-114309523D02*
X156952380Y-114309523D01*
X155904761Y-114547619D02*
X156619047Y-114785714D01*
X156619047Y-114166666D01*
X162107142Y-115166666D02*
X162154761Y-115214285D01*
X162202380Y-115357142D01*
X162202380Y-115452380D01*
X162154761Y-115595238D01*
X162059523Y-115690476D01*
X161964285Y-115738095D01*
X161773809Y-115785714D01*
X161630952Y-115785714D01*
X161440476Y-115738095D01*
X161345238Y-115690476D01*
X161250000Y-115595238D01*
X161202380Y-115452380D01*
X161202380Y-115357142D01*
X161250000Y-115214285D01*
X161297619Y-115166666D01*
X161202380Y-114833333D02*
X161202380Y-114214285D01*
X161583333Y-114547619D01*
X161583333Y-114404761D01*
X161630952Y-114309523D01*
X161678571Y-114261904D01*
X161773809Y-114214285D01*
X162011904Y-114214285D01*
X162107142Y-114261904D01*
X162154761Y-114309523D01*
X162202380Y-114404761D01*
X162202380Y-114690476D01*
X162154761Y-114785714D01*
X162107142Y-114833333D01*
X141333333Y-114607142D02*
X141285714Y-114654761D01*
X141142857Y-114702380D01*
X141047619Y-114702380D01*
X140904761Y-114654761D01*
X140809523Y-114559523D01*
X140761904Y-114464285D01*
X140714285Y-114273809D01*
X140714285Y-114130952D01*
X140761904Y-113940476D01*
X140809523Y-113845238D01*
X140904761Y-113750000D01*
X141047619Y-113702380D01*
X141142857Y-113702380D01*
X141285714Y-113750000D01*
X141333333Y-113797619D01*
X141714285Y-113797619D02*
X141761904Y-113750000D01*
X141857142Y-113702380D01*
X142095238Y-113702380D01*
X142190476Y-113750000D01*
X142238095Y-113797619D01*
X142285714Y-113892857D01*
X142285714Y-113988095D01*
X142238095Y-114130952D01*
X141666666Y-114702380D01*
X142285714Y-114702380D01*
X145333333Y-114607142D02*
X145285714Y-114654761D01*
X145142857Y-114702380D01*
X145047619Y-114702380D01*
X144904761Y-114654761D01*
X144809523Y-114559523D01*
X144761904Y-114464285D01*
X144714285Y-114273809D01*
X144714285Y-114130952D01*
X144761904Y-113940476D01*
X144809523Y-113845238D01*
X144904761Y-113750000D01*
X145047619Y-113702380D01*
X145142857Y-113702380D01*
X145285714Y-113750000D01*
X145333333Y-113797619D01*
X146285714Y-114702380D02*
X145714285Y-114702380D01*
X146000000Y-114702380D02*
X146000000Y-113702380D01*
X145904761Y-113845238D01*
X145809523Y-113940476D01*
X145714285Y-113988095D01*
X145476190Y-99976190D02*
X145952380Y-99976190D01*
X144952380Y-100309523D02*
X145476190Y-99976190D01*
X144952380Y-99642857D01*
X145952380Y-98785714D02*
X145952380Y-99357142D01*
X145952380Y-99071428D02*
X144952380Y-99071428D01*
X145095238Y-99166666D01*
X145190476Y-99261904D01*
X145238095Y-99357142D01*
D16*
X150733333Y-119811904D02*
X150733333Y-120383333D01*
X150695238Y-120497619D01*
X150619047Y-120573809D01*
X150504761Y-120611904D01*
X150428571Y-120611904D01*
X151533333Y-120611904D02*
X151076190Y-120611904D01*
X151304761Y-120611904D02*
X151304761Y-119811904D01*
X151228571Y-119926190D01*
X151152380Y-120002380D01*
X151076190Y-120040476D01*
D15*
X156702380Y-105761904D02*
X157511904Y-105761904D01*
X157607142Y-105714285D01*
X157654761Y-105666666D01*
X157702380Y-105571428D01*
X157702380Y-105380952D01*
X157654761Y-105285714D01*
X157607142Y-105238095D01*
X157511904Y-105190476D01*
X156702380Y-105190476D01*
X157702380Y-104190476D02*
X157702380Y-104761904D01*
X157702380Y-104476190D02*
X156702380Y-104476190D01*
X156845238Y-104571428D01*
X156940476Y-104666666D01*
X156988095Y-104761904D01*
M02*
