G04 #@! TF.GenerationSoftware,KiCad,Pcbnew,(5.1.6)-1*
G04 #@! TF.CreationDate,2020-06-13T20:50:13+02:00*
G04 #@! TF.ProjectId,CS5490_Breakout,43533534-3930-45f4-9272-65616b6f7574,rev?*
G04 #@! TF.SameCoordinates,Original*
G04 #@! TF.FileFunction,Copper,L1,Top*
G04 #@! TF.FilePolarity,Positive*
%FSLAX46Y46*%
G04 Gerber Fmt 4.6, Leading zero omitted, Abs format (unit mm)*
G04 Created by KiCad (PCBNEW (5.1.6)-1) date 2020-06-13 20:50:13*
%MOMM*%
%LPD*%
G01*
G04 APERTURE LIST*
G04 #@! TA.AperFunction,SMDPad,CuDef*
%ADD10R,2.000000X4.500000*%
G04 #@! TD*
G04 #@! TA.AperFunction,ComponentPad*
%ADD11R,1.700000X1.700000*%
G04 #@! TD*
G04 #@! TA.AperFunction,ComponentPad*
%ADD12O,1.700000X1.700000*%
G04 #@! TD*
G04 #@! TA.AperFunction,SMDPad,CuDef*
%ADD13R,0.600000X1.500000*%
G04 #@! TD*
G04 #@! TA.AperFunction,ViaPad*
%ADD14C,0.800000*%
G04 #@! TD*
G04 #@! TA.AperFunction,Conductor*
%ADD15C,0.250000*%
G04 #@! TD*
G04 #@! TA.AperFunction,Conductor*
%ADD16C,0.254000*%
G04 #@! TD*
G04 APERTURE END LIST*
G04 #@! TA.AperFunction,SMDPad,CuDef*
G36*
G01*
X150762500Y-102100000D02*
X151237500Y-102100000D01*
G75*
G02*
X151475000Y-102337500I0J-237500D01*
G01*
X151475000Y-102912500D01*
G75*
G02*
X151237500Y-103150000I-237500J0D01*
G01*
X150762500Y-103150000D01*
G75*
G02*
X150525000Y-102912500I0J237500D01*
G01*
X150525000Y-102337500D01*
G75*
G02*
X150762500Y-102100000I237500J0D01*
G01*
G37*
G04 #@! TD.AperFunction*
G04 #@! TA.AperFunction,SMDPad,CuDef*
G36*
G01*
X150762500Y-100350000D02*
X151237500Y-100350000D01*
G75*
G02*
X151475000Y-100587500I0J-237500D01*
G01*
X151475000Y-101162500D01*
G75*
G02*
X151237500Y-101400000I-237500J0D01*
G01*
X150762500Y-101400000D01*
G75*
G02*
X150525000Y-101162500I0J237500D01*
G01*
X150525000Y-100587500D01*
G75*
G02*
X150762500Y-100350000I237500J0D01*
G01*
G37*
G04 #@! TD.AperFunction*
G04 #@! TA.AperFunction,SMDPad,CuDef*
G36*
G01*
X148762500Y-102100000D02*
X149237500Y-102100000D01*
G75*
G02*
X149475000Y-102337500I0J-237500D01*
G01*
X149475000Y-102912500D01*
G75*
G02*
X149237500Y-103150000I-237500J0D01*
G01*
X148762500Y-103150000D01*
G75*
G02*
X148525000Y-102912500I0J237500D01*
G01*
X148525000Y-102337500D01*
G75*
G02*
X148762500Y-102100000I237500J0D01*
G01*
G37*
G04 #@! TD.AperFunction*
G04 #@! TA.AperFunction,SMDPad,CuDef*
G36*
G01*
X148762500Y-100350000D02*
X149237500Y-100350000D01*
G75*
G02*
X149475000Y-100587500I0J-237500D01*
G01*
X149475000Y-101162500D01*
G75*
G02*
X149237500Y-101400000I-237500J0D01*
G01*
X148762500Y-101400000D01*
G75*
G02*
X148525000Y-101162500I0J237500D01*
G01*
X148525000Y-100587500D01*
G75*
G02*
X148762500Y-100350000I237500J0D01*
G01*
G37*
G04 #@! TD.AperFunction*
G04 #@! TA.AperFunction,SMDPad,CuDef*
G36*
G01*
X154512500Y-119100000D02*
X154987500Y-119100000D01*
G75*
G02*
X155225000Y-119337500I0J-237500D01*
G01*
X155225000Y-119912500D01*
G75*
G02*
X154987500Y-120150000I-237500J0D01*
G01*
X154512500Y-120150000D01*
G75*
G02*
X154275000Y-119912500I0J237500D01*
G01*
X154275000Y-119337500D01*
G75*
G02*
X154512500Y-119100000I237500J0D01*
G01*
G37*
G04 #@! TD.AperFunction*
G04 #@! TA.AperFunction,SMDPad,CuDef*
G36*
G01*
X154512500Y-117350000D02*
X154987500Y-117350000D01*
G75*
G02*
X155225000Y-117587500I0J-237500D01*
G01*
X155225000Y-118162500D01*
G75*
G02*
X154987500Y-118400000I-237500J0D01*
G01*
X154512500Y-118400000D01*
G75*
G02*
X154275000Y-118162500I0J237500D01*
G01*
X154275000Y-117587500D01*
G75*
G02*
X154512500Y-117350000I237500J0D01*
G01*
G37*
G04 #@! TD.AperFunction*
G04 #@! TA.AperFunction,SMDPad,CuDef*
G36*
G01*
X159762500Y-119100000D02*
X160237500Y-119100000D01*
G75*
G02*
X160475000Y-119337500I0J-237500D01*
G01*
X160475000Y-119912500D01*
G75*
G02*
X160237500Y-120150000I-237500J0D01*
G01*
X159762500Y-120150000D01*
G75*
G02*
X159525000Y-119912500I0J237500D01*
G01*
X159525000Y-119337500D01*
G75*
G02*
X159762500Y-119100000I237500J0D01*
G01*
G37*
G04 #@! TD.AperFunction*
G04 #@! TA.AperFunction,SMDPad,CuDef*
G36*
G01*
X159762500Y-117350000D02*
X160237500Y-117350000D01*
G75*
G02*
X160475000Y-117587500I0J-237500D01*
G01*
X160475000Y-118162500D01*
G75*
G02*
X160237500Y-118400000I-237500J0D01*
G01*
X159762500Y-118400000D01*
G75*
G02*
X159525000Y-118162500I0J237500D01*
G01*
X159525000Y-117587500D01*
G75*
G02*
X159762500Y-117350000I237500J0D01*
G01*
G37*
G04 #@! TD.AperFunction*
G04 #@! TA.AperFunction,SMDPad,CuDef*
G36*
G01*
X157762500Y-119100000D02*
X158237500Y-119100000D01*
G75*
G02*
X158475000Y-119337500I0J-237500D01*
G01*
X158475000Y-119912500D01*
G75*
G02*
X158237500Y-120150000I-237500J0D01*
G01*
X157762500Y-120150000D01*
G75*
G02*
X157525000Y-119912500I0J237500D01*
G01*
X157525000Y-119337500D01*
G75*
G02*
X157762500Y-119100000I237500J0D01*
G01*
G37*
G04 #@! TD.AperFunction*
G04 #@! TA.AperFunction,SMDPad,CuDef*
G36*
G01*
X157762500Y-117350000D02*
X158237500Y-117350000D01*
G75*
G02*
X158475000Y-117587500I0J-237500D01*
G01*
X158475000Y-118162500D01*
G75*
G02*
X158237500Y-118400000I-237500J0D01*
G01*
X157762500Y-118400000D01*
G75*
G02*
X157525000Y-118162500I0J237500D01*
G01*
X157525000Y-117587500D01*
G75*
G02*
X157762500Y-117350000I237500J0D01*
G01*
G37*
G04 #@! TD.AperFunction*
G04 #@! TA.AperFunction,SMDPad,CuDef*
G36*
G01*
X144262500Y-119100000D02*
X144737500Y-119100000D01*
G75*
G02*
X144975000Y-119337500I0J-237500D01*
G01*
X144975000Y-119912500D01*
G75*
G02*
X144737500Y-120150000I-237500J0D01*
G01*
X144262500Y-120150000D01*
G75*
G02*
X144025000Y-119912500I0J237500D01*
G01*
X144025000Y-119337500D01*
G75*
G02*
X144262500Y-119100000I237500J0D01*
G01*
G37*
G04 #@! TD.AperFunction*
G04 #@! TA.AperFunction,SMDPad,CuDef*
G36*
G01*
X144262500Y-117350000D02*
X144737500Y-117350000D01*
G75*
G02*
X144975000Y-117587500I0J-237500D01*
G01*
X144975000Y-118162500D01*
G75*
G02*
X144737500Y-118400000I-237500J0D01*
G01*
X144262500Y-118400000D01*
G75*
G02*
X144025000Y-118162500I0J237500D01*
G01*
X144025000Y-117587500D01*
G75*
G02*
X144262500Y-117350000I237500J0D01*
G01*
G37*
G04 #@! TD.AperFunction*
G04 #@! TA.AperFunction,SMDPad,CuDef*
G36*
G01*
X142262500Y-119100000D02*
X142737500Y-119100000D01*
G75*
G02*
X142975000Y-119337500I0J-237500D01*
G01*
X142975000Y-119912500D01*
G75*
G02*
X142737500Y-120150000I-237500J0D01*
G01*
X142262500Y-120150000D01*
G75*
G02*
X142025000Y-119912500I0J237500D01*
G01*
X142025000Y-119337500D01*
G75*
G02*
X142262500Y-119100000I237500J0D01*
G01*
G37*
G04 #@! TD.AperFunction*
G04 #@! TA.AperFunction,SMDPad,CuDef*
G36*
G01*
X142262500Y-117350000D02*
X142737500Y-117350000D01*
G75*
G02*
X142975000Y-117587500I0J-237500D01*
G01*
X142975000Y-118162500D01*
G75*
G02*
X142737500Y-118400000I-237500J0D01*
G01*
X142262500Y-118400000D01*
G75*
G02*
X142025000Y-118162500I0J237500D01*
G01*
X142025000Y-117587500D01*
G75*
G02*
X142262500Y-117350000I237500J0D01*
G01*
G37*
G04 #@! TD.AperFunction*
G04 #@! TA.AperFunction,SMDPad,CuDef*
G36*
G01*
X140757500Y-118400000D02*
X140282500Y-118400000D01*
G75*
G02*
X140045000Y-118162500I0J237500D01*
G01*
X140045000Y-117587500D01*
G75*
G02*
X140282500Y-117350000I237500J0D01*
G01*
X140757500Y-117350000D01*
G75*
G02*
X140995000Y-117587500I0J-237500D01*
G01*
X140995000Y-118162500D01*
G75*
G02*
X140757500Y-118400000I-237500J0D01*
G01*
G37*
G04 #@! TD.AperFunction*
G04 #@! TA.AperFunction,SMDPad,CuDef*
G36*
G01*
X140757500Y-120150000D02*
X140282500Y-120150000D01*
G75*
G02*
X140045000Y-119912500I0J237500D01*
G01*
X140045000Y-119337500D01*
G75*
G02*
X140282500Y-119100000I237500J0D01*
G01*
X140757500Y-119100000D01*
G75*
G02*
X140995000Y-119337500I0J-237500D01*
G01*
X140995000Y-119912500D01*
G75*
G02*
X140757500Y-120150000I-237500J0D01*
G01*
G37*
G04 #@! TD.AperFunction*
G04 #@! TA.AperFunction,SMDPad,CuDef*
G36*
G01*
X146262500Y-119100000D02*
X146737500Y-119100000D01*
G75*
G02*
X146975000Y-119337500I0J-237500D01*
G01*
X146975000Y-119912500D01*
G75*
G02*
X146737500Y-120150000I-237500J0D01*
G01*
X146262500Y-120150000D01*
G75*
G02*
X146025000Y-119912500I0J237500D01*
G01*
X146025000Y-119337500D01*
G75*
G02*
X146262500Y-119100000I237500J0D01*
G01*
G37*
G04 #@! TD.AperFunction*
G04 #@! TA.AperFunction,SMDPad,CuDef*
G36*
G01*
X146262500Y-117350000D02*
X146737500Y-117350000D01*
G75*
G02*
X146975000Y-117587500I0J-237500D01*
G01*
X146975000Y-118162500D01*
G75*
G02*
X146737500Y-118400000I-237500J0D01*
G01*
X146262500Y-118400000D01*
G75*
G02*
X146025000Y-118162500I0J237500D01*
G01*
X146025000Y-117587500D01*
G75*
G02*
X146262500Y-117350000I237500J0D01*
G01*
G37*
G04 #@! TD.AperFunction*
G04 #@! TA.AperFunction,SMDPad,CuDef*
G36*
G01*
X157262500Y-108350000D02*
X157737500Y-108350000D01*
G75*
G02*
X157975000Y-108587500I0J-237500D01*
G01*
X157975000Y-109162500D01*
G75*
G02*
X157737500Y-109400000I-237500J0D01*
G01*
X157262500Y-109400000D01*
G75*
G02*
X157025000Y-109162500I0J237500D01*
G01*
X157025000Y-108587500D01*
G75*
G02*
X157262500Y-108350000I237500J0D01*
G01*
G37*
G04 #@! TD.AperFunction*
G04 #@! TA.AperFunction,SMDPad,CuDef*
G36*
G01*
X157262500Y-106600000D02*
X157737500Y-106600000D01*
G75*
G02*
X157975000Y-106837500I0J-237500D01*
G01*
X157975000Y-107412500D01*
G75*
G02*
X157737500Y-107650000I-237500J0D01*
G01*
X157262500Y-107650000D01*
G75*
G02*
X157025000Y-107412500I0J237500D01*
G01*
X157025000Y-106837500D01*
G75*
G02*
X157262500Y-106600000I237500J0D01*
G01*
G37*
G04 #@! TD.AperFunction*
G04 #@! TA.AperFunction,SMDPad,CuDef*
G36*
G01*
X147237500Y-101400000D02*
X146762500Y-101400000D01*
G75*
G02*
X146525000Y-101162500I0J237500D01*
G01*
X146525000Y-100587500D01*
G75*
G02*
X146762500Y-100350000I237500J0D01*
G01*
X147237500Y-100350000D01*
G75*
G02*
X147475000Y-100587500I0J-237500D01*
G01*
X147475000Y-101162500D01*
G75*
G02*
X147237500Y-101400000I-237500J0D01*
G01*
G37*
G04 #@! TD.AperFunction*
G04 #@! TA.AperFunction,SMDPad,CuDef*
G36*
G01*
X147237500Y-103150000D02*
X146762500Y-103150000D01*
G75*
G02*
X146525000Y-102912500I0J237500D01*
G01*
X146525000Y-102337500D01*
G75*
G02*
X146762500Y-102100000I237500J0D01*
G01*
X147237500Y-102100000D01*
G75*
G02*
X147475000Y-102337500I0J-237500D01*
G01*
X147475000Y-102912500D01*
G75*
G02*
X147237500Y-103150000I-237500J0D01*
G01*
G37*
G04 #@! TD.AperFunction*
G04 #@! TA.AperFunction,SMDPad,CuDef*
G36*
G01*
X153237500Y-101400000D02*
X152762500Y-101400000D01*
G75*
G02*
X152525000Y-101162500I0J237500D01*
G01*
X152525000Y-100587500D01*
G75*
G02*
X152762500Y-100350000I237500J0D01*
G01*
X153237500Y-100350000D01*
G75*
G02*
X153475000Y-100587500I0J-237500D01*
G01*
X153475000Y-101162500D01*
G75*
G02*
X153237500Y-101400000I-237500J0D01*
G01*
G37*
G04 #@! TD.AperFunction*
G04 #@! TA.AperFunction,SMDPad,CuDef*
G36*
G01*
X153237500Y-103150000D02*
X152762500Y-103150000D01*
G75*
G02*
X152525000Y-102912500I0J237500D01*
G01*
X152525000Y-102337500D01*
G75*
G02*
X152762500Y-102100000I237500J0D01*
G01*
X153237500Y-102100000D01*
G75*
G02*
X153475000Y-102337500I0J-237500D01*
G01*
X153475000Y-102912500D01*
G75*
G02*
X153237500Y-103150000I-237500J0D01*
G01*
G37*
G04 #@! TD.AperFunction*
G04 #@! TA.AperFunction,SMDPad,CuDef*
G36*
G01*
X154512500Y-115350000D02*
X154987500Y-115350000D01*
G75*
G02*
X155225000Y-115587500I0J-237500D01*
G01*
X155225000Y-116162500D01*
G75*
G02*
X154987500Y-116400000I-237500J0D01*
G01*
X154512500Y-116400000D01*
G75*
G02*
X154275000Y-116162500I0J237500D01*
G01*
X154275000Y-115587500D01*
G75*
G02*
X154512500Y-115350000I237500J0D01*
G01*
G37*
G04 #@! TD.AperFunction*
G04 #@! TA.AperFunction,SMDPad,CuDef*
G36*
G01*
X154512500Y-113600000D02*
X154987500Y-113600000D01*
G75*
G02*
X155225000Y-113837500I0J-237500D01*
G01*
X155225000Y-114412500D01*
G75*
G02*
X154987500Y-114650000I-237500J0D01*
G01*
X154512500Y-114650000D01*
G75*
G02*
X154275000Y-114412500I0J237500D01*
G01*
X154275000Y-113837500D01*
G75*
G02*
X154512500Y-113600000I237500J0D01*
G01*
G37*
G04 #@! TD.AperFunction*
G04 #@! TA.AperFunction,SMDPad,CuDef*
G36*
G01*
X157762500Y-115350000D02*
X158237500Y-115350000D01*
G75*
G02*
X158475000Y-115587500I0J-237500D01*
G01*
X158475000Y-116162500D01*
G75*
G02*
X158237500Y-116400000I-237500J0D01*
G01*
X157762500Y-116400000D01*
G75*
G02*
X157525000Y-116162500I0J237500D01*
G01*
X157525000Y-115587500D01*
G75*
G02*
X157762500Y-115350000I237500J0D01*
G01*
G37*
G04 #@! TD.AperFunction*
G04 #@! TA.AperFunction,SMDPad,CuDef*
G36*
G01*
X157762500Y-113600000D02*
X158237500Y-113600000D01*
G75*
G02*
X158475000Y-113837500I0J-237500D01*
G01*
X158475000Y-114412500D01*
G75*
G02*
X158237500Y-114650000I-237500J0D01*
G01*
X157762500Y-114650000D01*
G75*
G02*
X157525000Y-114412500I0J237500D01*
G01*
X157525000Y-113837500D01*
G75*
G02*
X157762500Y-113600000I237500J0D01*
G01*
G37*
G04 #@! TD.AperFunction*
G04 #@! TA.AperFunction,SMDPad,CuDef*
G36*
G01*
X160237500Y-114650000D02*
X159762500Y-114650000D01*
G75*
G02*
X159525000Y-114412500I0J237500D01*
G01*
X159525000Y-113837500D01*
G75*
G02*
X159762500Y-113600000I237500J0D01*
G01*
X160237500Y-113600000D01*
G75*
G02*
X160475000Y-113837500I0J-237500D01*
G01*
X160475000Y-114412500D01*
G75*
G02*
X160237500Y-114650000I-237500J0D01*
G01*
G37*
G04 #@! TD.AperFunction*
G04 #@! TA.AperFunction,SMDPad,CuDef*
G36*
G01*
X160237500Y-116400000D02*
X159762500Y-116400000D01*
G75*
G02*
X159525000Y-116162500I0J237500D01*
G01*
X159525000Y-115587500D01*
G75*
G02*
X159762500Y-115350000I237500J0D01*
G01*
X160237500Y-115350000D01*
G75*
G02*
X160475000Y-115587500I0J-237500D01*
G01*
X160475000Y-116162500D01*
G75*
G02*
X160237500Y-116400000I-237500J0D01*
G01*
G37*
G04 #@! TD.AperFunction*
G04 #@! TA.AperFunction,SMDPad,CuDef*
G36*
G01*
X141850000Y-115987500D02*
X141850000Y-115512500D01*
G75*
G02*
X142087500Y-115275000I237500J0D01*
G01*
X142662500Y-115275000D01*
G75*
G02*
X142900000Y-115512500I0J-237500D01*
G01*
X142900000Y-115987500D01*
G75*
G02*
X142662500Y-116225000I-237500J0D01*
G01*
X142087500Y-116225000D01*
G75*
G02*
X141850000Y-115987500I0J237500D01*
G01*
G37*
G04 #@! TD.AperFunction*
G04 #@! TA.AperFunction,SMDPad,CuDef*
G36*
G01*
X140100000Y-115987500D02*
X140100000Y-115512500D01*
G75*
G02*
X140337500Y-115275000I237500J0D01*
G01*
X140912500Y-115275000D01*
G75*
G02*
X141150000Y-115512500I0J-237500D01*
G01*
X141150000Y-115987500D01*
G75*
G02*
X140912500Y-116225000I-237500J0D01*
G01*
X140337500Y-116225000D01*
G75*
G02*
X140100000Y-115987500I0J237500D01*
G01*
G37*
G04 #@! TD.AperFunction*
G04 #@! TA.AperFunction,SMDPad,CuDef*
G36*
G01*
X145850000Y-115987500D02*
X145850000Y-115512500D01*
G75*
G02*
X146087500Y-115275000I237500J0D01*
G01*
X146662500Y-115275000D01*
G75*
G02*
X146900000Y-115512500I0J-237500D01*
G01*
X146900000Y-115987500D01*
G75*
G02*
X146662500Y-116225000I-237500J0D01*
G01*
X146087500Y-116225000D01*
G75*
G02*
X145850000Y-115987500I0J237500D01*
G01*
G37*
G04 #@! TD.AperFunction*
G04 #@! TA.AperFunction,SMDPad,CuDef*
G36*
G01*
X144100000Y-115987500D02*
X144100000Y-115512500D01*
G75*
G02*
X144337500Y-115275000I237500J0D01*
G01*
X144912500Y-115275000D01*
G75*
G02*
X145150000Y-115512500I0J-237500D01*
G01*
X145150000Y-115987500D01*
G75*
G02*
X144912500Y-116225000I-237500J0D01*
G01*
X144337500Y-116225000D01*
G75*
G02*
X144100000Y-115987500I0J237500D01*
G01*
G37*
G04 #@! TD.AperFunction*
D10*
X142000000Y-101250000D03*
X142000000Y-109750000D03*
D11*
X162410000Y-122750000D03*
D12*
X159870000Y-122750000D03*
X157330000Y-122750000D03*
X154790000Y-122750000D03*
X152250000Y-122750000D03*
X149710000Y-122750000D03*
X147170000Y-122750000D03*
X144630000Y-122750000D03*
X142090000Y-122750000D03*
X139550000Y-122750000D03*
D13*
X146555000Y-110700000D03*
X147825000Y-110700000D03*
X149095000Y-110700000D03*
X150365000Y-110700000D03*
X151635000Y-110700000D03*
X152905000Y-110700000D03*
X154175000Y-110700000D03*
X155445000Y-110700000D03*
X155445000Y-105300000D03*
X154175000Y-105300000D03*
X152905000Y-105300000D03*
X151635000Y-105300000D03*
X150365000Y-105300000D03*
X149095000Y-105300000D03*
X147825000Y-105300000D03*
X146555000Y-105300000D03*
D14*
X167640000Y-119380000D03*
X167640000Y-109220000D03*
X167640000Y-104140000D03*
X134620000Y-101600000D03*
X134620000Y-106680000D03*
X134620000Y-111760000D03*
X134620000Y-116840000D03*
X163830000Y-97790000D03*
X157480000Y-97790000D03*
X151130000Y-97790000D03*
X144780000Y-97790000D03*
X138430000Y-97790000D03*
X160020000Y-101600000D03*
X162560000Y-104140000D03*
X165100000Y-106680000D03*
X165100000Y-111760000D03*
X165100000Y-116840000D03*
X157480000Y-99060000D03*
X165100000Y-101600000D03*
X162560000Y-99060000D03*
X160020000Y-111760000D03*
X160020000Y-106680000D03*
X157480000Y-104140000D03*
X154940000Y-101600000D03*
X147320000Y-99060000D03*
X144780000Y-101600000D03*
X139700000Y-106680000D03*
X137160000Y-109220000D03*
X137160000Y-114300000D03*
X137160000Y-119380000D03*
X139700000Y-111760000D03*
X137160000Y-104140000D03*
X139700000Y-101600000D03*
X142240000Y-114300000D03*
X139700000Y-116840000D03*
X147320000Y-116840000D03*
X167640000Y-114300000D03*
X152400000Y-119380000D03*
X152400000Y-114300000D03*
X167640000Y-116840000D03*
X167640000Y-111760000D03*
X167640000Y-106680000D03*
X167640000Y-101600000D03*
X134620000Y-119380000D03*
X134620000Y-114300000D03*
X134620000Y-109220000D03*
X134620000Y-104140000D03*
X154750000Y-120750000D03*
X150375000Y-106750000D03*
X149125000Y-106750000D03*
X151625000Y-106750000D03*
X151625000Y-109125000D03*
X154750000Y-116875000D03*
D15*
X142950000Y-110700000D02*
X142000000Y-109750000D01*
X146555000Y-110700000D02*
X142950000Y-110700000D01*
X142000000Y-103750000D02*
X142000000Y-101250000D01*
X142000000Y-103875000D02*
X142000000Y-103750000D01*
X147825000Y-109700000D02*
X142000000Y-103875000D01*
X147825000Y-110700000D02*
X147825000Y-109700000D01*
X153000000Y-110605000D02*
X152905000Y-110700000D01*
X160000000Y-117875000D02*
X160000000Y-115800000D01*
X153625000Y-112750000D02*
X152905000Y-112030000D01*
X155500000Y-112750000D02*
X153625000Y-112750000D01*
X156125000Y-113375000D02*
X155500000Y-112750000D01*
X160000000Y-118500000D02*
X159750000Y-118750000D01*
X159750000Y-118750000D02*
X157000000Y-118750000D01*
X152905000Y-112030000D02*
X152905000Y-110700000D01*
X160000000Y-117875000D02*
X160000000Y-118500000D01*
X157000000Y-118750000D02*
X156125000Y-117875000D01*
X156125000Y-117875000D02*
X156125000Y-113375000D01*
X158000000Y-117875000D02*
X158000000Y-115800000D01*
X156875000Y-117875000D02*
X158000000Y-117875000D01*
X154175000Y-111925000D02*
X154500000Y-112250000D01*
X156625000Y-113125000D02*
X156625000Y-117625000D01*
X156625000Y-117625000D02*
X156875000Y-117875000D01*
X155750000Y-112250000D02*
X156625000Y-113125000D01*
X154175000Y-110700000D02*
X154175000Y-111925000D01*
X154500000Y-112250000D02*
X155750000Y-112250000D01*
X144700000Y-117675000D02*
X144500000Y-117875000D01*
X144700000Y-115750000D02*
X144700000Y-117675000D01*
X151635000Y-112115000D02*
X151635000Y-110700000D01*
X145250000Y-113500000D02*
X150250000Y-113500000D01*
X144700000Y-115750000D02*
X144700000Y-114050000D01*
X150250000Y-113500000D02*
X151635000Y-112115000D01*
X144700000Y-114050000D02*
X145250000Y-113500000D01*
X142300000Y-117675000D02*
X142500000Y-117875000D01*
X142300000Y-115750000D02*
X142300000Y-117675000D01*
X150000000Y-113000000D02*
X150365000Y-112635000D01*
X145000000Y-113000000D02*
X150000000Y-113000000D01*
X150365000Y-112635000D02*
X150365000Y-110700000D01*
X142300000Y-115750000D02*
X142300000Y-115700000D01*
X142300000Y-115700000D02*
X145000000Y-113000000D01*
X154175000Y-101375000D02*
X154175000Y-105300000D01*
X153000000Y-100950000D02*
X153750000Y-100950000D01*
X153750000Y-100950000D02*
X154175000Y-101375000D01*
X140700000Y-117575000D02*
X140520000Y-117755000D01*
X146300000Y-117675000D02*
X146500000Y-117875000D01*
X146300000Y-115750000D02*
X146300000Y-116825000D01*
X140700000Y-117695000D02*
X140520000Y-117875000D01*
X140700000Y-115750000D02*
X140700000Y-116800000D01*
X158000000Y-114200000D02*
X160000000Y-114200000D01*
X153425000Y-114200000D02*
X153375000Y-114250000D01*
X154750000Y-114200000D02*
X153425000Y-114200000D01*
X146300000Y-116825000D02*
X146300000Y-117675000D01*
X140700000Y-116800000D02*
X140700000Y-117695000D01*
X147320000Y-116840000D02*
X146660000Y-116840000D01*
X139700000Y-116840000D02*
X140410000Y-116840000D01*
X149000000Y-100875000D02*
X151000000Y-100875000D01*
X147955000Y-105250000D02*
X147955000Y-105373600D01*
X147831400Y-105250000D02*
X147955000Y-105373600D01*
X146685000Y-105250000D02*
X147831400Y-105250000D01*
X153035000Y-102660000D02*
X153000000Y-102625000D01*
X153035000Y-105250000D02*
X153035000Y-102660000D01*
X146750000Y-105229700D02*
X146750000Y-103750000D01*
X146750000Y-103750000D02*
X146750000Y-102444700D01*
X150125000Y-101750000D02*
X151000000Y-102625000D01*
X147750000Y-101750000D02*
X150125000Y-101750000D01*
X146750000Y-102400000D02*
X147100000Y-102400000D01*
X147100000Y-102400000D02*
X147750000Y-101750000D01*
X152925000Y-102625000D02*
X153000000Y-102550000D01*
X146800000Y-102550000D02*
X147000000Y-102550000D01*
X152000000Y-102625000D02*
X152925000Y-102625000D01*
X151000000Y-102625000D02*
X152000000Y-102625000D01*
X154750000Y-99875000D02*
X162410000Y-107535000D01*
X152250000Y-99875000D02*
X154750000Y-99875000D01*
X162410000Y-107535000D02*
X162410000Y-122750000D01*
X152000000Y-102625000D02*
X152000000Y-100125000D01*
X152000000Y-100125000D02*
X152250000Y-99875000D01*
X154750000Y-119625000D02*
X154750000Y-120750000D01*
X157480000Y-109485300D02*
X157480000Y-108750000D01*
X157480000Y-110020000D02*
X157480000Y-109485300D01*
X155575000Y-110650000D02*
X156850000Y-110650000D01*
X156850000Y-110650000D02*
X157480000Y-110020000D01*
X157480000Y-105980000D02*
X157480000Y-107150000D01*
X155575000Y-105250000D02*
X156750000Y-105250000D01*
X156750000Y-105250000D02*
X157480000Y-105980000D01*
X150375000Y-105250000D02*
X150375000Y-106646600D01*
X149000000Y-105395000D02*
X149095000Y-105300000D01*
X149125000Y-106750000D02*
X149125000Y-105395000D01*
X148000000Y-122510000D02*
X147320000Y-123190000D01*
X159870000Y-119755000D02*
X160000000Y-119625000D01*
X159870000Y-122750000D02*
X159870000Y-119755000D01*
X157625000Y-120000000D02*
X158000000Y-119625000D01*
X157330000Y-122750000D02*
X157625000Y-122455000D01*
X157625000Y-122455000D02*
X157625000Y-120000000D01*
X144500000Y-119625000D02*
X146500000Y-119625000D01*
X144630000Y-119755000D02*
X144500000Y-119625000D01*
X144630000Y-122750000D02*
X144630000Y-119755000D01*
X140520000Y-119625000D02*
X142500000Y-119625000D01*
X142340000Y-119785000D02*
X142500000Y-119625000D01*
X142090000Y-122750000D02*
X142090000Y-119785000D01*
X149000000Y-103250000D02*
X149000000Y-102625000D01*
X151635000Y-104135000D02*
X151250000Y-103750000D01*
X151635000Y-104694900D02*
X151635000Y-104135000D01*
X151765000Y-104824900D02*
X151635000Y-104694900D01*
X151250000Y-103750000D02*
X149500000Y-103750000D01*
X149500000Y-103750000D02*
X149000000Y-103250000D01*
X151750000Y-105415000D02*
X151635000Y-105300000D01*
X151625000Y-106750000D02*
X151625000Y-105415000D01*
X154750000Y-117875000D02*
X154750000Y-116875000D01*
X154750000Y-116875000D02*
X154750000Y-115800000D01*
X151625000Y-109125000D02*
X149375000Y-109125000D01*
X149095000Y-109405000D02*
X149095000Y-110700000D01*
X149375000Y-109125000D02*
X149095000Y-109405000D01*
X155000000Y-117875000D02*
X154750000Y-117875000D01*
X156125000Y-119000000D02*
X155000000Y-117875000D01*
X154790000Y-122750000D02*
X156125000Y-121415000D01*
X156125000Y-121415000D02*
X156125000Y-119000000D01*
D16*
G36*
X165427207Y-97296157D02*
G01*
X165101213Y-97513979D01*
X164823979Y-97791213D01*
X164606157Y-98117207D01*
X164456119Y-98479431D01*
X164379631Y-98863966D01*
X164379631Y-99256034D01*
X164456119Y-99640569D01*
X164606157Y-100002793D01*
X164823979Y-100328787D01*
X165101213Y-100606021D01*
X165427207Y-100823843D01*
X165789431Y-100973881D01*
X166173966Y-101050369D01*
X166566034Y-101050369D01*
X166950569Y-100973881D01*
X167312793Y-100823843D01*
X167638787Y-100606021D01*
X167916021Y-100328787D01*
X168133843Y-100002793D01*
X168175000Y-99903431D01*
X168175001Y-121076571D01*
X168133843Y-120977207D01*
X167916021Y-120651213D01*
X167638787Y-120373979D01*
X167312793Y-120156157D01*
X166950569Y-120006119D01*
X166566034Y-119929631D01*
X166173966Y-119929631D01*
X165789431Y-120006119D01*
X165427207Y-120156157D01*
X165101213Y-120373979D01*
X164823979Y-120651213D01*
X164606157Y-120977207D01*
X164456119Y-121339431D01*
X164379631Y-121723966D01*
X164379631Y-122116034D01*
X164456119Y-122500569D01*
X164606157Y-122862793D01*
X164823979Y-123188787D01*
X165101213Y-123466021D01*
X165427207Y-123683843D01*
X165526569Y-123725000D01*
X163885655Y-123725000D01*
X163885812Y-123724482D01*
X163898072Y-123600000D01*
X163898072Y-121900000D01*
X163885812Y-121775518D01*
X163849502Y-121655820D01*
X163790537Y-121545506D01*
X163711185Y-121448815D01*
X163614494Y-121369463D01*
X163504180Y-121310498D01*
X163384482Y-121274188D01*
X163260000Y-121261928D01*
X163170000Y-121261928D01*
X163170000Y-107572323D01*
X163173676Y-107535000D01*
X163170000Y-107497677D01*
X163170000Y-107497667D01*
X163159003Y-107386014D01*
X163115546Y-107242753D01*
X163044975Y-107110725D01*
X163044974Y-107110723D01*
X162973799Y-107023997D01*
X162950001Y-106994999D01*
X162921004Y-106971202D01*
X155313804Y-99364003D01*
X155290001Y-99334999D01*
X155174276Y-99240026D01*
X155042247Y-99169454D01*
X154898986Y-99125997D01*
X154787333Y-99115000D01*
X154787322Y-99115000D01*
X154750000Y-99111324D01*
X154712678Y-99115000D01*
X152287322Y-99115000D01*
X152249999Y-99111324D01*
X152212676Y-99115000D01*
X152212667Y-99115000D01*
X152101014Y-99125997D01*
X151957753Y-99169454D01*
X151825724Y-99240026D01*
X151709999Y-99334999D01*
X151686200Y-99363998D01*
X151488997Y-99561202D01*
X151460000Y-99584999D01*
X151436202Y-99613997D01*
X151436201Y-99613998D01*
X151365026Y-99700724D01*
X151352959Y-99723300D01*
X151237500Y-99711928D01*
X150762500Y-99711928D01*
X150591684Y-99728752D01*
X150427433Y-99778577D01*
X150276058Y-99859488D01*
X150143377Y-99968377D01*
X150034488Y-100101058D01*
X150027036Y-100115000D01*
X149972964Y-100115000D01*
X149965512Y-100101058D01*
X149856623Y-99968377D01*
X149723942Y-99859488D01*
X149572567Y-99778577D01*
X149408316Y-99728752D01*
X149237500Y-99711928D01*
X148762500Y-99711928D01*
X148591684Y-99728752D01*
X148427433Y-99778577D01*
X148276058Y-99859488D01*
X148143377Y-99968377D01*
X148051122Y-100080789D01*
X148005537Y-99995506D01*
X147926185Y-99898815D01*
X147829494Y-99819463D01*
X147719180Y-99760498D01*
X147599482Y-99724188D01*
X147475000Y-99711928D01*
X147285750Y-99715000D01*
X147127000Y-99873750D01*
X147127000Y-100748000D01*
X147147000Y-100748000D01*
X147147000Y-101002000D01*
X147127000Y-101002000D01*
X147127000Y-101022000D01*
X146873000Y-101022000D01*
X146873000Y-101002000D01*
X146048750Y-101002000D01*
X145890000Y-101160750D01*
X145886928Y-101400000D01*
X145899188Y-101524482D01*
X145935498Y-101644180D01*
X145994463Y-101754494D01*
X146054099Y-101827161D01*
X146034488Y-101851058D01*
X145953577Y-102002433D01*
X145903752Y-102166684D01*
X145886928Y-102337500D01*
X145886928Y-102912500D01*
X145903752Y-103083316D01*
X145953577Y-103247567D01*
X145990000Y-103315711D01*
X145990000Y-103787332D01*
X145990001Y-103787342D01*
X145990001Y-103971626D01*
X145900506Y-104019463D01*
X145803815Y-104098815D01*
X145724463Y-104195506D01*
X145665498Y-104305820D01*
X145629188Y-104425518D01*
X145616928Y-104550000D01*
X145616928Y-106050000D01*
X145629188Y-106174482D01*
X145665498Y-106294180D01*
X145724463Y-106404494D01*
X145803815Y-106501185D01*
X145900506Y-106580537D01*
X146010820Y-106639502D01*
X146130518Y-106675812D01*
X146255000Y-106688072D01*
X146855000Y-106688072D01*
X146979482Y-106675812D01*
X147099180Y-106639502D01*
X147190000Y-106590957D01*
X147280820Y-106639502D01*
X147400518Y-106675812D01*
X147525000Y-106688072D01*
X148090000Y-106688072D01*
X148090000Y-106851939D01*
X148129774Y-107051898D01*
X148207795Y-107240256D01*
X148321063Y-107409774D01*
X148465226Y-107553937D01*
X148634744Y-107667205D01*
X148823102Y-107745226D01*
X149023061Y-107785000D01*
X149226939Y-107785000D01*
X149426898Y-107745226D01*
X149615256Y-107667205D01*
X149750000Y-107577172D01*
X149884744Y-107667205D01*
X150073102Y-107745226D01*
X150273061Y-107785000D01*
X150476939Y-107785000D01*
X150676898Y-107745226D01*
X150865256Y-107667205D01*
X151000000Y-107577172D01*
X151134744Y-107667205D01*
X151323102Y-107745226D01*
X151523061Y-107785000D01*
X151726939Y-107785000D01*
X151926898Y-107745226D01*
X152115256Y-107667205D01*
X152284774Y-107553937D01*
X152428937Y-107409774D01*
X152542205Y-107240256D01*
X152620226Y-107051898D01*
X152660000Y-106851939D01*
X152660000Y-106688072D01*
X153205000Y-106688072D01*
X153329482Y-106675812D01*
X153449180Y-106639502D01*
X153540000Y-106590957D01*
X153630820Y-106639502D01*
X153750518Y-106675812D01*
X153875000Y-106688072D01*
X153889250Y-106685000D01*
X154048000Y-106526250D01*
X154048000Y-105427000D01*
X154028000Y-105427000D01*
X154028000Y-105173000D01*
X154048000Y-105173000D01*
X154048000Y-104073750D01*
X153889250Y-103915000D01*
X153875000Y-103911928D01*
X153795000Y-103919807D01*
X153795000Y-103582196D01*
X153856623Y-103531623D01*
X153965512Y-103398942D01*
X154046423Y-103247567D01*
X154096248Y-103083316D01*
X154113072Y-102912500D01*
X154113072Y-102337500D01*
X154096248Y-102166684D01*
X154046423Y-102002433D01*
X153965512Y-101851058D01*
X153945901Y-101827161D01*
X154005537Y-101754494D01*
X154064502Y-101644180D01*
X154100812Y-101524482D01*
X154113072Y-101400000D01*
X154110000Y-101160750D01*
X153951250Y-101002000D01*
X153127000Y-101002000D01*
X153127000Y-101022000D01*
X152873000Y-101022000D01*
X152873000Y-101002000D01*
X152853000Y-101002000D01*
X152853000Y-100748000D01*
X152873000Y-100748000D01*
X152873000Y-100728000D01*
X153127000Y-100728000D01*
X153127000Y-100748000D01*
X153951250Y-100748000D01*
X154064250Y-100635000D01*
X154435199Y-100635000D01*
X161650000Y-107849802D01*
X161650001Y-121261928D01*
X161560000Y-121261928D01*
X161435518Y-121274188D01*
X161315820Y-121310498D01*
X161205506Y-121369463D01*
X161108815Y-121448815D01*
X161029463Y-121545506D01*
X160970498Y-121655820D01*
X160948487Y-121728380D01*
X160816632Y-121596525D01*
X160630000Y-121471822D01*
X160630000Y-120690725D01*
X160723942Y-120640512D01*
X160856623Y-120531623D01*
X160965512Y-120398942D01*
X161046423Y-120247567D01*
X161096248Y-120083316D01*
X161113072Y-119912500D01*
X161113072Y-119337500D01*
X161096248Y-119166684D01*
X161046423Y-119002433D01*
X160965512Y-118851058D01*
X160882575Y-118750000D01*
X160965512Y-118648942D01*
X161046423Y-118497567D01*
X161096248Y-118333316D01*
X161113072Y-118162500D01*
X161113072Y-117587500D01*
X161096248Y-117416684D01*
X161046423Y-117252433D01*
X160965512Y-117101058D01*
X160856623Y-116968377D01*
X160760000Y-116889080D01*
X160760000Y-116860920D01*
X160856623Y-116781623D01*
X160965512Y-116648942D01*
X161046423Y-116497567D01*
X161096248Y-116333316D01*
X161113072Y-116162500D01*
X161113072Y-115587500D01*
X161096248Y-115416684D01*
X161046423Y-115252433D01*
X160965512Y-115101058D01*
X160945901Y-115077161D01*
X161005537Y-115004494D01*
X161064502Y-114894180D01*
X161100812Y-114774482D01*
X161113072Y-114650000D01*
X161110000Y-114410750D01*
X160951250Y-114252000D01*
X160127000Y-114252000D01*
X160127000Y-114272000D01*
X159873000Y-114272000D01*
X159873000Y-114252000D01*
X159048750Y-114252000D01*
X159000000Y-114300750D01*
X158951250Y-114252000D01*
X158127000Y-114252000D01*
X158127000Y-114272000D01*
X157873000Y-114272000D01*
X157873000Y-114252000D01*
X157853000Y-114252000D01*
X157853000Y-113998000D01*
X157873000Y-113998000D01*
X157873000Y-113123750D01*
X158127000Y-113123750D01*
X158127000Y-113998000D01*
X158951250Y-113998000D01*
X159000000Y-113949250D01*
X159048750Y-113998000D01*
X159873000Y-113998000D01*
X159873000Y-113123750D01*
X160127000Y-113123750D01*
X160127000Y-113998000D01*
X160951250Y-113998000D01*
X161110000Y-113839250D01*
X161113072Y-113600000D01*
X161100812Y-113475518D01*
X161064502Y-113355820D01*
X161005537Y-113245506D01*
X160926185Y-113148815D01*
X160829494Y-113069463D01*
X160719180Y-113010498D01*
X160599482Y-112974188D01*
X160475000Y-112961928D01*
X160285750Y-112965000D01*
X160127000Y-113123750D01*
X159873000Y-113123750D01*
X159714250Y-112965000D01*
X159525000Y-112961928D01*
X159400518Y-112974188D01*
X159280820Y-113010498D01*
X159170506Y-113069463D01*
X159073815Y-113148815D01*
X159000000Y-113238759D01*
X158926185Y-113148815D01*
X158829494Y-113069463D01*
X158719180Y-113010498D01*
X158599482Y-112974188D01*
X158475000Y-112961928D01*
X158285750Y-112965000D01*
X158127000Y-113123750D01*
X157873000Y-113123750D01*
X157714250Y-112965000D01*
X157525000Y-112961928D01*
X157400518Y-112974188D01*
X157374598Y-112982051D01*
X157374003Y-112976014D01*
X157330546Y-112832753D01*
X157259974Y-112700724D01*
X157165001Y-112584999D01*
X157136004Y-112561202D01*
X156313803Y-111739002D01*
X156311829Y-111736597D01*
X156334502Y-111694180D01*
X156370812Y-111574482D01*
X156383072Y-111450000D01*
X156383072Y-111410000D01*
X156812678Y-111410000D01*
X156850000Y-111413676D01*
X156887322Y-111410000D01*
X156887333Y-111410000D01*
X156998986Y-111399003D01*
X157142247Y-111355546D01*
X157274276Y-111284974D01*
X157390001Y-111190001D01*
X157413803Y-111160998D01*
X157991004Y-110583798D01*
X158020001Y-110560001D01*
X158114974Y-110444276D01*
X158185546Y-110312247D01*
X158229003Y-110168986D01*
X158240000Y-110057333D01*
X158240000Y-110057332D01*
X158243677Y-110020000D01*
X158240000Y-109982667D01*
X158240000Y-109877333D01*
X158356623Y-109781623D01*
X158465512Y-109648942D01*
X158546423Y-109497567D01*
X158596248Y-109333316D01*
X158613072Y-109162500D01*
X158613072Y-108587500D01*
X158596248Y-108416684D01*
X158546423Y-108252433D01*
X158465512Y-108101058D01*
X158382575Y-108000000D01*
X158465512Y-107898942D01*
X158546423Y-107747567D01*
X158596248Y-107583316D01*
X158613072Y-107412500D01*
X158613072Y-106837500D01*
X158596248Y-106666684D01*
X158546423Y-106502433D01*
X158465512Y-106351058D01*
X158356623Y-106218377D01*
X158240000Y-106122667D01*
X158240000Y-106017323D01*
X158243676Y-105980000D01*
X158240000Y-105942677D01*
X158240000Y-105942667D01*
X158229003Y-105831014D01*
X158185546Y-105687753D01*
X158132534Y-105588576D01*
X158114974Y-105555723D01*
X158043799Y-105468997D01*
X158020001Y-105439999D01*
X157991004Y-105416202D01*
X157313803Y-104739002D01*
X157290001Y-104709999D01*
X157174276Y-104615026D01*
X157042247Y-104544454D01*
X156898986Y-104500997D01*
X156787333Y-104490000D01*
X156787322Y-104490000D01*
X156750000Y-104486324D01*
X156712678Y-104490000D01*
X156377163Y-104490000D01*
X156370812Y-104425518D01*
X156334502Y-104305820D01*
X156275537Y-104195506D01*
X156196185Y-104098815D01*
X156099494Y-104019463D01*
X155989180Y-103960498D01*
X155869482Y-103924188D01*
X155745000Y-103911928D01*
X155145000Y-103911928D01*
X155020518Y-103924188D01*
X154900820Y-103960498D01*
X154810000Y-104009043D01*
X154719180Y-103960498D01*
X154599482Y-103924188D01*
X154475000Y-103911928D01*
X154460750Y-103915000D01*
X154302000Y-104073750D01*
X154302000Y-105173000D01*
X154322000Y-105173000D01*
X154322000Y-105427000D01*
X154302000Y-105427000D01*
X154302000Y-106526250D01*
X154460750Y-106685000D01*
X154475000Y-106688072D01*
X154599482Y-106675812D01*
X154719180Y-106639502D01*
X154810000Y-106590957D01*
X154900820Y-106639502D01*
X155020518Y-106675812D01*
X155145000Y-106688072D01*
X155745000Y-106688072D01*
X155869482Y-106675812D01*
X155989180Y-106639502D01*
X156099494Y-106580537D01*
X156196185Y-106501185D01*
X156275537Y-106404494D01*
X156334502Y-106294180D01*
X156370812Y-106174482D01*
X156383072Y-106050000D01*
X156383072Y-106010000D01*
X156435199Y-106010000D01*
X156643486Y-106218288D01*
X156643377Y-106218377D01*
X156534488Y-106351058D01*
X156453577Y-106502433D01*
X156403752Y-106666684D01*
X156386928Y-106837500D01*
X156386928Y-107412500D01*
X156403752Y-107583316D01*
X156453577Y-107747567D01*
X156534488Y-107898942D01*
X156617425Y-108000000D01*
X156534488Y-108101058D01*
X156453577Y-108252433D01*
X156403752Y-108416684D01*
X156386928Y-108587500D01*
X156386928Y-109162500D01*
X156403752Y-109333316D01*
X156453577Y-109497567D01*
X156534488Y-109648942D01*
X156643377Y-109781623D01*
X156643486Y-109781712D01*
X156535199Y-109890000D01*
X156377163Y-109890000D01*
X156370812Y-109825518D01*
X156334502Y-109705820D01*
X156275537Y-109595506D01*
X156196185Y-109498815D01*
X156099494Y-109419463D01*
X155989180Y-109360498D01*
X155869482Y-109324188D01*
X155745000Y-109311928D01*
X155145000Y-109311928D01*
X155020518Y-109324188D01*
X154900820Y-109360498D01*
X154810000Y-109409043D01*
X154719180Y-109360498D01*
X154599482Y-109324188D01*
X154475000Y-109311928D01*
X153875000Y-109311928D01*
X153750518Y-109324188D01*
X153630820Y-109360498D01*
X153540000Y-109409043D01*
X153449180Y-109360498D01*
X153329482Y-109324188D01*
X153205000Y-109311928D01*
X152643095Y-109311928D01*
X152660000Y-109226939D01*
X152660000Y-109023061D01*
X152620226Y-108823102D01*
X152542205Y-108634744D01*
X152428937Y-108465226D01*
X152284774Y-108321063D01*
X152115256Y-108207795D01*
X151926898Y-108129774D01*
X151726939Y-108090000D01*
X151523061Y-108090000D01*
X151323102Y-108129774D01*
X151134744Y-108207795D01*
X150965226Y-108321063D01*
X150921289Y-108365000D01*
X149412325Y-108365000D01*
X149375000Y-108361324D01*
X149337675Y-108365000D01*
X149337667Y-108365000D01*
X149226014Y-108375997D01*
X149082753Y-108419454D01*
X148950724Y-108490026D01*
X148834999Y-108584999D01*
X148811196Y-108614003D01*
X148584003Y-108841196D01*
X148554999Y-108864999D01*
X148499871Y-108932174D01*
X148460026Y-108980724D01*
X148389455Y-109112753D01*
X148389454Y-109112754D01*
X148372391Y-109169004D01*
X148365001Y-109159999D01*
X148336003Y-109136201D01*
X143273585Y-104073784D01*
X143354494Y-104030537D01*
X143451185Y-103951185D01*
X143530537Y-103854494D01*
X143589502Y-103744180D01*
X143625812Y-103624482D01*
X143638072Y-103500000D01*
X143638072Y-100350000D01*
X145886928Y-100350000D01*
X145890000Y-100589250D01*
X146048750Y-100748000D01*
X146873000Y-100748000D01*
X146873000Y-99873750D01*
X146714250Y-99715000D01*
X146525000Y-99711928D01*
X146400518Y-99724188D01*
X146280820Y-99760498D01*
X146170506Y-99819463D01*
X146073815Y-99898815D01*
X145994463Y-99995506D01*
X145935498Y-100105820D01*
X145899188Y-100225518D01*
X145886928Y-100350000D01*
X143638072Y-100350000D01*
X143638072Y-99000000D01*
X143625812Y-98875518D01*
X143589502Y-98755820D01*
X143530537Y-98645506D01*
X143451185Y-98548815D01*
X143354494Y-98469463D01*
X143244180Y-98410498D01*
X143124482Y-98374188D01*
X143000000Y-98361928D01*
X141000000Y-98361928D01*
X140875518Y-98374188D01*
X140755820Y-98410498D01*
X140645506Y-98469463D01*
X140548815Y-98548815D01*
X140469463Y-98645506D01*
X140410498Y-98755820D01*
X140374188Y-98875518D01*
X140361928Y-99000000D01*
X140361928Y-103500000D01*
X140374188Y-103624482D01*
X140410498Y-103744180D01*
X140469463Y-103854494D01*
X140548815Y-103951185D01*
X140645506Y-104030537D01*
X140755820Y-104089502D01*
X140875518Y-104125812D01*
X141000000Y-104138072D01*
X141285604Y-104138072D01*
X141290709Y-104154899D01*
X141294454Y-104167246D01*
X141365026Y-104299276D01*
X141404871Y-104347826D01*
X141459999Y-104415001D01*
X141489003Y-104438804D01*
X146362126Y-109311928D01*
X146255000Y-109311928D01*
X146130518Y-109324188D01*
X146010820Y-109360498D01*
X145900506Y-109419463D01*
X145803815Y-109498815D01*
X145724463Y-109595506D01*
X145665498Y-109705820D01*
X145629188Y-109825518D01*
X145617913Y-109940000D01*
X143638072Y-109940000D01*
X143638072Y-107500000D01*
X143625812Y-107375518D01*
X143589502Y-107255820D01*
X143530537Y-107145506D01*
X143451185Y-107048815D01*
X143354494Y-106969463D01*
X143244180Y-106910498D01*
X143124482Y-106874188D01*
X143000000Y-106861928D01*
X141000000Y-106861928D01*
X140875518Y-106874188D01*
X140755820Y-106910498D01*
X140645506Y-106969463D01*
X140548815Y-107048815D01*
X140469463Y-107145506D01*
X140410498Y-107255820D01*
X140374188Y-107375518D01*
X140361928Y-107500000D01*
X140361928Y-112000000D01*
X140374188Y-112124482D01*
X140410498Y-112244180D01*
X140469463Y-112354494D01*
X140548815Y-112451185D01*
X140645506Y-112530537D01*
X140755820Y-112589502D01*
X140875518Y-112625812D01*
X141000000Y-112638072D01*
X143000000Y-112638072D01*
X143124482Y-112625812D01*
X143244180Y-112589502D01*
X143354494Y-112530537D01*
X143451185Y-112451185D01*
X143530537Y-112354494D01*
X143589502Y-112244180D01*
X143625812Y-112124482D01*
X143638072Y-112000000D01*
X143638072Y-111460000D01*
X145617913Y-111460000D01*
X145629188Y-111574482D01*
X145665498Y-111694180D01*
X145724463Y-111804494D01*
X145803815Y-111901185D01*
X145900506Y-111980537D01*
X146010820Y-112039502D01*
X146130518Y-112075812D01*
X146255000Y-112088072D01*
X146855000Y-112088072D01*
X146979482Y-112075812D01*
X147099180Y-112039502D01*
X147190000Y-111990957D01*
X147280820Y-112039502D01*
X147400518Y-112075812D01*
X147525000Y-112088072D01*
X148125000Y-112088072D01*
X148249482Y-112075812D01*
X148369180Y-112039502D01*
X148460000Y-111990957D01*
X148550820Y-112039502D01*
X148670518Y-112075812D01*
X148795000Y-112088072D01*
X149395000Y-112088072D01*
X149519482Y-112075812D01*
X149605000Y-112049870D01*
X149605000Y-112240000D01*
X145037333Y-112240000D01*
X145000000Y-112236323D01*
X144962667Y-112240000D01*
X144851014Y-112250997D01*
X144707753Y-112294454D01*
X144575724Y-112365026D01*
X144459999Y-112459999D01*
X144436201Y-112488997D01*
X142288271Y-114636928D01*
X142087500Y-114636928D01*
X141916684Y-114653752D01*
X141752433Y-114703577D01*
X141601058Y-114784488D01*
X141577161Y-114804099D01*
X141504494Y-114744463D01*
X141394180Y-114685498D01*
X141274482Y-114649188D01*
X141150000Y-114636928D01*
X140910750Y-114640000D01*
X140752000Y-114798750D01*
X140752000Y-115623000D01*
X140772000Y-115623000D01*
X140772000Y-115877000D01*
X140752000Y-115877000D01*
X140752000Y-116701250D01*
X140785750Y-116735000D01*
X140647000Y-116873750D01*
X140647000Y-117748000D01*
X140667000Y-117748000D01*
X140667000Y-118002000D01*
X140647000Y-118002000D01*
X140647000Y-118022000D01*
X140393000Y-118022000D01*
X140393000Y-118002000D01*
X139568750Y-118002000D01*
X139410000Y-118160750D01*
X139406928Y-118400000D01*
X139419188Y-118524482D01*
X139455498Y-118644180D01*
X139514463Y-118754494D01*
X139574099Y-118827161D01*
X139554488Y-118851058D01*
X139473577Y-119002433D01*
X139423752Y-119166684D01*
X139406928Y-119337500D01*
X139406928Y-119912500D01*
X139423752Y-120083316D01*
X139473577Y-120247567D01*
X139554488Y-120398942D01*
X139663377Y-120531623D01*
X139796058Y-120640512D01*
X139947433Y-120721423D01*
X140111684Y-120771248D01*
X140282500Y-120788072D01*
X140757500Y-120788072D01*
X140928316Y-120771248D01*
X141092567Y-120721423D01*
X141243942Y-120640512D01*
X141330001Y-120569885D01*
X141330000Y-121471821D01*
X141143368Y-121596525D01*
X140936525Y-121803368D01*
X140814805Y-121985534D01*
X140745178Y-121868645D01*
X140550269Y-121652412D01*
X140316920Y-121478359D01*
X140054099Y-121353175D01*
X139906890Y-121308524D01*
X139677000Y-121429845D01*
X139677000Y-122623000D01*
X139697000Y-122623000D01*
X139697000Y-122877000D01*
X139677000Y-122877000D01*
X139677000Y-122897000D01*
X139423000Y-122897000D01*
X139423000Y-122877000D01*
X138229186Y-122877000D01*
X138108519Y-123106891D01*
X138205843Y-123381252D01*
X138354822Y-123631355D01*
X138439232Y-123725000D01*
X136733431Y-123725000D01*
X136832793Y-123683843D01*
X137158787Y-123466021D01*
X137436021Y-123188787D01*
X137653843Y-122862793D01*
X137803881Y-122500569D01*
X137825255Y-122393109D01*
X138108519Y-122393109D01*
X138229186Y-122623000D01*
X139423000Y-122623000D01*
X139423000Y-121429845D01*
X139193110Y-121308524D01*
X139045901Y-121353175D01*
X138783080Y-121478359D01*
X138549731Y-121652412D01*
X138354822Y-121868645D01*
X138205843Y-122118748D01*
X138108519Y-122393109D01*
X137825255Y-122393109D01*
X137880369Y-122116034D01*
X137880369Y-121723966D01*
X137803881Y-121339431D01*
X137653843Y-120977207D01*
X137436021Y-120651213D01*
X137158787Y-120373979D01*
X136832793Y-120156157D01*
X136470569Y-120006119D01*
X136086034Y-119929631D01*
X135693966Y-119929631D01*
X135309431Y-120006119D01*
X134947207Y-120156157D01*
X134621213Y-120373979D01*
X134343979Y-120651213D01*
X134126157Y-120977207D01*
X134085000Y-121076569D01*
X134085000Y-117350000D01*
X139406928Y-117350000D01*
X139410000Y-117589250D01*
X139568750Y-117748000D01*
X140393000Y-117748000D01*
X140393000Y-116873750D01*
X140359250Y-116840000D01*
X140498000Y-116701250D01*
X140498000Y-115877000D01*
X139623750Y-115877000D01*
X139465000Y-116035750D01*
X139461928Y-116225000D01*
X139474188Y-116349482D01*
X139510498Y-116469180D01*
X139569463Y-116579494D01*
X139648815Y-116676185D01*
X139745506Y-116755537D01*
X139777804Y-116772801D01*
X139690506Y-116819463D01*
X139593815Y-116898815D01*
X139514463Y-116995506D01*
X139455498Y-117105820D01*
X139419188Y-117225518D01*
X139406928Y-117350000D01*
X134085000Y-117350000D01*
X134085000Y-115275000D01*
X139461928Y-115275000D01*
X139465000Y-115464250D01*
X139623750Y-115623000D01*
X140498000Y-115623000D01*
X140498000Y-114798750D01*
X140339250Y-114640000D01*
X140100000Y-114636928D01*
X139975518Y-114649188D01*
X139855820Y-114685498D01*
X139745506Y-114744463D01*
X139648815Y-114823815D01*
X139569463Y-114920506D01*
X139510498Y-115030820D01*
X139474188Y-115150518D01*
X139461928Y-115275000D01*
X134085000Y-115275000D01*
X134085000Y-99903431D01*
X134126157Y-100002793D01*
X134343979Y-100328787D01*
X134621213Y-100606021D01*
X134947207Y-100823843D01*
X135309431Y-100973881D01*
X135693966Y-101050369D01*
X136086034Y-101050369D01*
X136470569Y-100973881D01*
X136832793Y-100823843D01*
X137158787Y-100606021D01*
X137436021Y-100328787D01*
X137653843Y-100002793D01*
X137803881Y-99640569D01*
X137880369Y-99256034D01*
X137880369Y-98863966D01*
X137803881Y-98479431D01*
X137653843Y-98117207D01*
X137436021Y-97791213D01*
X137158787Y-97513979D01*
X136832793Y-97296157D01*
X136733431Y-97255000D01*
X165526569Y-97255000D01*
X165427207Y-97296157D01*
G37*
X165427207Y-97296157D02*
X165101213Y-97513979D01*
X164823979Y-97791213D01*
X164606157Y-98117207D01*
X164456119Y-98479431D01*
X164379631Y-98863966D01*
X164379631Y-99256034D01*
X164456119Y-99640569D01*
X164606157Y-100002793D01*
X164823979Y-100328787D01*
X165101213Y-100606021D01*
X165427207Y-100823843D01*
X165789431Y-100973881D01*
X166173966Y-101050369D01*
X166566034Y-101050369D01*
X166950569Y-100973881D01*
X167312793Y-100823843D01*
X167638787Y-100606021D01*
X167916021Y-100328787D01*
X168133843Y-100002793D01*
X168175000Y-99903431D01*
X168175001Y-121076571D01*
X168133843Y-120977207D01*
X167916021Y-120651213D01*
X167638787Y-120373979D01*
X167312793Y-120156157D01*
X166950569Y-120006119D01*
X166566034Y-119929631D01*
X166173966Y-119929631D01*
X165789431Y-120006119D01*
X165427207Y-120156157D01*
X165101213Y-120373979D01*
X164823979Y-120651213D01*
X164606157Y-120977207D01*
X164456119Y-121339431D01*
X164379631Y-121723966D01*
X164379631Y-122116034D01*
X164456119Y-122500569D01*
X164606157Y-122862793D01*
X164823979Y-123188787D01*
X165101213Y-123466021D01*
X165427207Y-123683843D01*
X165526569Y-123725000D01*
X163885655Y-123725000D01*
X163885812Y-123724482D01*
X163898072Y-123600000D01*
X163898072Y-121900000D01*
X163885812Y-121775518D01*
X163849502Y-121655820D01*
X163790537Y-121545506D01*
X163711185Y-121448815D01*
X163614494Y-121369463D01*
X163504180Y-121310498D01*
X163384482Y-121274188D01*
X163260000Y-121261928D01*
X163170000Y-121261928D01*
X163170000Y-107572323D01*
X163173676Y-107535000D01*
X163170000Y-107497677D01*
X163170000Y-107497667D01*
X163159003Y-107386014D01*
X163115546Y-107242753D01*
X163044975Y-107110725D01*
X163044974Y-107110723D01*
X162973799Y-107023997D01*
X162950001Y-106994999D01*
X162921004Y-106971202D01*
X155313804Y-99364003D01*
X155290001Y-99334999D01*
X155174276Y-99240026D01*
X155042247Y-99169454D01*
X154898986Y-99125997D01*
X154787333Y-99115000D01*
X154787322Y-99115000D01*
X154750000Y-99111324D01*
X154712678Y-99115000D01*
X152287322Y-99115000D01*
X152249999Y-99111324D01*
X152212676Y-99115000D01*
X152212667Y-99115000D01*
X152101014Y-99125997D01*
X151957753Y-99169454D01*
X151825724Y-99240026D01*
X151709999Y-99334999D01*
X151686200Y-99363998D01*
X151488997Y-99561202D01*
X151460000Y-99584999D01*
X151436202Y-99613997D01*
X151436201Y-99613998D01*
X151365026Y-99700724D01*
X151352959Y-99723300D01*
X151237500Y-99711928D01*
X150762500Y-99711928D01*
X150591684Y-99728752D01*
X150427433Y-99778577D01*
X150276058Y-99859488D01*
X150143377Y-99968377D01*
X150034488Y-100101058D01*
X150027036Y-100115000D01*
X149972964Y-100115000D01*
X149965512Y-100101058D01*
X149856623Y-99968377D01*
X149723942Y-99859488D01*
X149572567Y-99778577D01*
X149408316Y-99728752D01*
X149237500Y-99711928D01*
X148762500Y-99711928D01*
X148591684Y-99728752D01*
X148427433Y-99778577D01*
X148276058Y-99859488D01*
X148143377Y-99968377D01*
X148051122Y-100080789D01*
X148005537Y-99995506D01*
X147926185Y-99898815D01*
X147829494Y-99819463D01*
X147719180Y-99760498D01*
X147599482Y-99724188D01*
X147475000Y-99711928D01*
X147285750Y-99715000D01*
X147127000Y-99873750D01*
X147127000Y-100748000D01*
X147147000Y-100748000D01*
X147147000Y-101002000D01*
X147127000Y-101002000D01*
X147127000Y-101022000D01*
X146873000Y-101022000D01*
X146873000Y-101002000D01*
X146048750Y-101002000D01*
X145890000Y-101160750D01*
X145886928Y-101400000D01*
X145899188Y-101524482D01*
X145935498Y-101644180D01*
X145994463Y-101754494D01*
X146054099Y-101827161D01*
X146034488Y-101851058D01*
X145953577Y-102002433D01*
X145903752Y-102166684D01*
X145886928Y-102337500D01*
X145886928Y-102912500D01*
X145903752Y-103083316D01*
X145953577Y-103247567D01*
X145990000Y-103315711D01*
X145990000Y-103787332D01*
X145990001Y-103787342D01*
X145990001Y-103971626D01*
X145900506Y-104019463D01*
X145803815Y-104098815D01*
X145724463Y-104195506D01*
X145665498Y-104305820D01*
X145629188Y-104425518D01*
X145616928Y-104550000D01*
X145616928Y-106050000D01*
X145629188Y-106174482D01*
X145665498Y-106294180D01*
X145724463Y-106404494D01*
X145803815Y-106501185D01*
X145900506Y-106580537D01*
X146010820Y-106639502D01*
X146130518Y-106675812D01*
X146255000Y-106688072D01*
X146855000Y-106688072D01*
X146979482Y-106675812D01*
X147099180Y-106639502D01*
X147190000Y-106590957D01*
X147280820Y-106639502D01*
X147400518Y-106675812D01*
X147525000Y-106688072D01*
X148090000Y-106688072D01*
X148090000Y-106851939D01*
X148129774Y-107051898D01*
X148207795Y-107240256D01*
X148321063Y-107409774D01*
X148465226Y-107553937D01*
X148634744Y-107667205D01*
X148823102Y-107745226D01*
X149023061Y-107785000D01*
X149226939Y-107785000D01*
X149426898Y-107745226D01*
X149615256Y-107667205D01*
X149750000Y-107577172D01*
X149884744Y-107667205D01*
X150073102Y-107745226D01*
X150273061Y-107785000D01*
X150476939Y-107785000D01*
X150676898Y-107745226D01*
X150865256Y-107667205D01*
X151000000Y-107577172D01*
X151134744Y-107667205D01*
X151323102Y-107745226D01*
X151523061Y-107785000D01*
X151726939Y-107785000D01*
X151926898Y-107745226D01*
X152115256Y-107667205D01*
X152284774Y-107553937D01*
X152428937Y-107409774D01*
X152542205Y-107240256D01*
X152620226Y-107051898D01*
X152660000Y-106851939D01*
X152660000Y-106688072D01*
X153205000Y-106688072D01*
X153329482Y-106675812D01*
X153449180Y-106639502D01*
X153540000Y-106590957D01*
X153630820Y-106639502D01*
X153750518Y-106675812D01*
X153875000Y-106688072D01*
X153889250Y-106685000D01*
X154048000Y-106526250D01*
X154048000Y-105427000D01*
X154028000Y-105427000D01*
X154028000Y-105173000D01*
X154048000Y-105173000D01*
X154048000Y-104073750D01*
X153889250Y-103915000D01*
X153875000Y-103911928D01*
X153795000Y-103919807D01*
X153795000Y-103582196D01*
X153856623Y-103531623D01*
X153965512Y-103398942D01*
X154046423Y-103247567D01*
X154096248Y-103083316D01*
X154113072Y-102912500D01*
X154113072Y-102337500D01*
X154096248Y-102166684D01*
X154046423Y-102002433D01*
X153965512Y-101851058D01*
X153945901Y-101827161D01*
X154005537Y-101754494D01*
X154064502Y-101644180D01*
X154100812Y-101524482D01*
X154113072Y-101400000D01*
X154110000Y-101160750D01*
X153951250Y-101002000D01*
X153127000Y-101002000D01*
X153127000Y-101022000D01*
X152873000Y-101022000D01*
X152873000Y-101002000D01*
X152853000Y-101002000D01*
X152853000Y-100748000D01*
X152873000Y-100748000D01*
X152873000Y-100728000D01*
X153127000Y-100728000D01*
X153127000Y-100748000D01*
X153951250Y-100748000D01*
X154064250Y-100635000D01*
X154435199Y-100635000D01*
X161650000Y-107849802D01*
X161650001Y-121261928D01*
X161560000Y-121261928D01*
X161435518Y-121274188D01*
X161315820Y-121310498D01*
X161205506Y-121369463D01*
X161108815Y-121448815D01*
X161029463Y-121545506D01*
X160970498Y-121655820D01*
X160948487Y-121728380D01*
X160816632Y-121596525D01*
X160630000Y-121471822D01*
X160630000Y-120690725D01*
X160723942Y-120640512D01*
X160856623Y-120531623D01*
X160965512Y-120398942D01*
X161046423Y-120247567D01*
X161096248Y-120083316D01*
X161113072Y-119912500D01*
X161113072Y-119337500D01*
X161096248Y-119166684D01*
X161046423Y-119002433D01*
X160965512Y-118851058D01*
X160882575Y-118750000D01*
X160965512Y-118648942D01*
X161046423Y-118497567D01*
X161096248Y-118333316D01*
X161113072Y-118162500D01*
X161113072Y-117587500D01*
X161096248Y-117416684D01*
X161046423Y-117252433D01*
X160965512Y-117101058D01*
X160856623Y-116968377D01*
X160760000Y-116889080D01*
X160760000Y-116860920D01*
X160856623Y-116781623D01*
X160965512Y-116648942D01*
X161046423Y-116497567D01*
X161096248Y-116333316D01*
X161113072Y-116162500D01*
X161113072Y-115587500D01*
X161096248Y-115416684D01*
X161046423Y-115252433D01*
X160965512Y-115101058D01*
X160945901Y-115077161D01*
X161005537Y-115004494D01*
X161064502Y-114894180D01*
X161100812Y-114774482D01*
X161113072Y-114650000D01*
X161110000Y-114410750D01*
X160951250Y-114252000D01*
X160127000Y-114252000D01*
X160127000Y-114272000D01*
X159873000Y-114272000D01*
X159873000Y-114252000D01*
X159048750Y-114252000D01*
X159000000Y-114300750D01*
X158951250Y-114252000D01*
X158127000Y-114252000D01*
X158127000Y-114272000D01*
X157873000Y-114272000D01*
X157873000Y-114252000D01*
X157853000Y-114252000D01*
X157853000Y-113998000D01*
X157873000Y-113998000D01*
X157873000Y-113123750D01*
X158127000Y-113123750D01*
X158127000Y-113998000D01*
X158951250Y-113998000D01*
X159000000Y-113949250D01*
X159048750Y-113998000D01*
X159873000Y-113998000D01*
X159873000Y-113123750D01*
X160127000Y-113123750D01*
X160127000Y-113998000D01*
X160951250Y-113998000D01*
X161110000Y-113839250D01*
X161113072Y-113600000D01*
X161100812Y-113475518D01*
X161064502Y-113355820D01*
X161005537Y-113245506D01*
X160926185Y-113148815D01*
X160829494Y-113069463D01*
X160719180Y-113010498D01*
X160599482Y-112974188D01*
X160475000Y-112961928D01*
X160285750Y-112965000D01*
X160127000Y-113123750D01*
X159873000Y-113123750D01*
X159714250Y-112965000D01*
X159525000Y-112961928D01*
X159400518Y-112974188D01*
X159280820Y-113010498D01*
X159170506Y-113069463D01*
X159073815Y-113148815D01*
X159000000Y-113238759D01*
X158926185Y-113148815D01*
X158829494Y-113069463D01*
X158719180Y-113010498D01*
X158599482Y-112974188D01*
X158475000Y-112961928D01*
X158285750Y-112965000D01*
X158127000Y-113123750D01*
X157873000Y-113123750D01*
X157714250Y-112965000D01*
X157525000Y-112961928D01*
X157400518Y-112974188D01*
X157374598Y-112982051D01*
X157374003Y-112976014D01*
X157330546Y-112832753D01*
X157259974Y-112700724D01*
X157165001Y-112584999D01*
X157136004Y-112561202D01*
X156313803Y-111739002D01*
X156311829Y-111736597D01*
X156334502Y-111694180D01*
X156370812Y-111574482D01*
X156383072Y-111450000D01*
X156383072Y-111410000D01*
X156812678Y-111410000D01*
X156850000Y-111413676D01*
X156887322Y-111410000D01*
X156887333Y-111410000D01*
X156998986Y-111399003D01*
X157142247Y-111355546D01*
X157274276Y-111284974D01*
X157390001Y-111190001D01*
X157413803Y-111160998D01*
X157991004Y-110583798D01*
X158020001Y-110560001D01*
X158114974Y-110444276D01*
X158185546Y-110312247D01*
X158229003Y-110168986D01*
X158240000Y-110057333D01*
X158240000Y-110057332D01*
X158243677Y-110020000D01*
X158240000Y-109982667D01*
X158240000Y-109877333D01*
X158356623Y-109781623D01*
X158465512Y-109648942D01*
X158546423Y-109497567D01*
X158596248Y-109333316D01*
X158613072Y-109162500D01*
X158613072Y-108587500D01*
X158596248Y-108416684D01*
X158546423Y-108252433D01*
X158465512Y-108101058D01*
X158382575Y-108000000D01*
X158465512Y-107898942D01*
X158546423Y-107747567D01*
X158596248Y-107583316D01*
X158613072Y-107412500D01*
X158613072Y-106837500D01*
X158596248Y-106666684D01*
X158546423Y-106502433D01*
X158465512Y-106351058D01*
X158356623Y-106218377D01*
X158240000Y-106122667D01*
X158240000Y-106017323D01*
X158243676Y-105980000D01*
X158240000Y-105942677D01*
X158240000Y-105942667D01*
X158229003Y-105831014D01*
X158185546Y-105687753D01*
X158132534Y-105588576D01*
X158114974Y-105555723D01*
X158043799Y-105468997D01*
X158020001Y-105439999D01*
X157991004Y-105416202D01*
X157313803Y-104739002D01*
X157290001Y-104709999D01*
X157174276Y-104615026D01*
X157042247Y-104544454D01*
X156898986Y-104500997D01*
X156787333Y-104490000D01*
X156787322Y-104490000D01*
X156750000Y-104486324D01*
X156712678Y-104490000D01*
X156377163Y-104490000D01*
X156370812Y-104425518D01*
X156334502Y-104305820D01*
X156275537Y-104195506D01*
X156196185Y-104098815D01*
X156099494Y-104019463D01*
X155989180Y-103960498D01*
X155869482Y-103924188D01*
X155745000Y-103911928D01*
X155145000Y-103911928D01*
X155020518Y-103924188D01*
X154900820Y-103960498D01*
X154810000Y-104009043D01*
X154719180Y-103960498D01*
X154599482Y-103924188D01*
X154475000Y-103911928D01*
X154460750Y-103915000D01*
X154302000Y-104073750D01*
X154302000Y-105173000D01*
X154322000Y-105173000D01*
X154322000Y-105427000D01*
X154302000Y-105427000D01*
X154302000Y-106526250D01*
X154460750Y-106685000D01*
X154475000Y-106688072D01*
X154599482Y-106675812D01*
X154719180Y-106639502D01*
X154810000Y-106590957D01*
X154900820Y-106639502D01*
X155020518Y-106675812D01*
X155145000Y-106688072D01*
X155745000Y-106688072D01*
X155869482Y-106675812D01*
X155989180Y-106639502D01*
X156099494Y-106580537D01*
X156196185Y-106501185D01*
X156275537Y-106404494D01*
X156334502Y-106294180D01*
X156370812Y-106174482D01*
X156383072Y-106050000D01*
X156383072Y-106010000D01*
X156435199Y-106010000D01*
X156643486Y-106218288D01*
X156643377Y-106218377D01*
X156534488Y-106351058D01*
X156453577Y-106502433D01*
X156403752Y-106666684D01*
X156386928Y-106837500D01*
X156386928Y-107412500D01*
X156403752Y-107583316D01*
X156453577Y-107747567D01*
X156534488Y-107898942D01*
X156617425Y-108000000D01*
X156534488Y-108101058D01*
X156453577Y-108252433D01*
X156403752Y-108416684D01*
X156386928Y-108587500D01*
X156386928Y-109162500D01*
X156403752Y-109333316D01*
X156453577Y-109497567D01*
X156534488Y-109648942D01*
X156643377Y-109781623D01*
X156643486Y-109781712D01*
X156535199Y-109890000D01*
X156377163Y-109890000D01*
X156370812Y-109825518D01*
X156334502Y-109705820D01*
X156275537Y-109595506D01*
X156196185Y-109498815D01*
X156099494Y-109419463D01*
X155989180Y-109360498D01*
X155869482Y-109324188D01*
X155745000Y-109311928D01*
X155145000Y-109311928D01*
X155020518Y-109324188D01*
X154900820Y-109360498D01*
X154810000Y-109409043D01*
X154719180Y-109360498D01*
X154599482Y-109324188D01*
X154475000Y-109311928D01*
X153875000Y-109311928D01*
X153750518Y-109324188D01*
X153630820Y-109360498D01*
X153540000Y-109409043D01*
X153449180Y-109360498D01*
X153329482Y-109324188D01*
X153205000Y-109311928D01*
X152643095Y-109311928D01*
X152660000Y-109226939D01*
X152660000Y-109023061D01*
X152620226Y-108823102D01*
X152542205Y-108634744D01*
X152428937Y-108465226D01*
X152284774Y-108321063D01*
X152115256Y-108207795D01*
X151926898Y-108129774D01*
X151726939Y-108090000D01*
X151523061Y-108090000D01*
X151323102Y-108129774D01*
X151134744Y-108207795D01*
X150965226Y-108321063D01*
X150921289Y-108365000D01*
X149412325Y-108365000D01*
X149375000Y-108361324D01*
X149337675Y-108365000D01*
X149337667Y-108365000D01*
X149226014Y-108375997D01*
X149082753Y-108419454D01*
X148950724Y-108490026D01*
X148834999Y-108584999D01*
X148811196Y-108614003D01*
X148584003Y-108841196D01*
X148554999Y-108864999D01*
X148499871Y-108932174D01*
X148460026Y-108980724D01*
X148389455Y-109112753D01*
X148389454Y-109112754D01*
X148372391Y-109169004D01*
X148365001Y-109159999D01*
X148336003Y-109136201D01*
X143273585Y-104073784D01*
X143354494Y-104030537D01*
X143451185Y-103951185D01*
X143530537Y-103854494D01*
X143589502Y-103744180D01*
X143625812Y-103624482D01*
X143638072Y-103500000D01*
X143638072Y-100350000D01*
X145886928Y-100350000D01*
X145890000Y-100589250D01*
X146048750Y-100748000D01*
X146873000Y-100748000D01*
X146873000Y-99873750D01*
X146714250Y-99715000D01*
X146525000Y-99711928D01*
X146400518Y-99724188D01*
X146280820Y-99760498D01*
X146170506Y-99819463D01*
X146073815Y-99898815D01*
X145994463Y-99995506D01*
X145935498Y-100105820D01*
X145899188Y-100225518D01*
X145886928Y-100350000D01*
X143638072Y-100350000D01*
X143638072Y-99000000D01*
X143625812Y-98875518D01*
X143589502Y-98755820D01*
X143530537Y-98645506D01*
X143451185Y-98548815D01*
X143354494Y-98469463D01*
X143244180Y-98410498D01*
X143124482Y-98374188D01*
X143000000Y-98361928D01*
X141000000Y-98361928D01*
X140875518Y-98374188D01*
X140755820Y-98410498D01*
X140645506Y-98469463D01*
X140548815Y-98548815D01*
X140469463Y-98645506D01*
X140410498Y-98755820D01*
X140374188Y-98875518D01*
X140361928Y-99000000D01*
X140361928Y-103500000D01*
X140374188Y-103624482D01*
X140410498Y-103744180D01*
X140469463Y-103854494D01*
X140548815Y-103951185D01*
X140645506Y-104030537D01*
X140755820Y-104089502D01*
X140875518Y-104125812D01*
X141000000Y-104138072D01*
X141285604Y-104138072D01*
X141290709Y-104154899D01*
X141294454Y-104167246D01*
X141365026Y-104299276D01*
X141404871Y-104347826D01*
X141459999Y-104415001D01*
X141489003Y-104438804D01*
X146362126Y-109311928D01*
X146255000Y-109311928D01*
X146130518Y-109324188D01*
X146010820Y-109360498D01*
X145900506Y-109419463D01*
X145803815Y-109498815D01*
X145724463Y-109595506D01*
X145665498Y-109705820D01*
X145629188Y-109825518D01*
X145617913Y-109940000D01*
X143638072Y-109940000D01*
X143638072Y-107500000D01*
X143625812Y-107375518D01*
X143589502Y-107255820D01*
X143530537Y-107145506D01*
X143451185Y-107048815D01*
X143354494Y-106969463D01*
X143244180Y-106910498D01*
X143124482Y-106874188D01*
X143000000Y-106861928D01*
X141000000Y-106861928D01*
X140875518Y-106874188D01*
X140755820Y-106910498D01*
X140645506Y-106969463D01*
X140548815Y-107048815D01*
X140469463Y-107145506D01*
X140410498Y-107255820D01*
X140374188Y-107375518D01*
X140361928Y-107500000D01*
X140361928Y-112000000D01*
X140374188Y-112124482D01*
X140410498Y-112244180D01*
X140469463Y-112354494D01*
X140548815Y-112451185D01*
X140645506Y-112530537D01*
X140755820Y-112589502D01*
X140875518Y-112625812D01*
X141000000Y-112638072D01*
X143000000Y-112638072D01*
X143124482Y-112625812D01*
X143244180Y-112589502D01*
X143354494Y-112530537D01*
X143451185Y-112451185D01*
X143530537Y-112354494D01*
X143589502Y-112244180D01*
X143625812Y-112124482D01*
X143638072Y-112000000D01*
X143638072Y-111460000D01*
X145617913Y-111460000D01*
X145629188Y-111574482D01*
X145665498Y-111694180D01*
X145724463Y-111804494D01*
X145803815Y-111901185D01*
X145900506Y-111980537D01*
X146010820Y-112039502D01*
X146130518Y-112075812D01*
X146255000Y-112088072D01*
X146855000Y-112088072D01*
X146979482Y-112075812D01*
X147099180Y-112039502D01*
X147190000Y-111990957D01*
X147280820Y-112039502D01*
X147400518Y-112075812D01*
X147525000Y-112088072D01*
X148125000Y-112088072D01*
X148249482Y-112075812D01*
X148369180Y-112039502D01*
X148460000Y-111990957D01*
X148550820Y-112039502D01*
X148670518Y-112075812D01*
X148795000Y-112088072D01*
X149395000Y-112088072D01*
X149519482Y-112075812D01*
X149605000Y-112049870D01*
X149605000Y-112240000D01*
X145037333Y-112240000D01*
X145000000Y-112236323D01*
X144962667Y-112240000D01*
X144851014Y-112250997D01*
X144707753Y-112294454D01*
X144575724Y-112365026D01*
X144459999Y-112459999D01*
X144436201Y-112488997D01*
X142288271Y-114636928D01*
X142087500Y-114636928D01*
X141916684Y-114653752D01*
X141752433Y-114703577D01*
X141601058Y-114784488D01*
X141577161Y-114804099D01*
X141504494Y-114744463D01*
X141394180Y-114685498D01*
X141274482Y-114649188D01*
X141150000Y-114636928D01*
X140910750Y-114640000D01*
X140752000Y-114798750D01*
X140752000Y-115623000D01*
X140772000Y-115623000D01*
X140772000Y-115877000D01*
X140752000Y-115877000D01*
X140752000Y-116701250D01*
X140785750Y-116735000D01*
X140647000Y-116873750D01*
X140647000Y-117748000D01*
X140667000Y-117748000D01*
X140667000Y-118002000D01*
X140647000Y-118002000D01*
X140647000Y-118022000D01*
X140393000Y-118022000D01*
X140393000Y-118002000D01*
X139568750Y-118002000D01*
X139410000Y-118160750D01*
X139406928Y-118400000D01*
X139419188Y-118524482D01*
X139455498Y-118644180D01*
X139514463Y-118754494D01*
X139574099Y-118827161D01*
X139554488Y-118851058D01*
X139473577Y-119002433D01*
X139423752Y-119166684D01*
X139406928Y-119337500D01*
X139406928Y-119912500D01*
X139423752Y-120083316D01*
X139473577Y-120247567D01*
X139554488Y-120398942D01*
X139663377Y-120531623D01*
X139796058Y-120640512D01*
X139947433Y-120721423D01*
X140111684Y-120771248D01*
X140282500Y-120788072D01*
X140757500Y-120788072D01*
X140928316Y-120771248D01*
X141092567Y-120721423D01*
X141243942Y-120640512D01*
X141330001Y-120569885D01*
X141330000Y-121471821D01*
X141143368Y-121596525D01*
X140936525Y-121803368D01*
X140814805Y-121985534D01*
X140745178Y-121868645D01*
X140550269Y-121652412D01*
X140316920Y-121478359D01*
X140054099Y-121353175D01*
X139906890Y-121308524D01*
X139677000Y-121429845D01*
X139677000Y-122623000D01*
X139697000Y-122623000D01*
X139697000Y-122877000D01*
X139677000Y-122877000D01*
X139677000Y-122897000D01*
X139423000Y-122897000D01*
X139423000Y-122877000D01*
X138229186Y-122877000D01*
X138108519Y-123106891D01*
X138205843Y-123381252D01*
X138354822Y-123631355D01*
X138439232Y-123725000D01*
X136733431Y-123725000D01*
X136832793Y-123683843D01*
X137158787Y-123466021D01*
X137436021Y-123188787D01*
X137653843Y-122862793D01*
X137803881Y-122500569D01*
X137825255Y-122393109D01*
X138108519Y-122393109D01*
X138229186Y-122623000D01*
X139423000Y-122623000D01*
X139423000Y-121429845D01*
X139193110Y-121308524D01*
X139045901Y-121353175D01*
X138783080Y-121478359D01*
X138549731Y-121652412D01*
X138354822Y-121868645D01*
X138205843Y-122118748D01*
X138108519Y-122393109D01*
X137825255Y-122393109D01*
X137880369Y-122116034D01*
X137880369Y-121723966D01*
X137803881Y-121339431D01*
X137653843Y-120977207D01*
X137436021Y-120651213D01*
X137158787Y-120373979D01*
X136832793Y-120156157D01*
X136470569Y-120006119D01*
X136086034Y-119929631D01*
X135693966Y-119929631D01*
X135309431Y-120006119D01*
X134947207Y-120156157D01*
X134621213Y-120373979D01*
X134343979Y-120651213D01*
X134126157Y-120977207D01*
X134085000Y-121076569D01*
X134085000Y-117350000D01*
X139406928Y-117350000D01*
X139410000Y-117589250D01*
X139568750Y-117748000D01*
X140393000Y-117748000D01*
X140393000Y-116873750D01*
X140359250Y-116840000D01*
X140498000Y-116701250D01*
X140498000Y-115877000D01*
X139623750Y-115877000D01*
X139465000Y-116035750D01*
X139461928Y-116225000D01*
X139474188Y-116349482D01*
X139510498Y-116469180D01*
X139569463Y-116579494D01*
X139648815Y-116676185D01*
X139745506Y-116755537D01*
X139777804Y-116772801D01*
X139690506Y-116819463D01*
X139593815Y-116898815D01*
X139514463Y-116995506D01*
X139455498Y-117105820D01*
X139419188Y-117225518D01*
X139406928Y-117350000D01*
X134085000Y-117350000D01*
X134085000Y-115275000D01*
X139461928Y-115275000D01*
X139465000Y-115464250D01*
X139623750Y-115623000D01*
X140498000Y-115623000D01*
X140498000Y-114798750D01*
X140339250Y-114640000D01*
X140100000Y-114636928D01*
X139975518Y-114649188D01*
X139855820Y-114685498D01*
X139745506Y-114744463D01*
X139648815Y-114823815D01*
X139569463Y-114920506D01*
X139510498Y-115030820D01*
X139474188Y-115150518D01*
X139461928Y-115275000D01*
X134085000Y-115275000D01*
X134085000Y-99903431D01*
X134126157Y-100002793D01*
X134343979Y-100328787D01*
X134621213Y-100606021D01*
X134947207Y-100823843D01*
X135309431Y-100973881D01*
X135693966Y-101050369D01*
X136086034Y-101050369D01*
X136470569Y-100973881D01*
X136832793Y-100823843D01*
X137158787Y-100606021D01*
X137436021Y-100328787D01*
X137653843Y-100002793D01*
X137803881Y-99640569D01*
X137880369Y-99256034D01*
X137880369Y-98863966D01*
X137803881Y-98479431D01*
X137653843Y-98117207D01*
X137436021Y-97791213D01*
X137158787Y-97513979D01*
X136832793Y-97296157D01*
X136733431Y-97255000D01*
X165526569Y-97255000D01*
X165427207Y-97296157D01*
G36*
X152364999Y-112570001D02*
G01*
X152394002Y-112593803D01*
X153061201Y-113261002D01*
X153084999Y-113290001D01*
X153200724Y-113384974D01*
X153332753Y-113455546D01*
X153476014Y-113499003D01*
X153587667Y-113510000D01*
X153587675Y-113510000D01*
X153625000Y-113513676D01*
X153645630Y-113511644D01*
X153636928Y-113600000D01*
X153640000Y-113839250D01*
X153798750Y-113998000D01*
X154623000Y-113998000D01*
X154623000Y-113978000D01*
X154877000Y-113978000D01*
X154877000Y-113998000D01*
X154897000Y-113998000D01*
X154897000Y-114252000D01*
X154877000Y-114252000D01*
X154877000Y-114272000D01*
X154623000Y-114272000D01*
X154623000Y-114252000D01*
X153798750Y-114252000D01*
X153640000Y-114410750D01*
X153636928Y-114650000D01*
X153649188Y-114774482D01*
X153685498Y-114894180D01*
X153744463Y-115004494D01*
X153804099Y-115077161D01*
X153784488Y-115101058D01*
X153703577Y-115252433D01*
X153653752Y-115416684D01*
X153636928Y-115587500D01*
X153636928Y-116162500D01*
X153653752Y-116333316D01*
X153703577Y-116497567D01*
X153751839Y-116587859D01*
X153715000Y-116773061D01*
X153715000Y-116976939D01*
X153751839Y-117162141D01*
X153703577Y-117252433D01*
X153653752Y-117416684D01*
X153636928Y-117587500D01*
X153636928Y-118162500D01*
X153653752Y-118333316D01*
X153703577Y-118497567D01*
X153784488Y-118648942D01*
X153867425Y-118750000D01*
X153784488Y-118851058D01*
X153703577Y-119002433D01*
X153653752Y-119166684D01*
X153636928Y-119337500D01*
X153636928Y-119912500D01*
X153653752Y-120083316D01*
X153703577Y-120247567D01*
X153779220Y-120389085D01*
X153754774Y-120448102D01*
X153715000Y-120648061D01*
X153715000Y-120851939D01*
X153754774Y-121051898D01*
X153832795Y-121240256D01*
X153946063Y-121409774D01*
X154016878Y-121480589D01*
X153843368Y-121596525D01*
X153636525Y-121803368D01*
X153520000Y-121977760D01*
X153403475Y-121803368D01*
X153196632Y-121596525D01*
X152953411Y-121434010D01*
X152683158Y-121322068D01*
X152396260Y-121265000D01*
X152103740Y-121265000D01*
X151816842Y-121322068D01*
X151546589Y-121434010D01*
X151303368Y-121596525D01*
X151096525Y-121803368D01*
X150980000Y-121977760D01*
X150863475Y-121803368D01*
X150656632Y-121596525D01*
X150413411Y-121434010D01*
X150143158Y-121322068D01*
X149856260Y-121265000D01*
X149563740Y-121265000D01*
X149276842Y-121322068D01*
X149006589Y-121434010D01*
X148763368Y-121596525D01*
X148556525Y-121803368D01*
X148478765Y-121919745D01*
X148424275Y-121875027D01*
X148341954Y-121831024D01*
X148323475Y-121803368D01*
X148116632Y-121596525D01*
X147873411Y-121434010D01*
X147603158Y-121322068D01*
X147316260Y-121265000D01*
X147023740Y-121265000D01*
X146736842Y-121322068D01*
X146466589Y-121434010D01*
X146223368Y-121596525D01*
X146016525Y-121803368D01*
X145900000Y-121977760D01*
X145783475Y-121803368D01*
X145576632Y-121596525D01*
X145390000Y-121471822D01*
X145390000Y-120490953D01*
X145465512Y-120398942D01*
X145472964Y-120385000D01*
X145527036Y-120385000D01*
X145534488Y-120398942D01*
X145643377Y-120531623D01*
X145776058Y-120640512D01*
X145927433Y-120721423D01*
X146091684Y-120771248D01*
X146262500Y-120788072D01*
X146737500Y-120788072D01*
X146908316Y-120771248D01*
X147072567Y-120721423D01*
X147223942Y-120640512D01*
X147356623Y-120531623D01*
X147465512Y-120398942D01*
X147546423Y-120247567D01*
X147596248Y-120083316D01*
X147613072Y-119912500D01*
X147613072Y-119337500D01*
X147596248Y-119166684D01*
X147546423Y-119002433D01*
X147465512Y-118851058D01*
X147445901Y-118827161D01*
X147505537Y-118754494D01*
X147564502Y-118644180D01*
X147600812Y-118524482D01*
X147613072Y-118400000D01*
X147610000Y-118160750D01*
X147451250Y-118002000D01*
X146627000Y-118002000D01*
X146627000Y-118022000D01*
X146373000Y-118022000D01*
X146373000Y-118002000D01*
X146353000Y-118002000D01*
X146353000Y-117748000D01*
X146373000Y-117748000D01*
X146373000Y-116873750D01*
X146224250Y-116725000D01*
X146248000Y-116701250D01*
X146248000Y-115877000D01*
X146502000Y-115877000D01*
X146502000Y-116701250D01*
X146650750Y-116850000D01*
X146627000Y-116873750D01*
X146627000Y-117748000D01*
X147451250Y-117748000D01*
X147610000Y-117589250D01*
X147613072Y-117350000D01*
X147600812Y-117225518D01*
X147564502Y-117105820D01*
X147505537Y-116995506D01*
X147426185Y-116898815D01*
X147329494Y-116819463D01*
X147232196Y-116767456D01*
X147254494Y-116755537D01*
X147351185Y-116676185D01*
X147430537Y-116579494D01*
X147489502Y-116469180D01*
X147525812Y-116349482D01*
X147538072Y-116225000D01*
X147535000Y-116035750D01*
X147376250Y-115877000D01*
X146502000Y-115877000D01*
X146248000Y-115877000D01*
X146228000Y-115877000D01*
X146228000Y-115623000D01*
X146248000Y-115623000D01*
X146248000Y-114798750D01*
X146502000Y-114798750D01*
X146502000Y-115623000D01*
X147376250Y-115623000D01*
X147535000Y-115464250D01*
X147538072Y-115275000D01*
X147525812Y-115150518D01*
X147489502Y-115030820D01*
X147430537Y-114920506D01*
X147351185Y-114823815D01*
X147254494Y-114744463D01*
X147144180Y-114685498D01*
X147024482Y-114649188D01*
X146900000Y-114636928D01*
X146660750Y-114640000D01*
X146502000Y-114798750D01*
X146248000Y-114798750D01*
X146089250Y-114640000D01*
X145850000Y-114636928D01*
X145725518Y-114649188D01*
X145605820Y-114685498D01*
X145495506Y-114744463D01*
X145460000Y-114773602D01*
X145460000Y-114364802D01*
X145564802Y-114260000D01*
X150212678Y-114260000D01*
X150250000Y-114263676D01*
X150287322Y-114260000D01*
X150287333Y-114260000D01*
X150398986Y-114249003D01*
X150542247Y-114205546D01*
X150674276Y-114134974D01*
X150790001Y-114040001D01*
X150813804Y-114010997D01*
X152146004Y-112678798D01*
X152175001Y-112655001D01*
X152269974Y-112539276D01*
X152297509Y-112487763D01*
X152364999Y-112570001D01*
G37*
X152364999Y-112570001D02*
X152394002Y-112593803D01*
X153061201Y-113261002D01*
X153084999Y-113290001D01*
X153200724Y-113384974D01*
X153332753Y-113455546D01*
X153476014Y-113499003D01*
X153587667Y-113510000D01*
X153587675Y-113510000D01*
X153625000Y-113513676D01*
X153645630Y-113511644D01*
X153636928Y-113600000D01*
X153640000Y-113839250D01*
X153798750Y-113998000D01*
X154623000Y-113998000D01*
X154623000Y-113978000D01*
X154877000Y-113978000D01*
X154877000Y-113998000D01*
X154897000Y-113998000D01*
X154897000Y-114252000D01*
X154877000Y-114252000D01*
X154877000Y-114272000D01*
X154623000Y-114272000D01*
X154623000Y-114252000D01*
X153798750Y-114252000D01*
X153640000Y-114410750D01*
X153636928Y-114650000D01*
X153649188Y-114774482D01*
X153685498Y-114894180D01*
X153744463Y-115004494D01*
X153804099Y-115077161D01*
X153784488Y-115101058D01*
X153703577Y-115252433D01*
X153653752Y-115416684D01*
X153636928Y-115587500D01*
X153636928Y-116162500D01*
X153653752Y-116333316D01*
X153703577Y-116497567D01*
X153751839Y-116587859D01*
X153715000Y-116773061D01*
X153715000Y-116976939D01*
X153751839Y-117162141D01*
X153703577Y-117252433D01*
X153653752Y-117416684D01*
X153636928Y-117587500D01*
X153636928Y-118162500D01*
X153653752Y-118333316D01*
X153703577Y-118497567D01*
X153784488Y-118648942D01*
X153867425Y-118750000D01*
X153784488Y-118851058D01*
X153703577Y-119002433D01*
X153653752Y-119166684D01*
X153636928Y-119337500D01*
X153636928Y-119912500D01*
X153653752Y-120083316D01*
X153703577Y-120247567D01*
X153779220Y-120389085D01*
X153754774Y-120448102D01*
X153715000Y-120648061D01*
X153715000Y-120851939D01*
X153754774Y-121051898D01*
X153832795Y-121240256D01*
X153946063Y-121409774D01*
X154016878Y-121480589D01*
X153843368Y-121596525D01*
X153636525Y-121803368D01*
X153520000Y-121977760D01*
X153403475Y-121803368D01*
X153196632Y-121596525D01*
X152953411Y-121434010D01*
X152683158Y-121322068D01*
X152396260Y-121265000D01*
X152103740Y-121265000D01*
X151816842Y-121322068D01*
X151546589Y-121434010D01*
X151303368Y-121596525D01*
X151096525Y-121803368D01*
X150980000Y-121977760D01*
X150863475Y-121803368D01*
X150656632Y-121596525D01*
X150413411Y-121434010D01*
X150143158Y-121322068D01*
X149856260Y-121265000D01*
X149563740Y-121265000D01*
X149276842Y-121322068D01*
X149006589Y-121434010D01*
X148763368Y-121596525D01*
X148556525Y-121803368D01*
X148478765Y-121919745D01*
X148424275Y-121875027D01*
X148341954Y-121831024D01*
X148323475Y-121803368D01*
X148116632Y-121596525D01*
X147873411Y-121434010D01*
X147603158Y-121322068D01*
X147316260Y-121265000D01*
X147023740Y-121265000D01*
X146736842Y-121322068D01*
X146466589Y-121434010D01*
X146223368Y-121596525D01*
X146016525Y-121803368D01*
X145900000Y-121977760D01*
X145783475Y-121803368D01*
X145576632Y-121596525D01*
X145390000Y-121471822D01*
X145390000Y-120490953D01*
X145465512Y-120398942D01*
X145472964Y-120385000D01*
X145527036Y-120385000D01*
X145534488Y-120398942D01*
X145643377Y-120531623D01*
X145776058Y-120640512D01*
X145927433Y-120721423D01*
X146091684Y-120771248D01*
X146262500Y-120788072D01*
X146737500Y-120788072D01*
X146908316Y-120771248D01*
X147072567Y-120721423D01*
X147223942Y-120640512D01*
X147356623Y-120531623D01*
X147465512Y-120398942D01*
X147546423Y-120247567D01*
X147596248Y-120083316D01*
X147613072Y-119912500D01*
X147613072Y-119337500D01*
X147596248Y-119166684D01*
X147546423Y-119002433D01*
X147465512Y-118851058D01*
X147445901Y-118827161D01*
X147505537Y-118754494D01*
X147564502Y-118644180D01*
X147600812Y-118524482D01*
X147613072Y-118400000D01*
X147610000Y-118160750D01*
X147451250Y-118002000D01*
X146627000Y-118002000D01*
X146627000Y-118022000D01*
X146373000Y-118022000D01*
X146373000Y-118002000D01*
X146353000Y-118002000D01*
X146353000Y-117748000D01*
X146373000Y-117748000D01*
X146373000Y-116873750D01*
X146224250Y-116725000D01*
X146248000Y-116701250D01*
X146248000Y-115877000D01*
X146502000Y-115877000D01*
X146502000Y-116701250D01*
X146650750Y-116850000D01*
X146627000Y-116873750D01*
X146627000Y-117748000D01*
X147451250Y-117748000D01*
X147610000Y-117589250D01*
X147613072Y-117350000D01*
X147600812Y-117225518D01*
X147564502Y-117105820D01*
X147505537Y-116995506D01*
X147426185Y-116898815D01*
X147329494Y-116819463D01*
X147232196Y-116767456D01*
X147254494Y-116755537D01*
X147351185Y-116676185D01*
X147430537Y-116579494D01*
X147489502Y-116469180D01*
X147525812Y-116349482D01*
X147538072Y-116225000D01*
X147535000Y-116035750D01*
X147376250Y-115877000D01*
X146502000Y-115877000D01*
X146248000Y-115877000D01*
X146228000Y-115877000D01*
X146228000Y-115623000D01*
X146248000Y-115623000D01*
X146248000Y-114798750D01*
X146502000Y-114798750D01*
X146502000Y-115623000D01*
X147376250Y-115623000D01*
X147535000Y-115464250D01*
X147538072Y-115275000D01*
X147525812Y-115150518D01*
X147489502Y-115030820D01*
X147430537Y-114920506D01*
X147351185Y-114823815D01*
X147254494Y-114744463D01*
X147144180Y-114685498D01*
X147024482Y-114649188D01*
X146900000Y-114636928D01*
X146660750Y-114640000D01*
X146502000Y-114798750D01*
X146248000Y-114798750D01*
X146089250Y-114640000D01*
X145850000Y-114636928D01*
X145725518Y-114649188D01*
X145605820Y-114685498D01*
X145495506Y-114744463D01*
X145460000Y-114773602D01*
X145460000Y-114364802D01*
X145564802Y-114260000D01*
X150212678Y-114260000D01*
X150250000Y-114263676D01*
X150287322Y-114260000D01*
X150287333Y-114260000D01*
X150398986Y-114249003D01*
X150542247Y-114205546D01*
X150674276Y-114134974D01*
X150790001Y-114040001D01*
X150813804Y-114010997D01*
X152146004Y-112678798D01*
X152175001Y-112655001D01*
X152269974Y-112539276D01*
X152297509Y-112487763D01*
X152364999Y-112570001D01*
M02*
