M48
; DRILL file {KiCad (5.1.6)-1} date 06/13/20 20:50:16
; FORMAT={-:-/ absolute / metric / decimal}
; #@! TF.CreationDate,2020-06-13T20:50:16+02:00
; #@! TF.GenerationSoftware,Kicad,Pcbnew,(5.1.6)-1
; #@! TF.FileFunction,Plated,1,2,PTH
FMAT,2
METRIC
T1C0.400
T2C1.000
%
G90
G05
T1
X134.62Y-101.6
X134.62Y-104.14
X134.62Y-106.68
X134.62Y-109.22
X134.62Y-111.76
X134.62Y-114.3
X134.62Y-116.84
X134.62Y-119.38
X137.16Y-104.14
X137.16Y-109.22
X137.16Y-114.3
X137.16Y-119.38
X138.43Y-97.79
X139.7Y-101.6
X139.7Y-106.68
X139.7Y-111.76
X139.7Y-116.84
X142.24Y-114.3
X144.78Y-97.79
X144.78Y-101.6
X147.32Y-99.06
X147.32Y-116.84
X149.125Y-106.75
X150.375Y-106.75
X151.13Y-97.79
X151.625Y-106.75
X151.625Y-109.125
X152.4Y-114.3
X152.4Y-119.38
X154.75Y-116.875
X154.75Y-120.75
X154.94Y-101.6
X157.48Y-97.79
X157.48Y-99.06
X157.48Y-104.14
X160.02Y-101.6
X160.02Y-106.68
X160.02Y-111.76
X162.56Y-99.06
X162.56Y-104.14
X163.83Y-97.79
X165.1Y-101.6
X165.1Y-106.68
X165.1Y-111.76
X165.1Y-116.84
X167.64Y-101.6
X167.64Y-104.14
X167.64Y-106.68
X167.64Y-109.22
X167.64Y-111.76
X167.64Y-114.3
X167.64Y-116.84
X167.64Y-119.38
T2
X139.55Y-122.75
X142.09Y-122.75
X144.63Y-122.75
X147.17Y-122.75
X149.71Y-122.75
X152.25Y-122.75
X154.79Y-122.75
X157.33Y-122.75
X159.87Y-122.75
X162.41Y-122.75
T0
M30
