G04 #@! TF.GenerationSoftware,KiCad,Pcbnew,(5.1.6)-1*
G04 #@! TF.CreationDate,2020-06-13T20:50:13+02:00*
G04 #@! TF.ProjectId,CS5490_Breakout,43533534-3930-45f4-9272-65616b6f7574,rev?*
G04 #@! TF.SameCoordinates,Original*
G04 #@! TF.FileFunction,Copper,L2,Bot*
G04 #@! TF.FilePolarity,Positive*
%FSLAX46Y46*%
G04 Gerber Fmt 4.6, Leading zero omitted, Abs format (unit mm)*
G04 Created by KiCad (PCBNEW (5.1.6)-1) date 2020-06-13 20:50:13*
%MOMM*%
%LPD*%
G01*
G04 APERTURE LIST*
G04 #@! TA.AperFunction,ComponentPad*
%ADD10R,1.700000X1.700000*%
G04 #@! TD*
G04 #@! TA.AperFunction,ComponentPad*
%ADD11O,1.700000X1.700000*%
G04 #@! TD*
G04 #@! TA.AperFunction,ViaPad*
%ADD12C,0.800000*%
G04 #@! TD*
G04 #@! TA.AperFunction,Conductor*
%ADD13C,0.250000*%
G04 #@! TD*
G04 #@! TA.AperFunction,Conductor*
%ADD14C,0.254000*%
G04 #@! TD*
G04 APERTURE END LIST*
D10*
X162410000Y-122750000D03*
D11*
X159870000Y-122750000D03*
X157330000Y-122750000D03*
X154790000Y-122750000D03*
X152250000Y-122750000D03*
X149710000Y-122750000D03*
X147170000Y-122750000D03*
X144630000Y-122750000D03*
X142090000Y-122750000D03*
X139550000Y-122750000D03*
D12*
X167640000Y-119380000D03*
X167640000Y-109220000D03*
X167640000Y-104140000D03*
X134620000Y-101600000D03*
X134620000Y-106680000D03*
X134620000Y-111760000D03*
X134620000Y-116840000D03*
X163830000Y-97790000D03*
X157480000Y-97790000D03*
X151130000Y-97790000D03*
X144780000Y-97790000D03*
X138430000Y-97790000D03*
X160020000Y-101600000D03*
X162560000Y-104140000D03*
X165100000Y-106680000D03*
X165100000Y-111760000D03*
X165100000Y-116840000D03*
X157480000Y-99060000D03*
X165100000Y-101600000D03*
X162560000Y-99060000D03*
X160020000Y-111760000D03*
X160020000Y-106680000D03*
X157480000Y-104140000D03*
X154940000Y-101600000D03*
X147320000Y-99060000D03*
X144780000Y-101600000D03*
X139700000Y-106680000D03*
X137160000Y-109220000D03*
X137160000Y-114300000D03*
X137160000Y-119380000D03*
X139700000Y-111760000D03*
X137160000Y-104140000D03*
X139700000Y-101600000D03*
X142240000Y-114300000D03*
X139700000Y-116840000D03*
X147320000Y-116840000D03*
X167640000Y-114300000D03*
X152400000Y-119380000D03*
X152400000Y-114300000D03*
X167640000Y-116840000D03*
X167640000Y-111760000D03*
X167640000Y-106680000D03*
X167640000Y-101600000D03*
X134620000Y-119380000D03*
X134620000Y-114300000D03*
X134620000Y-109220000D03*
X134620000Y-104140000D03*
X154750000Y-120750000D03*
X150375000Y-106750000D03*
X149125000Y-106750000D03*
X151625000Y-106750000D03*
X151625000Y-109125000D03*
X154750000Y-116875000D03*
D13*
X160910000Y-121250000D02*
X162410000Y-122750000D01*
X154750000Y-120750000D02*
X155250000Y-121250000D01*
X155250000Y-121250000D02*
X160910000Y-121250000D01*
X149860000Y-123190000D02*
X150000000Y-123050000D01*
X149750000Y-122710000D02*
X149710000Y-122750000D01*
X150500000Y-106750000D02*
X149750000Y-107500000D01*
X149750000Y-107500000D02*
X149750000Y-122710000D01*
X149000000Y-107000000D02*
X149000000Y-106750000D01*
X149250000Y-120670000D02*
X147170000Y-122750000D01*
X149000000Y-106750000D02*
X149250000Y-107000000D01*
X149250000Y-107000000D02*
X149250000Y-120670000D01*
X150250000Y-120750000D02*
X152250000Y-122750000D01*
X151750000Y-106750000D02*
X150250000Y-108250000D01*
X150250000Y-108250000D02*
X150250000Y-120750000D01*
X152250000Y-116875000D02*
X154750000Y-116875000D01*
X151625000Y-109125000D02*
X150750000Y-110000000D01*
X150750000Y-115375000D02*
X152250000Y-116875000D01*
X150750000Y-110000000D02*
X150750000Y-115375000D01*
D14*
G36*
X165427207Y-97296157D02*
G01*
X165101213Y-97513979D01*
X164823979Y-97791213D01*
X164606157Y-98117207D01*
X164456119Y-98479431D01*
X164379631Y-98863966D01*
X164379631Y-99256034D01*
X164456119Y-99640569D01*
X164606157Y-100002793D01*
X164823979Y-100328787D01*
X165101213Y-100606021D01*
X165427207Y-100823843D01*
X165789431Y-100973881D01*
X166173966Y-101050369D01*
X166566034Y-101050369D01*
X166950569Y-100973881D01*
X167312793Y-100823843D01*
X167638787Y-100606021D01*
X167916021Y-100328787D01*
X168133843Y-100002793D01*
X168175000Y-99903431D01*
X168175001Y-121076571D01*
X168133843Y-120977207D01*
X167916021Y-120651213D01*
X167638787Y-120373979D01*
X167312793Y-120156157D01*
X166950569Y-120006119D01*
X166566034Y-119929631D01*
X166173966Y-119929631D01*
X165789431Y-120006119D01*
X165427207Y-120156157D01*
X165101213Y-120373979D01*
X164823979Y-120651213D01*
X164606157Y-120977207D01*
X164456119Y-121339431D01*
X164379631Y-121723966D01*
X164379631Y-122116034D01*
X164456119Y-122500569D01*
X164606157Y-122862793D01*
X164823979Y-123188787D01*
X165101213Y-123466021D01*
X165427207Y-123683843D01*
X165526569Y-123725000D01*
X163885655Y-123725000D01*
X163885812Y-123724482D01*
X163898072Y-123600000D01*
X163898072Y-121900000D01*
X163885812Y-121775518D01*
X163849502Y-121655820D01*
X163790537Y-121545506D01*
X163711185Y-121448815D01*
X163614494Y-121369463D01*
X163504180Y-121310498D01*
X163384482Y-121274188D01*
X163260000Y-121261928D01*
X161996729Y-121261928D01*
X161473804Y-120739003D01*
X161450001Y-120709999D01*
X161334276Y-120615026D01*
X161202247Y-120544454D01*
X161058986Y-120500997D01*
X160947333Y-120490000D01*
X160947322Y-120490000D01*
X160910000Y-120486324D01*
X160872678Y-120490000D01*
X155753560Y-120490000D01*
X155745226Y-120448102D01*
X155667205Y-120259744D01*
X155553937Y-120090226D01*
X155409774Y-119946063D01*
X155240256Y-119832795D01*
X155051898Y-119754774D01*
X154851939Y-119715000D01*
X154648061Y-119715000D01*
X154448102Y-119754774D01*
X154259744Y-119832795D01*
X154090226Y-119946063D01*
X153946063Y-120090226D01*
X153832795Y-120259744D01*
X153754774Y-120448102D01*
X153715000Y-120648061D01*
X153715000Y-120851939D01*
X153754774Y-121051898D01*
X153832795Y-121240256D01*
X153946063Y-121409774D01*
X154016878Y-121480589D01*
X153843368Y-121596525D01*
X153636525Y-121803368D01*
X153520000Y-121977760D01*
X153403475Y-121803368D01*
X153196632Y-121596525D01*
X152953411Y-121434010D01*
X152683158Y-121322068D01*
X152396260Y-121265000D01*
X152103740Y-121265000D01*
X151883592Y-121308790D01*
X151010000Y-120435199D01*
X151010000Y-116709802D01*
X151686201Y-117386003D01*
X151709999Y-117415001D01*
X151825724Y-117509974D01*
X151957753Y-117580546D01*
X152101014Y-117624003D01*
X152212667Y-117635000D01*
X152212676Y-117635000D01*
X152249999Y-117638676D01*
X152287322Y-117635000D01*
X154046289Y-117635000D01*
X154090226Y-117678937D01*
X154259744Y-117792205D01*
X154448102Y-117870226D01*
X154648061Y-117910000D01*
X154851939Y-117910000D01*
X155051898Y-117870226D01*
X155240256Y-117792205D01*
X155409774Y-117678937D01*
X155553937Y-117534774D01*
X155667205Y-117365256D01*
X155745226Y-117176898D01*
X155785000Y-116976939D01*
X155785000Y-116773061D01*
X155745226Y-116573102D01*
X155667205Y-116384744D01*
X155553937Y-116215226D01*
X155409774Y-116071063D01*
X155240256Y-115957795D01*
X155051898Y-115879774D01*
X154851939Y-115840000D01*
X154648061Y-115840000D01*
X154448102Y-115879774D01*
X154259744Y-115957795D01*
X154090226Y-116071063D01*
X154046289Y-116115000D01*
X152564802Y-116115000D01*
X151510000Y-115060199D01*
X151510000Y-110314801D01*
X151664801Y-110160000D01*
X151726939Y-110160000D01*
X151926898Y-110120226D01*
X152115256Y-110042205D01*
X152284774Y-109928937D01*
X152428937Y-109784774D01*
X152542205Y-109615256D01*
X152620226Y-109426898D01*
X152660000Y-109226939D01*
X152660000Y-109023061D01*
X152620226Y-108823102D01*
X152542205Y-108634744D01*
X152428937Y-108465226D01*
X152284774Y-108321063D01*
X152115256Y-108207795D01*
X151926898Y-108129774D01*
X151726939Y-108090000D01*
X151523061Y-108090000D01*
X151475302Y-108099500D01*
X151805410Y-107769391D01*
X151926898Y-107745226D01*
X152115256Y-107667205D01*
X152284774Y-107553937D01*
X152428937Y-107409774D01*
X152542205Y-107240256D01*
X152620226Y-107051898D01*
X152660000Y-106851939D01*
X152660000Y-106648061D01*
X152620226Y-106448102D01*
X152542205Y-106259744D01*
X152428937Y-106090226D01*
X152284774Y-105946063D01*
X152115256Y-105832795D01*
X151926898Y-105754774D01*
X151726939Y-105715000D01*
X151523061Y-105715000D01*
X151323102Y-105754774D01*
X151134744Y-105832795D01*
X151000000Y-105922828D01*
X150865256Y-105832795D01*
X150676898Y-105754774D01*
X150476939Y-105715000D01*
X150273061Y-105715000D01*
X150073102Y-105754774D01*
X149884744Y-105832795D01*
X149750000Y-105922828D01*
X149615256Y-105832795D01*
X149426898Y-105754774D01*
X149226939Y-105715000D01*
X149023061Y-105715000D01*
X148823102Y-105754774D01*
X148634744Y-105832795D01*
X148465226Y-105946063D01*
X148321063Y-106090226D01*
X148207795Y-106259744D01*
X148129774Y-106448102D01*
X148090000Y-106648061D01*
X148090000Y-106851939D01*
X148129774Y-107051898D01*
X148207795Y-107240256D01*
X148321063Y-107409774D01*
X148465226Y-107553937D01*
X148490000Y-107570490D01*
X148490001Y-120355197D01*
X147536408Y-121308791D01*
X147316260Y-121265000D01*
X147023740Y-121265000D01*
X146736842Y-121322068D01*
X146466589Y-121434010D01*
X146223368Y-121596525D01*
X146016525Y-121803368D01*
X145900000Y-121977760D01*
X145783475Y-121803368D01*
X145576632Y-121596525D01*
X145333411Y-121434010D01*
X145063158Y-121322068D01*
X144776260Y-121265000D01*
X144483740Y-121265000D01*
X144196842Y-121322068D01*
X143926589Y-121434010D01*
X143683368Y-121596525D01*
X143476525Y-121803368D01*
X143360000Y-121977760D01*
X143243475Y-121803368D01*
X143036632Y-121596525D01*
X142793411Y-121434010D01*
X142523158Y-121322068D01*
X142236260Y-121265000D01*
X141943740Y-121265000D01*
X141656842Y-121322068D01*
X141386589Y-121434010D01*
X141143368Y-121596525D01*
X140936525Y-121803368D01*
X140814805Y-121985534D01*
X140745178Y-121868645D01*
X140550269Y-121652412D01*
X140316920Y-121478359D01*
X140054099Y-121353175D01*
X139906890Y-121308524D01*
X139677000Y-121429845D01*
X139677000Y-122623000D01*
X139697000Y-122623000D01*
X139697000Y-122877000D01*
X139677000Y-122877000D01*
X139677000Y-122897000D01*
X139423000Y-122897000D01*
X139423000Y-122877000D01*
X138229186Y-122877000D01*
X138108519Y-123106891D01*
X138205843Y-123381252D01*
X138354822Y-123631355D01*
X138439232Y-123725000D01*
X136733431Y-123725000D01*
X136832793Y-123683843D01*
X137158787Y-123466021D01*
X137436021Y-123188787D01*
X137653843Y-122862793D01*
X137803881Y-122500569D01*
X137825255Y-122393109D01*
X138108519Y-122393109D01*
X138229186Y-122623000D01*
X139423000Y-122623000D01*
X139423000Y-121429845D01*
X139193110Y-121308524D01*
X139045901Y-121353175D01*
X138783080Y-121478359D01*
X138549731Y-121652412D01*
X138354822Y-121868645D01*
X138205843Y-122118748D01*
X138108519Y-122393109D01*
X137825255Y-122393109D01*
X137880369Y-122116034D01*
X137880369Y-121723966D01*
X137803881Y-121339431D01*
X137653843Y-120977207D01*
X137436021Y-120651213D01*
X137158787Y-120373979D01*
X136832793Y-120156157D01*
X136470569Y-120006119D01*
X136086034Y-119929631D01*
X135693966Y-119929631D01*
X135309431Y-120006119D01*
X134947207Y-120156157D01*
X134621213Y-120373979D01*
X134343979Y-120651213D01*
X134126157Y-120977207D01*
X134085000Y-121076569D01*
X134085000Y-99903431D01*
X134126157Y-100002793D01*
X134343979Y-100328787D01*
X134621213Y-100606021D01*
X134947207Y-100823843D01*
X135309431Y-100973881D01*
X135693966Y-101050369D01*
X136086034Y-101050369D01*
X136470569Y-100973881D01*
X136832793Y-100823843D01*
X137158787Y-100606021D01*
X137436021Y-100328787D01*
X137653843Y-100002793D01*
X137803881Y-99640569D01*
X137880369Y-99256034D01*
X137880369Y-98863966D01*
X137803881Y-98479431D01*
X137653843Y-98117207D01*
X137436021Y-97791213D01*
X137158787Y-97513979D01*
X136832793Y-97296157D01*
X136733431Y-97255000D01*
X165526569Y-97255000D01*
X165427207Y-97296157D01*
G37*
X165427207Y-97296157D02*
X165101213Y-97513979D01*
X164823979Y-97791213D01*
X164606157Y-98117207D01*
X164456119Y-98479431D01*
X164379631Y-98863966D01*
X164379631Y-99256034D01*
X164456119Y-99640569D01*
X164606157Y-100002793D01*
X164823979Y-100328787D01*
X165101213Y-100606021D01*
X165427207Y-100823843D01*
X165789431Y-100973881D01*
X166173966Y-101050369D01*
X166566034Y-101050369D01*
X166950569Y-100973881D01*
X167312793Y-100823843D01*
X167638787Y-100606021D01*
X167916021Y-100328787D01*
X168133843Y-100002793D01*
X168175000Y-99903431D01*
X168175001Y-121076571D01*
X168133843Y-120977207D01*
X167916021Y-120651213D01*
X167638787Y-120373979D01*
X167312793Y-120156157D01*
X166950569Y-120006119D01*
X166566034Y-119929631D01*
X166173966Y-119929631D01*
X165789431Y-120006119D01*
X165427207Y-120156157D01*
X165101213Y-120373979D01*
X164823979Y-120651213D01*
X164606157Y-120977207D01*
X164456119Y-121339431D01*
X164379631Y-121723966D01*
X164379631Y-122116034D01*
X164456119Y-122500569D01*
X164606157Y-122862793D01*
X164823979Y-123188787D01*
X165101213Y-123466021D01*
X165427207Y-123683843D01*
X165526569Y-123725000D01*
X163885655Y-123725000D01*
X163885812Y-123724482D01*
X163898072Y-123600000D01*
X163898072Y-121900000D01*
X163885812Y-121775518D01*
X163849502Y-121655820D01*
X163790537Y-121545506D01*
X163711185Y-121448815D01*
X163614494Y-121369463D01*
X163504180Y-121310498D01*
X163384482Y-121274188D01*
X163260000Y-121261928D01*
X161996729Y-121261928D01*
X161473804Y-120739003D01*
X161450001Y-120709999D01*
X161334276Y-120615026D01*
X161202247Y-120544454D01*
X161058986Y-120500997D01*
X160947333Y-120490000D01*
X160947322Y-120490000D01*
X160910000Y-120486324D01*
X160872678Y-120490000D01*
X155753560Y-120490000D01*
X155745226Y-120448102D01*
X155667205Y-120259744D01*
X155553937Y-120090226D01*
X155409774Y-119946063D01*
X155240256Y-119832795D01*
X155051898Y-119754774D01*
X154851939Y-119715000D01*
X154648061Y-119715000D01*
X154448102Y-119754774D01*
X154259744Y-119832795D01*
X154090226Y-119946063D01*
X153946063Y-120090226D01*
X153832795Y-120259744D01*
X153754774Y-120448102D01*
X153715000Y-120648061D01*
X153715000Y-120851939D01*
X153754774Y-121051898D01*
X153832795Y-121240256D01*
X153946063Y-121409774D01*
X154016878Y-121480589D01*
X153843368Y-121596525D01*
X153636525Y-121803368D01*
X153520000Y-121977760D01*
X153403475Y-121803368D01*
X153196632Y-121596525D01*
X152953411Y-121434010D01*
X152683158Y-121322068D01*
X152396260Y-121265000D01*
X152103740Y-121265000D01*
X151883592Y-121308790D01*
X151010000Y-120435199D01*
X151010000Y-116709802D01*
X151686201Y-117386003D01*
X151709999Y-117415001D01*
X151825724Y-117509974D01*
X151957753Y-117580546D01*
X152101014Y-117624003D01*
X152212667Y-117635000D01*
X152212676Y-117635000D01*
X152249999Y-117638676D01*
X152287322Y-117635000D01*
X154046289Y-117635000D01*
X154090226Y-117678937D01*
X154259744Y-117792205D01*
X154448102Y-117870226D01*
X154648061Y-117910000D01*
X154851939Y-117910000D01*
X155051898Y-117870226D01*
X155240256Y-117792205D01*
X155409774Y-117678937D01*
X155553937Y-117534774D01*
X155667205Y-117365256D01*
X155745226Y-117176898D01*
X155785000Y-116976939D01*
X155785000Y-116773061D01*
X155745226Y-116573102D01*
X155667205Y-116384744D01*
X155553937Y-116215226D01*
X155409774Y-116071063D01*
X155240256Y-115957795D01*
X155051898Y-115879774D01*
X154851939Y-115840000D01*
X154648061Y-115840000D01*
X154448102Y-115879774D01*
X154259744Y-115957795D01*
X154090226Y-116071063D01*
X154046289Y-116115000D01*
X152564802Y-116115000D01*
X151510000Y-115060199D01*
X151510000Y-110314801D01*
X151664801Y-110160000D01*
X151726939Y-110160000D01*
X151926898Y-110120226D01*
X152115256Y-110042205D01*
X152284774Y-109928937D01*
X152428937Y-109784774D01*
X152542205Y-109615256D01*
X152620226Y-109426898D01*
X152660000Y-109226939D01*
X152660000Y-109023061D01*
X152620226Y-108823102D01*
X152542205Y-108634744D01*
X152428937Y-108465226D01*
X152284774Y-108321063D01*
X152115256Y-108207795D01*
X151926898Y-108129774D01*
X151726939Y-108090000D01*
X151523061Y-108090000D01*
X151475302Y-108099500D01*
X151805410Y-107769391D01*
X151926898Y-107745226D01*
X152115256Y-107667205D01*
X152284774Y-107553937D01*
X152428937Y-107409774D01*
X152542205Y-107240256D01*
X152620226Y-107051898D01*
X152660000Y-106851939D01*
X152660000Y-106648061D01*
X152620226Y-106448102D01*
X152542205Y-106259744D01*
X152428937Y-106090226D01*
X152284774Y-105946063D01*
X152115256Y-105832795D01*
X151926898Y-105754774D01*
X151726939Y-105715000D01*
X151523061Y-105715000D01*
X151323102Y-105754774D01*
X151134744Y-105832795D01*
X151000000Y-105922828D01*
X150865256Y-105832795D01*
X150676898Y-105754774D01*
X150476939Y-105715000D01*
X150273061Y-105715000D01*
X150073102Y-105754774D01*
X149884744Y-105832795D01*
X149750000Y-105922828D01*
X149615256Y-105832795D01*
X149426898Y-105754774D01*
X149226939Y-105715000D01*
X149023061Y-105715000D01*
X148823102Y-105754774D01*
X148634744Y-105832795D01*
X148465226Y-105946063D01*
X148321063Y-106090226D01*
X148207795Y-106259744D01*
X148129774Y-106448102D01*
X148090000Y-106648061D01*
X148090000Y-106851939D01*
X148129774Y-107051898D01*
X148207795Y-107240256D01*
X148321063Y-107409774D01*
X148465226Y-107553937D01*
X148490000Y-107570490D01*
X148490001Y-120355197D01*
X147536408Y-121308791D01*
X147316260Y-121265000D01*
X147023740Y-121265000D01*
X146736842Y-121322068D01*
X146466589Y-121434010D01*
X146223368Y-121596525D01*
X146016525Y-121803368D01*
X145900000Y-121977760D01*
X145783475Y-121803368D01*
X145576632Y-121596525D01*
X145333411Y-121434010D01*
X145063158Y-121322068D01*
X144776260Y-121265000D01*
X144483740Y-121265000D01*
X144196842Y-121322068D01*
X143926589Y-121434010D01*
X143683368Y-121596525D01*
X143476525Y-121803368D01*
X143360000Y-121977760D01*
X143243475Y-121803368D01*
X143036632Y-121596525D01*
X142793411Y-121434010D01*
X142523158Y-121322068D01*
X142236260Y-121265000D01*
X141943740Y-121265000D01*
X141656842Y-121322068D01*
X141386589Y-121434010D01*
X141143368Y-121596525D01*
X140936525Y-121803368D01*
X140814805Y-121985534D01*
X140745178Y-121868645D01*
X140550269Y-121652412D01*
X140316920Y-121478359D01*
X140054099Y-121353175D01*
X139906890Y-121308524D01*
X139677000Y-121429845D01*
X139677000Y-122623000D01*
X139697000Y-122623000D01*
X139697000Y-122877000D01*
X139677000Y-122877000D01*
X139677000Y-122897000D01*
X139423000Y-122897000D01*
X139423000Y-122877000D01*
X138229186Y-122877000D01*
X138108519Y-123106891D01*
X138205843Y-123381252D01*
X138354822Y-123631355D01*
X138439232Y-123725000D01*
X136733431Y-123725000D01*
X136832793Y-123683843D01*
X137158787Y-123466021D01*
X137436021Y-123188787D01*
X137653843Y-122862793D01*
X137803881Y-122500569D01*
X137825255Y-122393109D01*
X138108519Y-122393109D01*
X138229186Y-122623000D01*
X139423000Y-122623000D01*
X139423000Y-121429845D01*
X139193110Y-121308524D01*
X139045901Y-121353175D01*
X138783080Y-121478359D01*
X138549731Y-121652412D01*
X138354822Y-121868645D01*
X138205843Y-122118748D01*
X138108519Y-122393109D01*
X137825255Y-122393109D01*
X137880369Y-122116034D01*
X137880369Y-121723966D01*
X137803881Y-121339431D01*
X137653843Y-120977207D01*
X137436021Y-120651213D01*
X137158787Y-120373979D01*
X136832793Y-120156157D01*
X136470569Y-120006119D01*
X136086034Y-119929631D01*
X135693966Y-119929631D01*
X135309431Y-120006119D01*
X134947207Y-120156157D01*
X134621213Y-120373979D01*
X134343979Y-120651213D01*
X134126157Y-120977207D01*
X134085000Y-121076569D01*
X134085000Y-99903431D01*
X134126157Y-100002793D01*
X134343979Y-100328787D01*
X134621213Y-100606021D01*
X134947207Y-100823843D01*
X135309431Y-100973881D01*
X135693966Y-101050369D01*
X136086034Y-101050369D01*
X136470569Y-100973881D01*
X136832793Y-100823843D01*
X137158787Y-100606021D01*
X137436021Y-100328787D01*
X137653843Y-100002793D01*
X137803881Y-99640569D01*
X137880369Y-99256034D01*
X137880369Y-98863966D01*
X137803881Y-98479431D01*
X137653843Y-98117207D01*
X137436021Y-97791213D01*
X137158787Y-97513979D01*
X136832793Y-97296157D01*
X136733431Y-97255000D01*
X165526569Y-97255000D01*
X165427207Y-97296157D01*
M02*
