G04 #@! TF.GenerationSoftware,KiCad,Pcbnew,(5.1.6)-1*
G04 #@! TF.CreationDate,2020-06-13T20:50:13+02:00*
G04 #@! TF.ProjectId,CS5490_Breakout,43533534-3930-45f4-9272-65616b6f7574,rev?*
G04 #@! TF.SameCoordinates,Original*
G04 #@! TF.FileFunction,Paste,Top*
G04 #@! TF.FilePolarity,Positive*
%FSLAX46Y46*%
G04 Gerber Fmt 4.6, Leading zero omitted, Abs format (unit mm)*
G04 Created by KiCad (PCBNEW (5.1.6)-1) date 2020-06-13 20:50:13*
%MOMM*%
%LPD*%
G01*
G04 APERTURE LIST*
%ADD10R,2.000000X4.500000*%
%ADD11R,0.600000X1.500000*%
G04 APERTURE END LIST*
G36*
G01*
X150762500Y-102100000D02*
X151237500Y-102100000D01*
G75*
G02*
X151475000Y-102337500I0J-237500D01*
G01*
X151475000Y-102912500D01*
G75*
G02*
X151237500Y-103150000I-237500J0D01*
G01*
X150762500Y-103150000D01*
G75*
G02*
X150525000Y-102912500I0J237500D01*
G01*
X150525000Y-102337500D01*
G75*
G02*
X150762500Y-102100000I237500J0D01*
G01*
G37*
G36*
G01*
X150762500Y-100350000D02*
X151237500Y-100350000D01*
G75*
G02*
X151475000Y-100587500I0J-237500D01*
G01*
X151475000Y-101162500D01*
G75*
G02*
X151237500Y-101400000I-237500J0D01*
G01*
X150762500Y-101400000D01*
G75*
G02*
X150525000Y-101162500I0J237500D01*
G01*
X150525000Y-100587500D01*
G75*
G02*
X150762500Y-100350000I237500J0D01*
G01*
G37*
G36*
G01*
X148762500Y-102100000D02*
X149237500Y-102100000D01*
G75*
G02*
X149475000Y-102337500I0J-237500D01*
G01*
X149475000Y-102912500D01*
G75*
G02*
X149237500Y-103150000I-237500J0D01*
G01*
X148762500Y-103150000D01*
G75*
G02*
X148525000Y-102912500I0J237500D01*
G01*
X148525000Y-102337500D01*
G75*
G02*
X148762500Y-102100000I237500J0D01*
G01*
G37*
G36*
G01*
X148762500Y-100350000D02*
X149237500Y-100350000D01*
G75*
G02*
X149475000Y-100587500I0J-237500D01*
G01*
X149475000Y-101162500D01*
G75*
G02*
X149237500Y-101400000I-237500J0D01*
G01*
X148762500Y-101400000D01*
G75*
G02*
X148525000Y-101162500I0J237500D01*
G01*
X148525000Y-100587500D01*
G75*
G02*
X148762500Y-100350000I237500J0D01*
G01*
G37*
G36*
G01*
X154512500Y-119100000D02*
X154987500Y-119100000D01*
G75*
G02*
X155225000Y-119337500I0J-237500D01*
G01*
X155225000Y-119912500D01*
G75*
G02*
X154987500Y-120150000I-237500J0D01*
G01*
X154512500Y-120150000D01*
G75*
G02*
X154275000Y-119912500I0J237500D01*
G01*
X154275000Y-119337500D01*
G75*
G02*
X154512500Y-119100000I237500J0D01*
G01*
G37*
G36*
G01*
X154512500Y-117350000D02*
X154987500Y-117350000D01*
G75*
G02*
X155225000Y-117587500I0J-237500D01*
G01*
X155225000Y-118162500D01*
G75*
G02*
X154987500Y-118400000I-237500J0D01*
G01*
X154512500Y-118400000D01*
G75*
G02*
X154275000Y-118162500I0J237500D01*
G01*
X154275000Y-117587500D01*
G75*
G02*
X154512500Y-117350000I237500J0D01*
G01*
G37*
G36*
G01*
X159762500Y-119100000D02*
X160237500Y-119100000D01*
G75*
G02*
X160475000Y-119337500I0J-237500D01*
G01*
X160475000Y-119912500D01*
G75*
G02*
X160237500Y-120150000I-237500J0D01*
G01*
X159762500Y-120150000D01*
G75*
G02*
X159525000Y-119912500I0J237500D01*
G01*
X159525000Y-119337500D01*
G75*
G02*
X159762500Y-119100000I237500J0D01*
G01*
G37*
G36*
G01*
X159762500Y-117350000D02*
X160237500Y-117350000D01*
G75*
G02*
X160475000Y-117587500I0J-237500D01*
G01*
X160475000Y-118162500D01*
G75*
G02*
X160237500Y-118400000I-237500J0D01*
G01*
X159762500Y-118400000D01*
G75*
G02*
X159525000Y-118162500I0J237500D01*
G01*
X159525000Y-117587500D01*
G75*
G02*
X159762500Y-117350000I237500J0D01*
G01*
G37*
G36*
G01*
X157762500Y-119100000D02*
X158237500Y-119100000D01*
G75*
G02*
X158475000Y-119337500I0J-237500D01*
G01*
X158475000Y-119912500D01*
G75*
G02*
X158237500Y-120150000I-237500J0D01*
G01*
X157762500Y-120150000D01*
G75*
G02*
X157525000Y-119912500I0J237500D01*
G01*
X157525000Y-119337500D01*
G75*
G02*
X157762500Y-119100000I237500J0D01*
G01*
G37*
G36*
G01*
X157762500Y-117350000D02*
X158237500Y-117350000D01*
G75*
G02*
X158475000Y-117587500I0J-237500D01*
G01*
X158475000Y-118162500D01*
G75*
G02*
X158237500Y-118400000I-237500J0D01*
G01*
X157762500Y-118400000D01*
G75*
G02*
X157525000Y-118162500I0J237500D01*
G01*
X157525000Y-117587500D01*
G75*
G02*
X157762500Y-117350000I237500J0D01*
G01*
G37*
G36*
G01*
X144262500Y-119100000D02*
X144737500Y-119100000D01*
G75*
G02*
X144975000Y-119337500I0J-237500D01*
G01*
X144975000Y-119912500D01*
G75*
G02*
X144737500Y-120150000I-237500J0D01*
G01*
X144262500Y-120150000D01*
G75*
G02*
X144025000Y-119912500I0J237500D01*
G01*
X144025000Y-119337500D01*
G75*
G02*
X144262500Y-119100000I237500J0D01*
G01*
G37*
G36*
G01*
X144262500Y-117350000D02*
X144737500Y-117350000D01*
G75*
G02*
X144975000Y-117587500I0J-237500D01*
G01*
X144975000Y-118162500D01*
G75*
G02*
X144737500Y-118400000I-237500J0D01*
G01*
X144262500Y-118400000D01*
G75*
G02*
X144025000Y-118162500I0J237500D01*
G01*
X144025000Y-117587500D01*
G75*
G02*
X144262500Y-117350000I237500J0D01*
G01*
G37*
G36*
G01*
X142262500Y-119100000D02*
X142737500Y-119100000D01*
G75*
G02*
X142975000Y-119337500I0J-237500D01*
G01*
X142975000Y-119912500D01*
G75*
G02*
X142737500Y-120150000I-237500J0D01*
G01*
X142262500Y-120150000D01*
G75*
G02*
X142025000Y-119912500I0J237500D01*
G01*
X142025000Y-119337500D01*
G75*
G02*
X142262500Y-119100000I237500J0D01*
G01*
G37*
G36*
G01*
X142262500Y-117350000D02*
X142737500Y-117350000D01*
G75*
G02*
X142975000Y-117587500I0J-237500D01*
G01*
X142975000Y-118162500D01*
G75*
G02*
X142737500Y-118400000I-237500J0D01*
G01*
X142262500Y-118400000D01*
G75*
G02*
X142025000Y-118162500I0J237500D01*
G01*
X142025000Y-117587500D01*
G75*
G02*
X142262500Y-117350000I237500J0D01*
G01*
G37*
G36*
G01*
X140757500Y-118400000D02*
X140282500Y-118400000D01*
G75*
G02*
X140045000Y-118162500I0J237500D01*
G01*
X140045000Y-117587500D01*
G75*
G02*
X140282500Y-117350000I237500J0D01*
G01*
X140757500Y-117350000D01*
G75*
G02*
X140995000Y-117587500I0J-237500D01*
G01*
X140995000Y-118162500D01*
G75*
G02*
X140757500Y-118400000I-237500J0D01*
G01*
G37*
G36*
G01*
X140757500Y-120150000D02*
X140282500Y-120150000D01*
G75*
G02*
X140045000Y-119912500I0J237500D01*
G01*
X140045000Y-119337500D01*
G75*
G02*
X140282500Y-119100000I237500J0D01*
G01*
X140757500Y-119100000D01*
G75*
G02*
X140995000Y-119337500I0J-237500D01*
G01*
X140995000Y-119912500D01*
G75*
G02*
X140757500Y-120150000I-237500J0D01*
G01*
G37*
G36*
G01*
X146262500Y-119100000D02*
X146737500Y-119100000D01*
G75*
G02*
X146975000Y-119337500I0J-237500D01*
G01*
X146975000Y-119912500D01*
G75*
G02*
X146737500Y-120150000I-237500J0D01*
G01*
X146262500Y-120150000D01*
G75*
G02*
X146025000Y-119912500I0J237500D01*
G01*
X146025000Y-119337500D01*
G75*
G02*
X146262500Y-119100000I237500J0D01*
G01*
G37*
G36*
G01*
X146262500Y-117350000D02*
X146737500Y-117350000D01*
G75*
G02*
X146975000Y-117587500I0J-237500D01*
G01*
X146975000Y-118162500D01*
G75*
G02*
X146737500Y-118400000I-237500J0D01*
G01*
X146262500Y-118400000D01*
G75*
G02*
X146025000Y-118162500I0J237500D01*
G01*
X146025000Y-117587500D01*
G75*
G02*
X146262500Y-117350000I237500J0D01*
G01*
G37*
G36*
G01*
X157262500Y-108350000D02*
X157737500Y-108350000D01*
G75*
G02*
X157975000Y-108587500I0J-237500D01*
G01*
X157975000Y-109162500D01*
G75*
G02*
X157737500Y-109400000I-237500J0D01*
G01*
X157262500Y-109400000D01*
G75*
G02*
X157025000Y-109162500I0J237500D01*
G01*
X157025000Y-108587500D01*
G75*
G02*
X157262500Y-108350000I237500J0D01*
G01*
G37*
G36*
G01*
X157262500Y-106600000D02*
X157737500Y-106600000D01*
G75*
G02*
X157975000Y-106837500I0J-237500D01*
G01*
X157975000Y-107412500D01*
G75*
G02*
X157737500Y-107650000I-237500J0D01*
G01*
X157262500Y-107650000D01*
G75*
G02*
X157025000Y-107412500I0J237500D01*
G01*
X157025000Y-106837500D01*
G75*
G02*
X157262500Y-106600000I237500J0D01*
G01*
G37*
G36*
G01*
X147237500Y-101400000D02*
X146762500Y-101400000D01*
G75*
G02*
X146525000Y-101162500I0J237500D01*
G01*
X146525000Y-100587500D01*
G75*
G02*
X146762500Y-100350000I237500J0D01*
G01*
X147237500Y-100350000D01*
G75*
G02*
X147475000Y-100587500I0J-237500D01*
G01*
X147475000Y-101162500D01*
G75*
G02*
X147237500Y-101400000I-237500J0D01*
G01*
G37*
G36*
G01*
X147237500Y-103150000D02*
X146762500Y-103150000D01*
G75*
G02*
X146525000Y-102912500I0J237500D01*
G01*
X146525000Y-102337500D01*
G75*
G02*
X146762500Y-102100000I237500J0D01*
G01*
X147237500Y-102100000D01*
G75*
G02*
X147475000Y-102337500I0J-237500D01*
G01*
X147475000Y-102912500D01*
G75*
G02*
X147237500Y-103150000I-237500J0D01*
G01*
G37*
G36*
G01*
X153237500Y-101400000D02*
X152762500Y-101400000D01*
G75*
G02*
X152525000Y-101162500I0J237500D01*
G01*
X152525000Y-100587500D01*
G75*
G02*
X152762500Y-100350000I237500J0D01*
G01*
X153237500Y-100350000D01*
G75*
G02*
X153475000Y-100587500I0J-237500D01*
G01*
X153475000Y-101162500D01*
G75*
G02*
X153237500Y-101400000I-237500J0D01*
G01*
G37*
G36*
G01*
X153237500Y-103150000D02*
X152762500Y-103150000D01*
G75*
G02*
X152525000Y-102912500I0J237500D01*
G01*
X152525000Y-102337500D01*
G75*
G02*
X152762500Y-102100000I237500J0D01*
G01*
X153237500Y-102100000D01*
G75*
G02*
X153475000Y-102337500I0J-237500D01*
G01*
X153475000Y-102912500D01*
G75*
G02*
X153237500Y-103150000I-237500J0D01*
G01*
G37*
G36*
G01*
X154512500Y-115350000D02*
X154987500Y-115350000D01*
G75*
G02*
X155225000Y-115587500I0J-237500D01*
G01*
X155225000Y-116162500D01*
G75*
G02*
X154987500Y-116400000I-237500J0D01*
G01*
X154512500Y-116400000D01*
G75*
G02*
X154275000Y-116162500I0J237500D01*
G01*
X154275000Y-115587500D01*
G75*
G02*
X154512500Y-115350000I237500J0D01*
G01*
G37*
G36*
G01*
X154512500Y-113600000D02*
X154987500Y-113600000D01*
G75*
G02*
X155225000Y-113837500I0J-237500D01*
G01*
X155225000Y-114412500D01*
G75*
G02*
X154987500Y-114650000I-237500J0D01*
G01*
X154512500Y-114650000D01*
G75*
G02*
X154275000Y-114412500I0J237500D01*
G01*
X154275000Y-113837500D01*
G75*
G02*
X154512500Y-113600000I237500J0D01*
G01*
G37*
G36*
G01*
X157762500Y-115350000D02*
X158237500Y-115350000D01*
G75*
G02*
X158475000Y-115587500I0J-237500D01*
G01*
X158475000Y-116162500D01*
G75*
G02*
X158237500Y-116400000I-237500J0D01*
G01*
X157762500Y-116400000D01*
G75*
G02*
X157525000Y-116162500I0J237500D01*
G01*
X157525000Y-115587500D01*
G75*
G02*
X157762500Y-115350000I237500J0D01*
G01*
G37*
G36*
G01*
X157762500Y-113600000D02*
X158237500Y-113600000D01*
G75*
G02*
X158475000Y-113837500I0J-237500D01*
G01*
X158475000Y-114412500D01*
G75*
G02*
X158237500Y-114650000I-237500J0D01*
G01*
X157762500Y-114650000D01*
G75*
G02*
X157525000Y-114412500I0J237500D01*
G01*
X157525000Y-113837500D01*
G75*
G02*
X157762500Y-113600000I237500J0D01*
G01*
G37*
G36*
G01*
X160237500Y-114650000D02*
X159762500Y-114650000D01*
G75*
G02*
X159525000Y-114412500I0J237500D01*
G01*
X159525000Y-113837500D01*
G75*
G02*
X159762500Y-113600000I237500J0D01*
G01*
X160237500Y-113600000D01*
G75*
G02*
X160475000Y-113837500I0J-237500D01*
G01*
X160475000Y-114412500D01*
G75*
G02*
X160237500Y-114650000I-237500J0D01*
G01*
G37*
G36*
G01*
X160237500Y-116400000D02*
X159762500Y-116400000D01*
G75*
G02*
X159525000Y-116162500I0J237500D01*
G01*
X159525000Y-115587500D01*
G75*
G02*
X159762500Y-115350000I237500J0D01*
G01*
X160237500Y-115350000D01*
G75*
G02*
X160475000Y-115587500I0J-237500D01*
G01*
X160475000Y-116162500D01*
G75*
G02*
X160237500Y-116400000I-237500J0D01*
G01*
G37*
G36*
G01*
X141850000Y-115987500D02*
X141850000Y-115512500D01*
G75*
G02*
X142087500Y-115275000I237500J0D01*
G01*
X142662500Y-115275000D01*
G75*
G02*
X142900000Y-115512500I0J-237500D01*
G01*
X142900000Y-115987500D01*
G75*
G02*
X142662500Y-116225000I-237500J0D01*
G01*
X142087500Y-116225000D01*
G75*
G02*
X141850000Y-115987500I0J237500D01*
G01*
G37*
G36*
G01*
X140100000Y-115987500D02*
X140100000Y-115512500D01*
G75*
G02*
X140337500Y-115275000I237500J0D01*
G01*
X140912500Y-115275000D01*
G75*
G02*
X141150000Y-115512500I0J-237500D01*
G01*
X141150000Y-115987500D01*
G75*
G02*
X140912500Y-116225000I-237500J0D01*
G01*
X140337500Y-116225000D01*
G75*
G02*
X140100000Y-115987500I0J237500D01*
G01*
G37*
G36*
G01*
X145850000Y-115987500D02*
X145850000Y-115512500D01*
G75*
G02*
X146087500Y-115275000I237500J0D01*
G01*
X146662500Y-115275000D01*
G75*
G02*
X146900000Y-115512500I0J-237500D01*
G01*
X146900000Y-115987500D01*
G75*
G02*
X146662500Y-116225000I-237500J0D01*
G01*
X146087500Y-116225000D01*
G75*
G02*
X145850000Y-115987500I0J237500D01*
G01*
G37*
G36*
G01*
X144100000Y-115987500D02*
X144100000Y-115512500D01*
G75*
G02*
X144337500Y-115275000I237500J0D01*
G01*
X144912500Y-115275000D01*
G75*
G02*
X145150000Y-115512500I0J-237500D01*
G01*
X145150000Y-115987500D01*
G75*
G02*
X144912500Y-116225000I-237500J0D01*
G01*
X144337500Y-116225000D01*
G75*
G02*
X144100000Y-115987500I0J237500D01*
G01*
G37*
D10*
X142000000Y-101250000D03*
X142000000Y-109750000D03*
D11*
X146555000Y-110700000D03*
X147825000Y-110700000D03*
X149095000Y-110700000D03*
X150365000Y-110700000D03*
X151635000Y-110700000D03*
X152905000Y-110700000D03*
X154175000Y-110700000D03*
X155445000Y-110700000D03*
X155445000Y-105300000D03*
X154175000Y-105300000D03*
X152905000Y-105300000D03*
X151635000Y-105300000D03*
X150365000Y-105300000D03*
X149095000Y-105300000D03*
X147825000Y-105300000D03*
X146555000Y-105300000D03*
M02*
