G04 #@! TF.GenerationSoftware,KiCad,Pcbnew,(5.1.6)-1*
G04 #@! TF.CreationDate,2020-06-13T20:50:13+02:00*
G04 #@! TF.ProjectId,CS5490_Breakout,43533534-3930-45f4-9272-65616b6f7574,rev?*
G04 #@! TF.SameCoordinates,Original*
G04 #@! TF.FileFunction,Soldermask,Top*
G04 #@! TF.FilePolarity,Negative*
%FSLAX46Y46*%
G04 Gerber Fmt 4.6, Leading zero omitted, Abs format (unit mm)*
G04 Created by KiCad (PCBNEW (5.1.6)-1) date 2020-06-13 20:50:13*
%MOMM*%
%LPD*%
G01*
G04 APERTURE LIST*
%ADD10R,2.400000X4.900000*%
%ADD11R,2.100000X2.100000*%
%ADD12O,2.100000X2.100000*%
%ADD13R,1.000000X1.900000*%
G04 APERTURE END LIST*
G36*
G01*
X150662500Y-101900000D02*
X151337500Y-101900000D01*
G75*
G02*
X151675000Y-102237500I0J-337500D01*
G01*
X151675000Y-103012500D01*
G75*
G02*
X151337500Y-103350000I-337500J0D01*
G01*
X150662500Y-103350000D01*
G75*
G02*
X150325000Y-103012500I0J337500D01*
G01*
X150325000Y-102237500D01*
G75*
G02*
X150662500Y-101900000I337500J0D01*
G01*
G37*
G36*
G01*
X150662500Y-100150000D02*
X151337500Y-100150000D01*
G75*
G02*
X151675000Y-100487500I0J-337500D01*
G01*
X151675000Y-101262500D01*
G75*
G02*
X151337500Y-101600000I-337500J0D01*
G01*
X150662500Y-101600000D01*
G75*
G02*
X150325000Y-101262500I0J337500D01*
G01*
X150325000Y-100487500D01*
G75*
G02*
X150662500Y-100150000I337500J0D01*
G01*
G37*
G36*
G01*
X148662500Y-101900000D02*
X149337500Y-101900000D01*
G75*
G02*
X149675000Y-102237500I0J-337500D01*
G01*
X149675000Y-103012500D01*
G75*
G02*
X149337500Y-103350000I-337500J0D01*
G01*
X148662500Y-103350000D01*
G75*
G02*
X148325000Y-103012500I0J337500D01*
G01*
X148325000Y-102237500D01*
G75*
G02*
X148662500Y-101900000I337500J0D01*
G01*
G37*
G36*
G01*
X148662500Y-100150000D02*
X149337500Y-100150000D01*
G75*
G02*
X149675000Y-100487500I0J-337500D01*
G01*
X149675000Y-101262500D01*
G75*
G02*
X149337500Y-101600000I-337500J0D01*
G01*
X148662500Y-101600000D01*
G75*
G02*
X148325000Y-101262500I0J337500D01*
G01*
X148325000Y-100487500D01*
G75*
G02*
X148662500Y-100150000I337500J0D01*
G01*
G37*
G36*
G01*
X154412500Y-118900000D02*
X155087500Y-118900000D01*
G75*
G02*
X155425000Y-119237500I0J-337500D01*
G01*
X155425000Y-120012500D01*
G75*
G02*
X155087500Y-120350000I-337500J0D01*
G01*
X154412500Y-120350000D01*
G75*
G02*
X154075000Y-120012500I0J337500D01*
G01*
X154075000Y-119237500D01*
G75*
G02*
X154412500Y-118900000I337500J0D01*
G01*
G37*
G36*
G01*
X154412500Y-117150000D02*
X155087500Y-117150000D01*
G75*
G02*
X155425000Y-117487500I0J-337500D01*
G01*
X155425000Y-118262500D01*
G75*
G02*
X155087500Y-118600000I-337500J0D01*
G01*
X154412500Y-118600000D01*
G75*
G02*
X154075000Y-118262500I0J337500D01*
G01*
X154075000Y-117487500D01*
G75*
G02*
X154412500Y-117150000I337500J0D01*
G01*
G37*
G36*
G01*
X159662500Y-118900000D02*
X160337500Y-118900000D01*
G75*
G02*
X160675000Y-119237500I0J-337500D01*
G01*
X160675000Y-120012500D01*
G75*
G02*
X160337500Y-120350000I-337500J0D01*
G01*
X159662500Y-120350000D01*
G75*
G02*
X159325000Y-120012500I0J337500D01*
G01*
X159325000Y-119237500D01*
G75*
G02*
X159662500Y-118900000I337500J0D01*
G01*
G37*
G36*
G01*
X159662500Y-117150000D02*
X160337500Y-117150000D01*
G75*
G02*
X160675000Y-117487500I0J-337500D01*
G01*
X160675000Y-118262500D01*
G75*
G02*
X160337500Y-118600000I-337500J0D01*
G01*
X159662500Y-118600000D01*
G75*
G02*
X159325000Y-118262500I0J337500D01*
G01*
X159325000Y-117487500D01*
G75*
G02*
X159662500Y-117150000I337500J0D01*
G01*
G37*
G36*
G01*
X157662500Y-118900000D02*
X158337500Y-118900000D01*
G75*
G02*
X158675000Y-119237500I0J-337500D01*
G01*
X158675000Y-120012500D01*
G75*
G02*
X158337500Y-120350000I-337500J0D01*
G01*
X157662500Y-120350000D01*
G75*
G02*
X157325000Y-120012500I0J337500D01*
G01*
X157325000Y-119237500D01*
G75*
G02*
X157662500Y-118900000I337500J0D01*
G01*
G37*
G36*
G01*
X157662500Y-117150000D02*
X158337500Y-117150000D01*
G75*
G02*
X158675000Y-117487500I0J-337500D01*
G01*
X158675000Y-118262500D01*
G75*
G02*
X158337500Y-118600000I-337500J0D01*
G01*
X157662500Y-118600000D01*
G75*
G02*
X157325000Y-118262500I0J337500D01*
G01*
X157325000Y-117487500D01*
G75*
G02*
X157662500Y-117150000I337500J0D01*
G01*
G37*
G36*
G01*
X144162500Y-118900000D02*
X144837500Y-118900000D01*
G75*
G02*
X145175000Y-119237500I0J-337500D01*
G01*
X145175000Y-120012500D01*
G75*
G02*
X144837500Y-120350000I-337500J0D01*
G01*
X144162500Y-120350000D01*
G75*
G02*
X143825000Y-120012500I0J337500D01*
G01*
X143825000Y-119237500D01*
G75*
G02*
X144162500Y-118900000I337500J0D01*
G01*
G37*
G36*
G01*
X144162500Y-117150000D02*
X144837500Y-117150000D01*
G75*
G02*
X145175000Y-117487500I0J-337500D01*
G01*
X145175000Y-118262500D01*
G75*
G02*
X144837500Y-118600000I-337500J0D01*
G01*
X144162500Y-118600000D01*
G75*
G02*
X143825000Y-118262500I0J337500D01*
G01*
X143825000Y-117487500D01*
G75*
G02*
X144162500Y-117150000I337500J0D01*
G01*
G37*
G36*
G01*
X142162500Y-118900000D02*
X142837500Y-118900000D01*
G75*
G02*
X143175000Y-119237500I0J-337500D01*
G01*
X143175000Y-120012500D01*
G75*
G02*
X142837500Y-120350000I-337500J0D01*
G01*
X142162500Y-120350000D01*
G75*
G02*
X141825000Y-120012500I0J337500D01*
G01*
X141825000Y-119237500D01*
G75*
G02*
X142162500Y-118900000I337500J0D01*
G01*
G37*
G36*
G01*
X142162500Y-117150000D02*
X142837500Y-117150000D01*
G75*
G02*
X143175000Y-117487500I0J-337500D01*
G01*
X143175000Y-118262500D01*
G75*
G02*
X142837500Y-118600000I-337500J0D01*
G01*
X142162500Y-118600000D01*
G75*
G02*
X141825000Y-118262500I0J337500D01*
G01*
X141825000Y-117487500D01*
G75*
G02*
X142162500Y-117150000I337500J0D01*
G01*
G37*
G36*
G01*
X140857500Y-118600000D02*
X140182500Y-118600000D01*
G75*
G02*
X139845000Y-118262500I0J337500D01*
G01*
X139845000Y-117487500D01*
G75*
G02*
X140182500Y-117150000I337500J0D01*
G01*
X140857500Y-117150000D01*
G75*
G02*
X141195000Y-117487500I0J-337500D01*
G01*
X141195000Y-118262500D01*
G75*
G02*
X140857500Y-118600000I-337500J0D01*
G01*
G37*
G36*
G01*
X140857500Y-120350000D02*
X140182500Y-120350000D01*
G75*
G02*
X139845000Y-120012500I0J337500D01*
G01*
X139845000Y-119237500D01*
G75*
G02*
X140182500Y-118900000I337500J0D01*
G01*
X140857500Y-118900000D01*
G75*
G02*
X141195000Y-119237500I0J-337500D01*
G01*
X141195000Y-120012500D01*
G75*
G02*
X140857500Y-120350000I-337500J0D01*
G01*
G37*
G36*
G01*
X146162500Y-118900000D02*
X146837500Y-118900000D01*
G75*
G02*
X147175000Y-119237500I0J-337500D01*
G01*
X147175000Y-120012500D01*
G75*
G02*
X146837500Y-120350000I-337500J0D01*
G01*
X146162500Y-120350000D01*
G75*
G02*
X145825000Y-120012500I0J337500D01*
G01*
X145825000Y-119237500D01*
G75*
G02*
X146162500Y-118900000I337500J0D01*
G01*
G37*
G36*
G01*
X146162500Y-117150000D02*
X146837500Y-117150000D01*
G75*
G02*
X147175000Y-117487500I0J-337500D01*
G01*
X147175000Y-118262500D01*
G75*
G02*
X146837500Y-118600000I-337500J0D01*
G01*
X146162500Y-118600000D01*
G75*
G02*
X145825000Y-118262500I0J337500D01*
G01*
X145825000Y-117487500D01*
G75*
G02*
X146162500Y-117150000I337500J0D01*
G01*
G37*
G36*
G01*
X157162500Y-108150000D02*
X157837500Y-108150000D01*
G75*
G02*
X158175000Y-108487500I0J-337500D01*
G01*
X158175000Y-109262500D01*
G75*
G02*
X157837500Y-109600000I-337500J0D01*
G01*
X157162500Y-109600000D01*
G75*
G02*
X156825000Y-109262500I0J337500D01*
G01*
X156825000Y-108487500D01*
G75*
G02*
X157162500Y-108150000I337500J0D01*
G01*
G37*
G36*
G01*
X157162500Y-106400000D02*
X157837500Y-106400000D01*
G75*
G02*
X158175000Y-106737500I0J-337500D01*
G01*
X158175000Y-107512500D01*
G75*
G02*
X157837500Y-107850000I-337500J0D01*
G01*
X157162500Y-107850000D01*
G75*
G02*
X156825000Y-107512500I0J337500D01*
G01*
X156825000Y-106737500D01*
G75*
G02*
X157162500Y-106400000I337500J0D01*
G01*
G37*
G36*
G01*
X147337500Y-101600000D02*
X146662500Y-101600000D01*
G75*
G02*
X146325000Y-101262500I0J337500D01*
G01*
X146325000Y-100487500D01*
G75*
G02*
X146662500Y-100150000I337500J0D01*
G01*
X147337500Y-100150000D01*
G75*
G02*
X147675000Y-100487500I0J-337500D01*
G01*
X147675000Y-101262500D01*
G75*
G02*
X147337500Y-101600000I-337500J0D01*
G01*
G37*
G36*
G01*
X147337500Y-103350000D02*
X146662500Y-103350000D01*
G75*
G02*
X146325000Y-103012500I0J337500D01*
G01*
X146325000Y-102237500D01*
G75*
G02*
X146662500Y-101900000I337500J0D01*
G01*
X147337500Y-101900000D01*
G75*
G02*
X147675000Y-102237500I0J-337500D01*
G01*
X147675000Y-103012500D01*
G75*
G02*
X147337500Y-103350000I-337500J0D01*
G01*
G37*
G36*
G01*
X153337500Y-101600000D02*
X152662500Y-101600000D01*
G75*
G02*
X152325000Y-101262500I0J337500D01*
G01*
X152325000Y-100487500D01*
G75*
G02*
X152662500Y-100150000I337500J0D01*
G01*
X153337500Y-100150000D01*
G75*
G02*
X153675000Y-100487500I0J-337500D01*
G01*
X153675000Y-101262500D01*
G75*
G02*
X153337500Y-101600000I-337500J0D01*
G01*
G37*
G36*
G01*
X153337500Y-103350000D02*
X152662500Y-103350000D01*
G75*
G02*
X152325000Y-103012500I0J337500D01*
G01*
X152325000Y-102237500D01*
G75*
G02*
X152662500Y-101900000I337500J0D01*
G01*
X153337500Y-101900000D01*
G75*
G02*
X153675000Y-102237500I0J-337500D01*
G01*
X153675000Y-103012500D01*
G75*
G02*
X153337500Y-103350000I-337500J0D01*
G01*
G37*
G36*
G01*
X154412500Y-115150000D02*
X155087500Y-115150000D01*
G75*
G02*
X155425000Y-115487500I0J-337500D01*
G01*
X155425000Y-116262500D01*
G75*
G02*
X155087500Y-116600000I-337500J0D01*
G01*
X154412500Y-116600000D01*
G75*
G02*
X154075000Y-116262500I0J337500D01*
G01*
X154075000Y-115487500D01*
G75*
G02*
X154412500Y-115150000I337500J0D01*
G01*
G37*
G36*
G01*
X154412500Y-113400000D02*
X155087500Y-113400000D01*
G75*
G02*
X155425000Y-113737500I0J-337500D01*
G01*
X155425000Y-114512500D01*
G75*
G02*
X155087500Y-114850000I-337500J0D01*
G01*
X154412500Y-114850000D01*
G75*
G02*
X154075000Y-114512500I0J337500D01*
G01*
X154075000Y-113737500D01*
G75*
G02*
X154412500Y-113400000I337500J0D01*
G01*
G37*
G36*
G01*
X157662500Y-115150000D02*
X158337500Y-115150000D01*
G75*
G02*
X158675000Y-115487500I0J-337500D01*
G01*
X158675000Y-116262500D01*
G75*
G02*
X158337500Y-116600000I-337500J0D01*
G01*
X157662500Y-116600000D01*
G75*
G02*
X157325000Y-116262500I0J337500D01*
G01*
X157325000Y-115487500D01*
G75*
G02*
X157662500Y-115150000I337500J0D01*
G01*
G37*
G36*
G01*
X157662500Y-113400000D02*
X158337500Y-113400000D01*
G75*
G02*
X158675000Y-113737500I0J-337500D01*
G01*
X158675000Y-114512500D01*
G75*
G02*
X158337500Y-114850000I-337500J0D01*
G01*
X157662500Y-114850000D01*
G75*
G02*
X157325000Y-114512500I0J337500D01*
G01*
X157325000Y-113737500D01*
G75*
G02*
X157662500Y-113400000I337500J0D01*
G01*
G37*
G36*
G01*
X160337500Y-114850000D02*
X159662500Y-114850000D01*
G75*
G02*
X159325000Y-114512500I0J337500D01*
G01*
X159325000Y-113737500D01*
G75*
G02*
X159662500Y-113400000I337500J0D01*
G01*
X160337500Y-113400000D01*
G75*
G02*
X160675000Y-113737500I0J-337500D01*
G01*
X160675000Y-114512500D01*
G75*
G02*
X160337500Y-114850000I-337500J0D01*
G01*
G37*
G36*
G01*
X160337500Y-116600000D02*
X159662500Y-116600000D01*
G75*
G02*
X159325000Y-116262500I0J337500D01*
G01*
X159325000Y-115487500D01*
G75*
G02*
X159662500Y-115150000I337500J0D01*
G01*
X160337500Y-115150000D01*
G75*
G02*
X160675000Y-115487500I0J-337500D01*
G01*
X160675000Y-116262500D01*
G75*
G02*
X160337500Y-116600000I-337500J0D01*
G01*
G37*
G36*
G01*
X141650000Y-116087500D02*
X141650000Y-115412500D01*
G75*
G02*
X141987500Y-115075000I337500J0D01*
G01*
X142762500Y-115075000D01*
G75*
G02*
X143100000Y-115412500I0J-337500D01*
G01*
X143100000Y-116087500D01*
G75*
G02*
X142762500Y-116425000I-337500J0D01*
G01*
X141987500Y-116425000D01*
G75*
G02*
X141650000Y-116087500I0J337500D01*
G01*
G37*
G36*
G01*
X139900000Y-116087500D02*
X139900000Y-115412500D01*
G75*
G02*
X140237500Y-115075000I337500J0D01*
G01*
X141012500Y-115075000D01*
G75*
G02*
X141350000Y-115412500I0J-337500D01*
G01*
X141350000Y-116087500D01*
G75*
G02*
X141012500Y-116425000I-337500J0D01*
G01*
X140237500Y-116425000D01*
G75*
G02*
X139900000Y-116087500I0J337500D01*
G01*
G37*
G36*
G01*
X145650000Y-116087500D02*
X145650000Y-115412500D01*
G75*
G02*
X145987500Y-115075000I337500J0D01*
G01*
X146762500Y-115075000D01*
G75*
G02*
X147100000Y-115412500I0J-337500D01*
G01*
X147100000Y-116087500D01*
G75*
G02*
X146762500Y-116425000I-337500J0D01*
G01*
X145987500Y-116425000D01*
G75*
G02*
X145650000Y-116087500I0J337500D01*
G01*
G37*
G36*
G01*
X143900000Y-116087500D02*
X143900000Y-115412500D01*
G75*
G02*
X144237500Y-115075000I337500J0D01*
G01*
X145012500Y-115075000D01*
G75*
G02*
X145350000Y-115412500I0J-337500D01*
G01*
X145350000Y-116087500D01*
G75*
G02*
X145012500Y-116425000I-337500J0D01*
G01*
X144237500Y-116425000D01*
G75*
G02*
X143900000Y-116087500I0J337500D01*
G01*
G37*
D10*
X142000000Y-101250000D03*
X142000000Y-109750000D03*
D11*
X162410000Y-122750000D03*
D12*
X159870000Y-122750000D03*
X157330000Y-122750000D03*
X154790000Y-122750000D03*
X152250000Y-122750000D03*
X149710000Y-122750000D03*
X147170000Y-122750000D03*
X144630000Y-122750000D03*
X142090000Y-122750000D03*
X139550000Y-122750000D03*
D13*
X146555000Y-110700000D03*
X147825000Y-110700000D03*
X149095000Y-110700000D03*
X150365000Y-110700000D03*
X151635000Y-110700000D03*
X152905000Y-110700000D03*
X154175000Y-110700000D03*
X155445000Y-110700000D03*
X155445000Y-105300000D03*
X154175000Y-105300000D03*
X152905000Y-105300000D03*
X151635000Y-105300000D03*
X150365000Y-105300000D03*
X149095000Y-105300000D03*
X147825000Y-105300000D03*
X146555000Y-105300000D03*
M02*
